<?xml version="1.0" encoding="UTF-8" standalone="no"?>
<!-- Created with Inkscape (http://www.inkscape.org/) -->

<svg
   xmlns:dc="http://purl.org/dc/elements/1.1/"
   xmlns:cc="http://creativecommons.org/ns#"
   xmlns:rdf="http://www.w3.org/1999/02/22-rdf-syntax-ns#"
   xmlns:svg="http://www.w3.org/2000/svg"
   xmlns="http://www.w3.org/2000/svg"
   xmlns:xlink="http://www.w3.org/1999/xlink"
   xmlns:sodipodi="http://sodipodi.sourceforge.net/DTD/sodipodi-0.dtd"
   xmlns:inkscape="http://www.inkscape.org/namespaces/inkscape"
   version="1.0"
   width="48"
   height="48"
   id="svg3396"
   sodipodi:docname="folder-publicshare.svg"
   inkscape:version="0.92.4 (5da689c313, 2019-01-14)">
  <metadata
     id="metadata84">
    <rdf:RDF>
      <cc:Work
         rdf:about="">
        <dc:format>image/svg+xml</dc:format>
        <dc:type
           rdf:resource="http://purl.org/dc/dcmitype/StillImage" />
      </cc:Work>
    </rdf:RDF>
  </metadata>
  <sodipodi:namedview
     pagecolor="#ffffff"
     bordercolor="#666666"
     borderopacity="1"
     objecttolerance="10"
     gridtolerance="10"
     guidetolerance="10"
     inkscape:pageopacity="0"
     inkscape:pageshadow="2"
     inkscape:window-width="1680"
     inkscape:window-height="1002"
     id="namedview82"
     showgrid="false"
     inkscape:zoom="4.9166667"
     inkscape:cx="24"
     inkscape:cy="24"
     inkscape:window-x="0"
     inkscape:window-y="0"
     inkscape:window-maximized="1"
     inkscape:current-layer="svg3396" />
  <defs
     id="defs3398">
    <radialGradient
       cx="32"
       cy="41.5"
       r="21"
       fx="32"
       fy="41.5"
       id="radialGradient2759"
       xlink:href="#linearGradient5060"
       gradientUnits="userSpaceOnUse"
       gradientTransform="matrix(0.5714286,0,0,0.1666667,14.714283,37.583334)" />
    <radialGradient
       cx="24.999998"
       cy="28.659998"
       r="16"
       fx="24.999998"
       fy="28.659998"
       id="radialGradient2756"
       xlink:href="#linearGradient6954"
       gradientUnits="userSpaceOnUse"
       gradientTransform="matrix(0.8891139,0,0,0.2643979,7.3850515,29.359857)" />
    <linearGradient
       x1="24.348665"
       y1="57.333424"
       x2="24.348665"
       y2="83.733253"
       id="linearGradient2753"
       xlink:href="#linearGradient3341"
       gradientUnits="userSpaceOnUse"
       gradientTransform="matrix(0.6551745,0,0,0.6818225,16.047376,-11.09122)" />
    <linearGradient
       id="linearGradient6954">
      <stop
         id="stop6960"
         style="stop-color:#f5f5f5;stop-opacity:1"
         offset="0" />
      <stop
         id="stop6962"
         style="stop-color:#d2d2d2;stop-opacity:1"
         offset="1" />
    </linearGradient>
    <radialGradient
       cx="26.375898"
       cy="12.31301"
       r="8"
       fx="26.375898"
       fy="12.31301"
       id="radialGradient2750"
       xlink:href="#linearGradient6954"
       gradientUnits="userSpaceOnUse"
       gradientTransform="matrix(0.9841231,-8.459387e-2,7.687018e-2,1.0112316,3.9614759,12.655281)" />
    <linearGradient
       x1="22"
       y1="39"
       x2="17"
       y2="37.4375"
       id="linearGradient2747"
       xlink:href="#linearGradient5060"
       gradientUnits="userSpaceOnUse"
       gradientTransform="matrix(0.75,0,0,0.6521739,11.250004,17.226089)" />
    <linearGradient
       x1="38"
       y1="39"
       x2="43"
       y2="38.599998"
       id="linearGradient2744"
       xlink:href="#linearGradient5060"
       gradientUnits="userSpaceOnUse"
       gradientTransform="matrix(0.75,0,0,0.6521739,9.7500044,17.226089)" />
    <linearGradient
       id="linearGradient5060">
      <stop
         id="stop5062"
         style="stop-color:#000000;stop-opacity:1"
         offset="0" />
      <stop
         id="stop5064"
         style="stop-color:#000000;stop-opacity:0"
         offset="1" />
    </linearGradient>
    <radialGradient
       cx="30"
       cy="33.1875"
       r="4.6875"
       fx="30"
       fy="33.1875"
       id="radialGradient2741"
       xlink:href="#linearGradient5060"
       gradientUnits="userSpaceOnUse"
       gradientTransform="matrix(1.3038704,-4.7098302e-7,1.8183369e-7,0.3072442,-6.11612,26.803347)" />
    <linearGradient
       id="linearGradient3341">
      <stop
         id="stop3343"
         style="stop-color:#ffffff;stop-opacity:1"
         offset="0" />
      <stop
         id="stop3345"
         style="stop-color:#ffffff;stop-opacity:0"
         offset="1" />
    </linearGradient>
    <linearGradient
       x1="29.999992"
       y1="5.7028165"
       x2="29.999992"
       y2="27.956825"
       id="linearGradient2738"
       xlink:href="#linearGradient3341"
       gradientUnits="userSpaceOnUse"
       gradientTransform="matrix(0.5410937,0,0,0.603279,16.767194,16.55961)" />
    <linearGradient
       id="linearGradient3484">
      <stop
         id="stop3486"
         style="stop-color:#bdbdbd;stop-opacity:1"
         offset="0" />
      <stop
         id="stop3488"
         style="stop-color:#d0d0d0;stop-opacity:1"
         offset="1" />
    </linearGradient>
    <radialGradient
       cx="3"
       cy="5.01718"
       r="21"
       fx="3"
       fy="5.01718"
       id="radialGradient2455"
       xlink:href="#linearGradient3484"
       gradientUnits="userSpaceOnUse"
       gradientTransform="matrix(-1.274898e-8,1.7142916,-2.159331,-1.4599595e-8,12.809361,2.8570011)" />
    <linearGradient
       id="linearGradient6404">
      <stop
         id="stop6406"
         style="stop-color:#f9f9f9;stop-opacity:1"
         offset="0" />
      <stop
         id="stop6408"
         style="stop-color:#c9c9c9;stop-opacity:1"
         offset="1" />
    </linearGradient>
    <linearGradient
       x1="62.988873"
       y1="13.182598"
       x2="62.988873"
       y2="16.19013"
       id="linearGradient2453"
       xlink:href="#linearGradient6404"
       gradientUnits="userSpaceOnUse"
       gradientTransform="translate(-50.940898,0)" />
    <linearGradient
       id="linearGradient5060-820">
      <stop
         id="stop2681"
         style="stop-color:#000000;stop-opacity:1"
         offset="0" />
      <stop
         id="stop2683"
         style="stop-color:#000000;stop-opacity:0"
         offset="1" />
    </linearGradient>
    <radialGradient
       cx="605.71429"
       cy="486.64789"
       r="117.14286"
       fx="605.71429"
       fy="486.64789"
       id="radialGradient7600-312"
       xlink:href="#linearGradient5060-820"
       gradientUnits="userSpaceOnUse"
       gradientTransform="matrix(-3.212956e-2,0,0,3.705882e-2,23.363215,25.412461)" />
    <linearGradient
       id="linearGradient5060-179">
      <stop
         id="stop2675"
         style="stop-color:#000000;stop-opacity:1"
         offset="0" />
      <stop
         id="stop2677"
         style="stop-color:#000000;stop-opacity:0"
         offset="1" />
    </linearGradient>
    <radialGradient
       cx="605.71429"
       cy="486.64789"
       r="117.14286"
       fx="605.71429"
       fy="486.64789"
       id="radialGradient7598-526"
       xlink:href="#linearGradient5060-179"
       gradientUnits="userSpaceOnUse"
       gradientTransform="matrix(3.212956e-2,0,0,3.705882e-2,24.636785,25.412461)" />
    <linearGradient
       id="linearGradient5048-585">
      <stop
         id="stop2667"
         style="stop-color:#000000;stop-opacity:0"
         offset="0" />
      <stop
         id="stop2669"
         style="stop-color:#000000;stop-opacity:1"
         offset="0.5" />
      <stop
         id="stop2671"
         style="stop-color:#000000;stop-opacity:0"
         offset="1" />
    </linearGradient>
    <linearGradient
       x1="302.85715"
       y1="366.64789"
       x2="302.85715"
       y2="609.50507"
       id="linearGradient7596-975"
       xlink:href="#linearGradient5048-585"
       gradientUnits="userSpaceOnUse"
       gradientTransform="matrix(0.08284024,0,0,0.03705882,-5.9408285,25.412461)" />
    <linearGradient
       id="linearGradient3390-178-986-453">
      <stop
         id="stop3624"
         style="stop-color:#bb2b12;stop-opacity:1"
         offset="0" />
      <stop
         id="stop3626"
         style="stop-color:#cd7233;stop-opacity:1"
         offset="1" />
    </linearGradient>
    <linearGradient
       x1="82.453476"
       y1="45.114193"
       x2="65.340263"
       y2="15.943953"
       id="linearGradient2446"
       xlink:href="#linearGradient3390-178-986-453"
       gradientUnits="userSpaceOnUse"
       gradientTransform="translate(-53.765393,-0.1141929)" />
    <linearGradient
       id="linearGradient7012-661-145-733-759-865-745-661-970-94">
      <stop
         id="stop3618"
         style="stop-color:#f0c178;stop-opacity:1"
         offset="0" />
      <stop
         id="stop3270"
         style="stop-color:#e18941;stop-opacity:1"
         offset="0.5" />
      <stop
         id="stop3620"
         style="stop-color:#ec4f18;stop-opacity:1"
         offset="1" />
    </linearGradient>
    <radialGradient
       cx="63.969177"
       cy="14.113381"
       r="23.097054"
       fx="63.969177"
       fy="14.113381"
       id="radialGradient2444"
       xlink:href="#linearGradient7012-661-145-733-759-865-745-661-970-94"
       gradientUnits="userSpaceOnUse"
       gradientTransform="matrix(1.5646925,-9.5143002e-8,6.1772287e-8,1.015888,-86.212573,8.1461173)" />
    <linearGradient
       id="linearGradient6129-963-697-142-998-580-273">
      <stop
         id="stop2661"
         style="stop-color:#0a0a0a;stop-opacity:0.498"
         offset="0" />
      <stop
         id="stop2663"
         style="stop-color:#0a0a0a;stop-opacity:0"
         offset="1" />
    </linearGradient>
    <linearGradient
       x1="22.934725"
       y1="49.629246"
       x2="22.809399"
       y2="36.657963"
       id="linearGradient2441"
       xlink:href="#linearGradient6129-963-697-142-998-580-273"
       gradientUnits="userSpaceOnUse"
       gradientTransform="matrix(1.1446925,0,0,0.9977536,-3.4661413,1.0988425)" />
    <linearGradient
       id="linearGradient6087-437-184-795-110-662-495">
      <stop
         id="stop2693"
         style="stop-color:#ffffff;stop-opacity:0.40000001"
         offset="0" />
      <stop
         id="stop2695"
         style="stop-color:#ffffff;stop-opacity:0"
         offset="1" />
    </linearGradient>
    <radialGradient
       cx="7.2646537"
       cy="8.3021259"
       r="20.979567"
       fx="7.2646537"
       fy="8.3021259"
       id="radialGradient2438"
       xlink:href="#linearGradient6087-437-184-795-110-662-495"
       gradientUnits="userSpaceOnUse"
       gradientTransform="matrix(0,1.2079744,-1.6271642,0,26.371748,8.2664685)" />
    <linearGradient
       id="linearGradient8265-821-176-38-919-66-249">
      <stop
         id="stop2687"
         style="stop-color:#ffffff;stop-opacity:0.27450982"
         offset="0" />
      <stop
         id="stop2689"
         style="stop-color:#ffffff;stop-opacity:0.07843138"
         offset="1" />
    </linearGradient>
    <linearGradient
       x1="11.566265"
       y1="22.292103"
       x2="15.214532"
       y2="33.95525"
       id="linearGradient2435"
       xlink:href="#linearGradient8265-821-176-38-919-66-249"
       gradientUnits="userSpaceOnUse" />
    <radialGradient
       cx="82.686684"
       cy="32.340275"
       r="23.097054"
       fx="82.686684"
       fy="32.340275"
       id="radialGradient2444-3"
       xlink:href="#linearGradient4579"
       gradientUnits="userSpaceOnUse"
       gradientTransform="matrix(1.5646925,-9.5143002e-8,6.1772287e-8,1.015888,-86.212573,8.1461169)" />
    <linearGradient
       id="linearGradient4579">
      <stop
         id="stop4575"
         style="stop-color:#ffb681;stop-opacity:1"
         offset="0" />
      <stop
         id="stop4577"
         style="stop-color:#fff190;stop-opacity:1"
         offset="1" />
    </linearGradient>
    <radialGradient
       cx="605.71429"
       cy="486.64789"
       r="117.14286"
       fx="605.71429"
       fy="486.64789"
       id="radialGradient7598-526-3"
       xlink:href="#linearGradient5060"
       gradientUnits="userSpaceOnUse"
       gradientTransform="matrix(0.03212956,0,0,0.03705882,24.636785,25.412461)" />
    <radialGradient
       cx="605.71429"
       cy="486.64789"
       r="117.14286"
       fx="605.71429"
       fy="486.64789"
       id="radialGradient7600-312-2"
       xlink:href="#linearGradient5060"
       gradientUnits="userSpaceOnUse"
       gradientTransform="matrix(-0.03212956,0,0,0.03705882,23.363215,25.412461)" />
  </defs>
  <path
     inkscape:connector-curvature="0"
     d="m 3.5062498,8.4999991 c -0.690271,0.00767 -1.0004418,0.3421461 -1.0004418,1 0,5.5144549 0.026278,9.7395769 -0.00581,14.7504309 1.4354706,0 42.999998,-3.699732 42.999998,-5.292264 v -6.451519 c 0,-0.657853 -0.554204,-1.007671 -1.244479,-1 H 23.999998 c -2.047483,0 -3.498891,-3.0066479 -5,-3.0066479 H 3.5062477 Z"
     id="path3468"
     style="display:inline;fill:#ffc881;fill-opacity:1;stroke:#9e4600;stroke-width:1.00000012;stroke-linecap:round;stroke-linejoin:round;stroke-miterlimit:4;stroke-dasharray:none;stroke-opacity:1" />
  <g
     transform="matrix(0.9583333,0,0,0.6666667,1.0000008,15)"
     id="g7591"
     style="opacity:0.4">
    <rect
       width="40"
       height="9"
       x="4"
       y="39"
       id="rect4173"
       style="display:inline;overflow:visible;visibility:visible;fill:url(#linearGradient7596-975);fill-opacity:1;fill-rule:nonzero;stroke:none;stroke-width:1;marker:none" />
    <path
       inkscape:connector-curvature="0"
       d="m 44,39.00031 c 0,0 0,8.999504 0,8.999504 1.654593,0.01694 4.000001,-2.016333 4,-4.500331 0,-2.483999 -1.846402,-4.499173 -4,-4.499173 z"
       id="path5058"
       style="display:inline;overflow:visible;visibility:visible;fill:url(#radialGradient7598-526-3);fill-opacity:1;fill-rule:nonzero;stroke:none;stroke-width:1;marker:none" />
    <path
       inkscape:connector-curvature="0"
       d="m 4,39.00031 c 0,0 0,8.999504 0,8.999504 C 2.3454068,48.016755 0,45.983481 0,43.499483 0,41.015484 1.8464008,39.00031 4,39.00031 Z"
       id="path5018"
       style="display:inline;overflow:visible;visibility:visible;fill:url(#radialGradient7600-312-2);fill-opacity:1;fill-rule:nonzero;stroke:none;stroke-width:1;marker:none" />
  </g>
  <path
     inkscape:connector-curvature="0"
     d="m 2.1628556,16.525193 c -1.072707,0.123694 -0.49977,1.402118 -0.585297,2.121012 0.392532,8.47009 0.788932,16.769455 1.179047,25.239602 0.341836,0.965693 1.594435,0.47116 2.388117,0.59375 13.1935444,0 26.3870894,0 39.5806354,0 1.08938,-0.106651 0.63646,-1.407681 0.7897,-2.152262 0.39254,-8.47009 0.78894,-16.769455 1.17905,-25.239602 -0.25117,-0.954289 -1.51951,-0.424014 -2.263123,-0.5625 -14.089374,0 -28.178751,0 -42.2681294,0 z"
     id="path3388"
     style="fill:url(#radialGradient2444-3);fill-opacity:1;stroke:#673200;stroke-width:1;stroke-linecap:round;stroke-linejoin:round;stroke-miterlimit:4;stroke-dashoffset:0;stroke-opacity:0.84090905" />
  <path
     d="M 45,44.5 C 45,46.432997 39.627417,48 33,48 C 26.372583,48 21,46.432997 21,44.5 C 21,42.567003 26.372583,41 33,41 C 39.627417,41 45,42.567003 45,44.5 L 45,44.5 z"
     id="path3823"
     style="opacity:0.8;fill:url(#radialGradient2759);fill-opacity:1;stroke:none" />
  <path
     d="M 30.052,29.499986 C 30.363757,31.041838 30.636909,32.208141 30.384,33.749992 C 28.412236,35.460534 23.169847,36.229163 23.177409,37.999999 L 22.499986,43.312508 C 22.499986,45.072917 27.201004,46.500014 32.999999,46.500014 C 38.798998,46.500014 43.500014,45.072917 43.500014,43.312508 L 42.822592,37.999999 C 42.814492,36.484403 37.541581,35.520829 35.594,33.749992 C 35.427642,32.318918 35.66003,30.931061 35.948,29.499986 L 30.052,29.499986 L 30.052,29.499986 z"
     id="path3766"
     style="fill:url(#radialGradient2756);fill-opacity:1;stroke:#808080;stroke-width:0.99997276;stroke-miterlimit:4;stroke-dasharray:none;stroke-opacity:1" />
  <path
     d="M 31.109,30.499954 C 31.316393,31.7181 31.679657,32.997417 31.371,34.209665 C 30.785231,34.944637 29.345881,35.309092 28.519896,35.712316 C 27.117633,36.371594 25.527644,36.723495 24.311987,37.721748 C 24.045174,38.094667 24.133435,38.610415 24.029415,39.050348 C 23.853857,40.41195 23.670957,41.773075 23.499987,43.134974 C 23.872233,43.963325 24.900201,44.210189 25.678327,44.525303 C 28.996041,45.535273 32.52723,45.647949 35.963354,45.363195 C 37.964579,45.143307 40.033641,44.855711 41.817676,43.866069 C 42.366337,43.635582 42.619072,43.101725 42.427249,42.554922 C 42.236756,41.036388 42.017026,39.519685 41.844877,38.000002 C 41.080932,37.215326 39.97009,36.900468 38.99798,36.444985 C 37.654078,35.852653 35.586454,35.340828 34.544,34.266336 C 34.3419,33.059216 34.797539,31.517191 34.735,30.499951 C 33.359882,30.499953 32.484116,30.499947 31.109,30.499954 L 31.109,30.499954 z"
     id="path3894"
     style="fill:none;stroke:url(#linearGradient2753);stroke-width:0.99990517;stroke-miterlimit:4;stroke-dasharray:none;stroke-opacity:1" />
  <path
     d="M 32.999999,19.499889 C 30.514656,19.499889 28.499889,21.499536 28.499889,23.966223 C 28.519369,24.879095 28.592639,25.963554 29.099904,28.432558 C 29.399911,29.389628 32.075833,32.141976 32.099977,32.461 C 32.681793,32.780023 33.600014,32.780023 34.200028,32.461 C 34.200028,32.141976 36.600087,29.389628 36.900094,28.432558 C 37.470934,25.866527 37.469492,24.923295 37.500109,23.966223 C 37.500109,21.499536 35.485342,19.499889 32.999999,19.499889 L 32.999999,19.499889 z"
     id="path3764"
     style="fill:url(#radialGradient2750);fill-opacity:1;stroke:#999999;stroke-width:0.99977899;stroke-miterlimit:4;stroke-dasharray:none;stroke-opacity:1" />
  <path
     d="M 27,45.4 C 25.228238,44.107264 26.073098,41.237265 26.25,39.4 C 25.500001,40.704348 25.500001,44.617391 24,44.617391 C 25.021958,44.916448 26.06217,45.247254 27,45.4 z"
     id="path3848"
     style="opacity:0.3;fill:url(#linearGradient2747);fill-opacity:1;stroke:none" />
  <path
     d="M 39,45.4 C 40.762535,44.262774 39.867541,41.170054 39.749999,39.4 C 40.499999,40.704347 40.499999,44.617391 42,44.617391 C 40.978042,44.916448 39.937828,45.247253 39,45.4 z"
     id="path3850"
     style="opacity:0.3;fill:url(#linearGradient2744);fill-opacity:1;stroke:none" />
  <path
     d="M 29,35 C 29.585645,36.163172 31.149469,37 33,37 C 34.850531,37 36.414353,36.163172 37,35 L 29,35 z"
     id="path3833"
     style="opacity:0.2;fill:url(#radialGradient2741);fill-opacity:1;stroke:none" />
  <path
     d="M 33.000002,20.499776 C 31.421557,20.468313 29.96536,21.66624 29.611933,23.190723 C 29.378759,24.194134 29.567243,25.231381 29.689543,26.237781 C 29.802771,26.90568 29.882067,27.589079 30.065327,28.238532 C 30.734037,29.40204 31.756628,30.308446 32.526544,31.396521 C 32.939447,31.519378 33.606376,31.63792 33.850275,31.198459 C 34.541419,30.179103 35.421492,29.28076 35.976017,28.172749 C 36.274472,26.68041 36.5787,25.157632 36.470502,23.628049 C 36.29848,22.013711 34.908939,20.607181 33.272085,20.510328 C 33.181575,20.503278 33.090747,20.499826 32.999999,20.499777 L 33.000002,20.499776 z"
     id="path3906"
     style="opacity:0.7;fill:none;stroke:url(#linearGradient2738);stroke-width:0.99956059;stroke-miterlimit:4;stroke-dasharray:none;stroke-opacity:1" />
</svg>
