<?xml version="1.0" encoding="UTF-8" standalone="no"?>
<!-- Created with Inkscape (http://www.inkscape.org/) -->

<svg
   xmlns:dc="http://purl.org/dc/elements/1.1/"
   xmlns:cc="http://creativecommons.org/ns#"
   xmlns:rdf="http://www.w3.org/1999/02/22-rdf-syntax-ns#"
   xmlns:svg="http://www.w3.org/2000/svg"
   xmlns="http://www.w3.org/2000/svg"
   xmlns:xlink="http://www.w3.org/1999/xlink"
   xmlns:sodipodi="http://sodipodi.sourceforge.net/DTD/sodipodi-0.dtd"
   xmlns:inkscape="http://www.inkscape.org/namespaces/inkscape"
   version="1.0"
   width="48"
   height="48"
   id="svg3602"
   sodipodi:docname="folder-ubuntu.svg"
   inkscape:version="0.92.4 (5da689c313, 2019-01-14)">
  <metadata
     id="metadata62">
    <rdf:RDF>
      <cc:Work
         rdf:about="">
        <dc:format>image/svg+xml</dc:format>
        <dc:type
           rdf:resource="http://purl.org/dc/dcmitype/StillImage" />
      </cc:Work>
    </rdf:RDF>
  </metadata>
  <sodipodi:namedview
     pagecolor="#ffffff"
     bordercolor="#666666"
     borderopacity="1"
     objecttolerance="10"
     gridtolerance="10"
     guidetolerance="10"
     inkscape:pageopacity="0"
     inkscape:pageshadow="2"
     inkscape:window-width="1680"
     inkscape:window-height="1002"
     id="namedview60"
     showgrid="false"
     inkscape:zoom="4.9166667"
     inkscape:cx="24"
     inkscape:cy="24"
     inkscape:window-x="0"
     inkscape:window-y="0"
     inkscape:window-maximized="1"
     inkscape:current-layer="layer1" />
  <defs
     id="defs3604">
    <linearGradient
       id="linearGradient3484">
      <stop
         id="stop3486"
         style="stop-color:#bdbdbd;stop-opacity:1"
         offset="0" />
      <stop
         id="stop3488"
         style="stop-color:#d0d0d0;stop-opacity:1"
         offset="1" />
    </linearGradient>
    <radialGradient
       cx="3"
       cy="5.01718"
       r="21"
       fx="3"
       fy="5.01718"
       id="radialGradient2810"
       xlink:href="#linearGradient3484"
       gradientUnits="userSpaceOnUse"
       gradientTransform="matrix(-1.274898e-8,1.7142916,-2.159331,-1.4599595e-8,12.809361,2.8570011)" />
    <linearGradient
       id="linearGradient6404">
      <stop
         id="stop6406"
         style="stop-color:#f9f9f9;stop-opacity:1"
         offset="0" />
      <stop
         id="stop6408"
         style="stop-color:#c9c9c9;stop-opacity:1"
         offset="1" />
    </linearGradient>
    <linearGradient
       x1="62.988873"
       y1="13.182598"
       x2="62.988873"
       y2="16.19013"
       id="linearGradient2808"
       xlink:href="#linearGradient6404"
       gradientUnits="userSpaceOnUse"
       gradientTransform="translate(-50.940898,0)" />
    <linearGradient
       id="linearGradient5060-820">
      <stop
         id="stop2681"
         style="stop-color:#000000;stop-opacity:1"
         offset="0" />
      <stop
         id="stop2683"
         style="stop-color:#000000;stop-opacity:0"
         offset="1" />
    </linearGradient>
    <radialGradient
       cx="605.71429"
       cy="486.64789"
       r="117.14286"
       fx="605.71429"
       fy="486.64789"
       id="radialGradient7600-312"
       xlink:href="#linearGradient5060-820"
       gradientUnits="userSpaceOnUse"
       gradientTransform="matrix(-3.212956e-2,0,0,3.705882e-2,23.363215,25.412461)" />
    <linearGradient
       id="linearGradient5060-179">
      <stop
         id="stop2675"
         style="stop-color:#000000;stop-opacity:1"
         offset="0" />
      <stop
         id="stop2677"
         style="stop-color:#000000;stop-opacity:0"
         offset="1" />
    </linearGradient>
    <radialGradient
       cx="605.71429"
       cy="486.64789"
       r="117.14286"
       fx="605.71429"
       fy="486.64789"
       id="radialGradient7598-526"
       xlink:href="#linearGradient5060-179"
       gradientUnits="userSpaceOnUse"
       gradientTransform="matrix(3.212956e-2,0,0,3.705882e-2,24.636785,25.412461)" />
    <linearGradient
       id="linearGradient5048-585">
      <stop
         id="stop2667"
         style="stop-color:#000000;stop-opacity:0"
         offset="0" />
      <stop
         id="stop2669"
         style="stop-color:#000000;stop-opacity:1"
         offset="0.5" />
      <stop
         id="stop2671"
         style="stop-color:#000000;stop-opacity:0"
         offset="1" />
    </linearGradient>
    <linearGradient
       x1="302.85715"
       y1="366.64789"
       x2="302.85715"
       y2="609.50507"
       id="linearGradient7596-975"
       xlink:href="#linearGradient5048-585"
       gradientUnits="userSpaceOnUse"
       gradientTransform="matrix(0.08284024,0,0,0.03705882,-5.9408285,25.412461)" />
    <linearGradient
       x1="82.453476"
       y1="45.114193"
       x2="65.340263"
       y2="15.943953"
       id="linearGradient2801"
       xlink:href="#linearGradient3390-178-986-453"
       gradientUnits="userSpaceOnUse"
       gradientTransform="translate(-53.765393,-0.1141929)" />
    <linearGradient
       id="linearGradient7012-661-145-733-759-865-745-661-970-94">
      <stop
         id="stop3618"
         style="stop-color:#f0c178;stop-opacity:1"
         offset="0" />
      <stop
         id="stop3270"
         style="stop-color:#e18941;stop-opacity:1"
         offset="0.5" />
      <stop
         id="stop3620"
         style="stop-color:#ec4f18;stop-opacity:1"
         offset="1" />
    </linearGradient>
    <radialGradient
       cx="63.969177"
       cy="14.113381"
       r="23.097054"
       fx="63.969177"
       fy="14.113381"
       id="radialGradient2799"
       xlink:href="#linearGradient7012-661-145-733-759-865-745-661-970-94"
       gradientUnits="userSpaceOnUse"
       gradientTransform="matrix(1.5646925,-9.5143002e-8,6.1772287e-8,1.015888,-86.212573,8.1461173)" />
    <linearGradient
       id="linearGradient6129-963-697-142-998-580-273">
      <stop
         id="stop2661"
         style="stop-color:#0a0a0a;stop-opacity:0.498"
         offset="0" />
      <stop
         id="stop2663"
         style="stop-color:#0a0a0a;stop-opacity:0"
         offset="1" />
    </linearGradient>
    <linearGradient
       x1="22.934725"
       y1="49.629246"
       x2="22.809399"
       y2="36.657963"
       id="linearGradient2796"
       xlink:href="#linearGradient6129-963-697-142-998-580-273"
       gradientUnits="userSpaceOnUse"
       gradientTransform="matrix(1.1446925,0,0,0.9977536,-3.4661413,1.0988425)" />
    <linearGradient
       id="linearGradient6087-437-184-795-110-662-495">
      <stop
         id="stop2693"
         style="stop-color:#ffffff;stop-opacity:0.40000001"
         offset="0" />
      <stop
         id="stop2695"
         style="stop-color:#ffffff;stop-opacity:0"
         offset="1" />
    </linearGradient>
    <radialGradient
       cx="7.2646537"
       cy="8.3021259"
       r="20.979567"
       fx="7.2646537"
       fy="8.3021259"
       id="radialGradient2793"
       xlink:href="#linearGradient6087-437-184-795-110-662-495"
       gradientUnits="userSpaceOnUse"
       gradientTransform="matrix(0,1.2079744,-1.6271642,0,26.371748,8.2664685)" />
    <linearGradient
       id="linearGradient8265-821-176-38-919-66-249">
      <stop
         id="stop2687"
         style="stop-color:#ffffff;stop-opacity:0.27450982"
         offset="0" />
      <stop
         id="stop2689"
         style="stop-color:#ffffff;stop-opacity:0.07843138"
         offset="1" />
    </linearGradient>
    <linearGradient
       x1="11.566265"
       y1="22.292103"
       x2="15.214532"
       y2="33.95525"
       id="linearGradient2790"
       xlink:href="#linearGradient8265-821-176-38-919-66-249"
       gradientUnits="userSpaceOnUse" />
    <linearGradient
       id="linearGradient3390-178-986-453">
      <stop
         id="stop3624"
         style="stop-color:#bb2b12;stop-opacity:1"
         offset="0" />
      <stop
         id="stop3626"
         style="stop-color:#cd7233;stop-opacity:1"
         offset="1" />
    </linearGradient>
    <linearGradient
       x1="23.963856"
       y1="44.915665"
       x2="14.26506"
       y2="23.614458"
       id="linearGradient3588"
       xlink:href="#linearGradient3390-178-986-453"
       gradientUnits="userSpaceOnUse" />
    <radialGradient
       cx="82.686684"
       cy="32.340275"
       r="23.097054"
       fx="82.686684"
       fy="32.340275"
       id="radialGradient2444"
       xlink:href="#linearGradient4579"
       gradientUnits="userSpaceOnUse"
       gradientTransform="matrix(1.5646925,-9.5143002e-8,6.1772287e-8,1.015888,-86.212573,8.1461169)" />
    <linearGradient
       id="linearGradient4579">
      <stop
         id="stop4575"
         style="stop-color:#ffb681;stop-opacity:1"
         offset="0" />
      <stop
         id="stop4577"
         style="stop-color:#fff190;stop-opacity:1"
         offset="1" />
    </linearGradient>
    <radialGradient
       cx="605.71429"
       cy="486.64789"
       r="117.14286"
       fx="605.71429"
       fy="486.64789"
       id="radialGradient7598-526-5"
       xlink:href="#linearGradient5060-820"
       gradientUnits="userSpaceOnUse"
       gradientTransform="matrix(0.03212956,0,0,0.03705882,24.636785,25.412461)" />
    <radialGradient
       cx="605.71429"
       cy="486.64789"
       r="117.14286"
       fx="605.71429"
       fy="486.64789"
       id="radialGradient7600-312-6"
       xlink:href="#linearGradient5060-820"
       gradientUnits="userSpaceOnUse"
       gradientTransform="matrix(-0.03212956,0,0,0.03705882,23.363215,25.412461)" />
  </defs>
  <g
     id="layer1">
    <path
       inkscape:connector-curvature="0"
       d="m 3.5062498,8.4999991 c -0.690271,0.00767 -1.0004418,0.3421461 -1.0004418,1 0,5.5144549 0.026278,9.7395769 -0.00581,14.7504309 1.4354706,0 42.999998,-3.699732 42.999998,-5.292264 v -6.451519 c 0,-0.657853 -0.554204,-1.007671 -1.244479,-1 H 23.999998 c -2.047483,0 -3.498891,-3.0066479 -5,-3.0066479 H 3.5062477 Z"
       id="path3468"
       style="display:inline;fill:#ffc881;fill-opacity:1;stroke:#9e4600;stroke-width:1.00000012;stroke-linecap:round;stroke-linejoin:round;stroke-miterlimit:4;stroke-dasharray:none;stroke-opacity:1" />
    <g
       transform="matrix(0.9583333,0,0,0.6666667,1.0000008,15)"
       id="g7591"
       style="opacity:0.4">
      <rect
         width="40"
         height="9"
         x="4"
         y="39"
         id="rect4173"
         style="display:inline;overflow:visible;visibility:visible;fill:url(#linearGradient7596-975);fill-opacity:1;fill-rule:nonzero;stroke:none;stroke-width:1;marker:none" />
      <path
         inkscape:connector-curvature="0"
         d="m 44,39.00031 c 0,0 0,8.999504 0,8.999504 1.654593,0.01694 4.000001,-2.016333 4,-4.500331 0,-2.483999 -1.846402,-4.499173 -4,-4.499173 z"
         id="path5058"
         style="display:inline;overflow:visible;visibility:visible;fill:url(#radialGradient7598-526-5);fill-opacity:1;fill-rule:nonzero;stroke:none;stroke-width:1;marker:none" />
      <path
         inkscape:connector-curvature="0"
         d="m 4,39.00031 c 0,0 0,8.999504 0,8.999504 C 2.3454068,48.016755 0,45.983481 0,43.499483 0,41.015484 1.8464008,39.00031 4,39.00031 Z"
         id="path5018"
         style="display:inline;overflow:visible;visibility:visible;fill:url(#radialGradient7600-312-6);fill-opacity:1;fill-rule:nonzero;stroke:none;stroke-width:1;marker:none" />
    </g>
    <path
       inkscape:connector-curvature="0"
       d="m 2.1628556,16.525193 c -1.072707,0.123694 -0.49977,1.402118 -0.585297,2.121012 0.392532,8.47009 0.788932,16.769455 1.179047,25.239602 0.341836,0.965693 1.594435,0.47116 2.388117,0.59375 13.1935444,0 26.3870894,0 39.5806354,0 1.08938,-0.106651 0.63646,-1.407681 0.7897,-2.152262 0.39254,-8.47009 0.78894,-16.769455 1.17905,-25.239602 -0.25117,-0.954289 -1.51951,-0.424014 -2.263123,-0.5625 -14.089374,0 -28.178751,0 -42.2681294,0 z"
       id="path3388"
       style="fill:url(#radialGradient2444);fill-opacity:1;stroke:#673200;stroke-width:1;stroke-linecap:round;stroke-linejoin:round;stroke-miterlimit:4;stroke-dashoffset:0;stroke-opacity:0.84090905" />
    <path
       d="M 29.611278,21.024491 C 28.76055,21.168116 28.14171,21.910276 28.153763,22.77245 C 28.153763,23.737821 28.936825,24.520409 29.90278,24.520409 C 30.868737,24.520409 31.651798,23.737821 31.651798,22.77245 C 31.659069,22.253671 31.435361,21.758474 31.041198,21.420824 C 30.647034,21.083174 30.123153,20.937969 29.611278,21.024491 L 29.611278,21.024491 z M 24.109159,22.990945 C 23.35443,22.993182 22.606164,23.164476 21.740696,23.573598 L 23.234649,26.559695 C 26.08282,25.755771 28.569344,27.582405 29.538402,30.529018 L 33.000001,30.529018 C 32.667334,28.80761 31.955104,27.053438 30.740852,25.758547 C 29.893266,26.191089 28.852691,26.225452 27.971574,25.722131 C 27.091361,25.219047 26.595947,24.29652 26.550497,23.355104 C 25.615752,23.138758 24.863886,22.988707 24.109159,22.990945 z M 19.991678,24.301914 C 18.516619,25.324319 17.068056,27.290947 16.675831,29.145218 C 17.764167,29.710667 18.312346,30.585373 18.351973,32.058484 C 18.389183,33.441716 17.548261,34.340653 16.785145,34.898916 C 17.461048,36.207891 18.932527,38.086229 20.210305,38.686162 L 21.631382,35.263074 C 19.63562,33.730958 18.903956,30.395862 21.631382,27.652169 L 19.991678,24.301914 z M 14.63531,30.310525 C 13.844476,30.362076 13.187161,30.938617 13.033379,31.715597 C 12.879597,32.492579 13.267787,33.275797 13.979429,33.624363 C 14.844764,34.056769 15.897004,33.706233 16.329671,32.841422 C 16.762339,31.97661 16.411593,30.925008 15.546257,30.492603 C 15.264582,30.350953 14.94983,30.28804 14.63531,30.310525 z M 29.538402,32.531888 C 28.745965,35.412651 26.533028,37.220695 23.416838,36.355548 L 22.032199,39.596556 C 23.690565,40.137826 24.64627,40.197934 26.47762,39.705804 C 26.530414,38.762256 27.048856,37.88636 27.935135,37.375192 C 28.821607,36.863915 29.860348,36.839663 30.704414,37.265945 C 31.787421,35.873864 32.724425,34.307779 33.000001,32.531888 L 29.538402,32.531888 z M 29.793467,38.504082 C 28.870445,38.561846 28.151955,39.327772 28.153763,40.252041 C 28.153763,41.217412 28.936825,42 29.90278,42 C 30.868737,42 31.651798,41.217412 31.651798,40.252041 C 31.652744,39.768889 31.453544,39.306896 31.101499,38.975759 C 30.749455,38.644624 30.275968,38.473884 29.793467,38.504082 z"
       id="path2812"
       style="opacity:0.4;fill:#ffffff;fill-opacity:1;fill-rule:evenodd;stroke:none;stroke-width:0.53330868px;stroke-linecap:butt;stroke-linejoin:miter;marker:none;marker-start:none;marker-mid:none;marker-end:none;stroke-miterlimit:4;stroke-dasharray:none;stroke-dashoffset:0;stroke-opacity:1;visibility:visible;display:inline;overflow:visible;enable-background:accumulate" />
    <path
       d="M 29.611278,20.024491 C 28.76055,20.168116 28.14171,20.910276 28.153763,21.77245 C 28.153763,22.737821 28.936825,23.520409 29.90278,23.520409 C 30.868737,23.520409 31.651798,22.737821 31.651798,21.77245 C 31.659069,21.253671 31.435361,20.758474 31.041198,20.420824 C 30.647034,20.083174 30.123153,19.937969 29.611278,20.024491 L 29.611278,20.024491 z M 24.109159,21.990945 C 23.35443,21.993182 22.606164,22.164476 21.740696,22.573598 L 23.234649,25.559695 C 26.08282,24.755771 28.569344,26.582405 29.538402,29.529018 L 33.000001,29.529018 C 32.667334,27.80761 31.955104,26.053438 30.740852,24.758547 C 29.893266,25.191089 28.852691,25.225452 27.971574,24.722131 C 27.091361,24.219047 26.595947,23.29652 26.550497,22.355104 C 25.615752,22.138758 24.863886,21.988707 24.109159,21.990945 z M 19.991678,23.301914 C 18.516619,24.324319 17.068056,26.290947 16.675831,28.145218 C 17.764167,28.710667 18.312346,29.585373 18.351973,31.058484 C 18.389183,32.441716 17.548261,33.340653 16.785145,33.898916 C 17.461048,35.207891 18.932527,37.086229 20.210305,37.686162 L 21.631382,34.263074 C 19.63562,32.730958 18.903956,29.395862 21.631382,26.652169 L 19.991678,23.301914 z M 14.63531,29.310525 C 13.844476,29.362076 13.187161,29.938617 13.033379,30.715597 C 12.879597,31.492579 13.267787,32.275797 13.979429,32.624363 C 14.844764,33.056769 15.897004,32.706233 16.329671,31.841422 C 16.762339,30.97661 16.411593,29.925008 15.546257,29.492603 C 15.264582,29.350953 14.94983,29.28804 14.63531,29.310525 z M 29.538402,31.531888 C 28.745965,34.412651 26.533028,36.220695 23.416838,35.355548 L 22.032199,38.596556 C 23.690565,39.137826 24.64627,39.197934 26.47762,38.705804 C 26.530414,37.762256 27.048856,36.88636 27.935135,36.375192 C 28.821607,35.863915 29.860348,35.839663 30.704414,36.265945 C 31.787421,34.873864 32.724425,33.307779 33.000001,31.531888 L 29.538402,31.531888 z M 29.793467,37.504082 C 28.870445,37.561846 28.151955,38.327772 28.153763,39.252041 C 28.153763,40.217412 28.936825,41 29.90278,41 C 30.868737,41 31.651798,40.217412 31.651798,39.252041 C 31.652744,38.768889 31.453544,38.306896 31.101499,37.975759 C 30.749455,37.644624 30.275968,37.473884 29.793467,37.504082 z"
       id="path19"
       style="opacity:1;fill:#bb2b12;fill-opacity:1;fill-rule:evenodd;stroke:none;stroke-width:0.53330868px;stroke-linecap:butt;stroke-linejoin:miter;marker:none;marker-start:none;marker-mid:none;marker-end:none;stroke-miterlimit:4;stroke-dasharray:none;stroke-dashoffset:0;stroke-opacity:1;visibility:visible;display:inline;overflow:visible;enable-background:accumulate" />
  </g>
</svg>
