<?xml version="1.0" encoding="UTF-8" standalone="no"?>
<!-- Created with Inkscape (http://www.inkscape.org/) -->

<svg
   xmlns:dc="http://purl.org/dc/elements/1.1/"
   xmlns:cc="http://creativecommons.org/ns#"
   xmlns:rdf="http://www.w3.org/1999/02/22-rdf-syntax-ns#"
   xmlns:svg="http://www.w3.org/2000/svg"
   xmlns="http://www.w3.org/2000/svg"
   xmlns:xlink="http://www.w3.org/1999/xlink"
   xmlns:sodipodi="http://sodipodi.sourceforge.net/DTD/sodipodi-0.dtd"
   xmlns:inkscape="http://www.inkscape.org/namespaces/inkscape"
   version="1.1"
   width="48"
   height="48"
   id="svg2541"
   sodipodi:docname="user-trash-full.svg"
   inkscape:version="0.92.4 (5da689c313, 2019-01-14)">
  <metadata
     id="metadata142">
    <rdf:RDF>
      <cc:Work
         rdf:about="">
        <dc:format>image/svg+xml</dc:format>
        <dc:type
           rdf:resource="http://purl.org/dc/dcmitype/StillImage" />
      </cc:Work>
    </rdf:RDF>
  </metadata>
  <sodipodi:namedview
     pagecolor="#ffffff"
     bordercolor="#666666"
     borderopacity="1"
     objecttolerance="10"
     gridtolerance="10"
     guidetolerance="10"
     inkscape:pageopacity="0"
     inkscape:pageshadow="2"
     inkscape:window-width="1680"
     inkscape:window-height="1002"
     id="namedview140"
     showgrid="false"
     inkscape:zoom="4.9166667"
     inkscape:cx="24"
     inkscape:cy="24"
     inkscape:window-x="0"
     inkscape:window-y="0"
     inkscape:window-maximized="1"
     inkscape:current-layer="g2519" />
  <defs
     id="defs2543">
    <linearGradient
       x1="92.004761"
       y1="47.258526"
       x2="55.992207"
       y2="10.900407"
       id="linearGradient14689"
       xlink:href="#linearGradient2793"
       gradientUnits="userSpaceOnUse"
       gradientTransform="matrix(0.500942,0,0,0.500942,-0.5731737,-0.060288)"
       spreadMethod="reflect" />
    <linearGradient
       id="linearGradient4302">
      <stop
         id="stop4304"
         style="stop-color:#c0c0c0;stop-opacity:1"
         offset="0" />
      <stop
         id="stop4306"
         style="stop-color:#abacb0;stop-opacity:1"
         offset="1" />
    </linearGradient>
    <linearGradient
       x1="63.999081"
       y1="6.4738212"
       x2="63.999081"
       y2="31.225994"
       id="linearGradient2857"
       xlink:href="#linearGradient4302"
       gradientUnits="userSpaceOnUse"
       gradientTransform="matrix(1.1456259,0,0,1.1456259,-9.3190033,-13.992276)" />
    <linearGradient
       x1="32.626884"
       y1="37.21664"
       x2="63.999931"
       y2="37.21664"
       id="linearGradient3961"
       xlink:href="#linearGradient2793"
       gradientUnits="userSpaceOnUse"
       gradientTransform="matrix(0.5976473,0,0,0.5396451,-40.611459,-12.124774)"
       spreadMethod="reflect" />
    <linearGradient
       x1="97.717728"
       y1="17.833755"
       x2="62.373119"
       y2="17.833755"
       id="linearGradient13703"
       xlink:href="#linearGradient2793"
       gradientUnits="userSpaceOnUse"
       gradientTransform="matrix(0.6160503,0,0,0.5936306,-7.9395479,-5.9435742)"
       spreadMethod="reflect" />
    <linearGradient
       id="linearGradient4294">
      <stop
         id="stop4296"
         style="stop-color:#e6e7e7;stop-opacity:1"
         offset="0" />
      <stop
         id="stop4298"
         style="stop-color:#676b73;stop-opacity:1"
         offset="1" />
    </linearGradient>
    <linearGradient
       x1="29.232975"
       y1="1.2616313"
       x2="29.232977"
       y2="57.745785"
       id="linearGradient2944"
       xlink:href="#linearGradient4294"
       gradientUnits="userSpaceOnUse"
       gradientTransform="matrix(1.044519,0,0,1.044519,0.9058083,-0.6999367)" />
    <linearGradient
       id="linearGradient2338">
      <stop
         id="stop3317"
         style="stop-color:#f8f8f8;stop-opacity:0.15463917"
         offset="0" />
      <stop
         id="stop3322"
         style="stop-color:#b0b2b6;stop-opacity:0.17525773"
         offset="0.49817383" />
      <stop
         id="stop3319"
         style="stop-color:#5b5e62;stop-opacity:0.3298969"
         offset="0.83783782" />
      <stop
         id="stop2342"
         style="stop-color:#ffffff;stop-opacity:0.15463917"
         offset="1" />
    </linearGradient>
    <linearGradient
       x1="4.8849959"
       y1="38.13002"
       x2="35.514687"
       y2="39.751118"
       id="linearGradient2942"
       xlink:href="#linearGradient2338"
       gradientUnits="userSpaceOnUse"
       gradientTransform="matrix(1.2635854,0,0,1.4786159,5.8086801,-19.347029)" />
    <linearGradient
       x1="25.632622"
       y1="10.611729"
       x2="38.714096"
       y2="18.389904"
       id="linearGradient16586"
       xlink:href="#linearGradient5176"
       gradientUnits="userSpaceOnUse"
       gradientTransform="matrix(-1,0,0,1,-164.71303,28.239477)" />
    <linearGradient
       x1="24.365993"
       y1="20.246058"
       x2="32.600704"
       y2="28.554564"
       id="linearGradient16584"
       xlink:href="#linearGradient5162"
       gradientUnits="userSpaceOnUse"
       gradientTransform="matrix(-1,0,0,1,-164.71303,28.239477)" />
    <linearGradient
       x1="22.008699"
       y1="36.509514"
       x2="23.585091"
       y2="14.412428"
       id="linearGradient16582"
       xlink:href="#linearGradient5162"
       gradientUnits="userSpaceOnUse"
       gradientTransform="matrix(-1,0,0,1,-164.71303,28.239477)" />
    <radialGradient
       cx="20.089987"
       cy="10.853651"
       r="22.597088"
       fx="20.089987"
       fy="10.853651"
       id="radialGradient16580"
       xlink:href="#linearGradient5196"
       gradientUnits="userSpaceOnUse"
       gradientTransform="matrix(-1.790269,0,0,1.769263,-148.89909,16.289507)" />
    <radialGradient
       cx="23.688078"
       cy="14.210698"
       r="22.597088"
       fx="23.688078"
       fy="14.210698"
       id="radialGradient16578"
       xlink:href="#linearGradient5188"
       gradientUnits="userSpaceOnUse"
       gradientTransform="matrix(-2.135667,0,0,2.110607,-137.81127,12.570337)" />
    <linearGradient
       x1="25.632622"
       y1="10.611729"
       x2="38.714096"
       y2="18.389904"
       id="linearGradient16576"
       xlink:href="#linearGradient5176"
       gradientUnits="userSpaceOnUse"
       gradientTransform="matrix(-1,0,0,1,-164.71303,28.239477)" />
    <linearGradient
       x1="24.365993"
       y1="20.246058"
       x2="32.600704"
       y2="28.554564"
       id="linearGradient16574"
       xlink:href="#linearGradient5162"
       gradientUnits="userSpaceOnUse"
       gradientTransform="matrix(-1,0,0,1,-164.71303,28.239477)" />
    <linearGradient
       x1="22.008699"
       y1="36.509514"
       x2="23.585091"
       y2="14.412428"
       id="linearGradient16572"
       xlink:href="#linearGradient5162"
       gradientUnits="userSpaceOnUse"
       gradientTransform="matrix(-1,0,0,1,-164.71303,28.239477)" />
    <radialGradient
       cx="20.089987"
       cy="10.853651"
       r="22.597088"
       fx="20.089987"
       fy="10.853651"
       id="radialGradient16570"
       xlink:href="#linearGradient5196"
       gradientUnits="userSpaceOnUse"
       gradientTransform="matrix(-1.790269,0,0,1.769263,-148.89909,16.289507)" />
    <radialGradient
       cx="23.688078"
       cy="14.210698"
       r="22.597088"
       fx="23.688078"
       fy="14.210698"
       id="radialGradient16568"
       xlink:href="#linearGradient5188"
       gradientUnits="userSpaceOnUse"
       gradientTransform="matrix(-2.135667,0,0,2.110607,-137.81127,12.570337)" />
    <linearGradient
       x1="25.632622"
       y1="10.611729"
       x2="38.714096"
       y2="18.389904"
       id="linearGradient16566"
       xlink:href="#linearGradient5176"
       gradientUnits="userSpaceOnUse"
       gradientTransform="matrix(-1,0,0,1,-164.71303,28.239477)" />
    <linearGradient
       x1="24.365993"
       y1="20.246058"
       x2="32.600704"
       y2="28.554564"
       id="linearGradient16564"
       xlink:href="#linearGradient5162"
       gradientUnits="userSpaceOnUse"
       gradientTransform="matrix(-1,0,0,1,-164.71303,28.239477)" />
    <linearGradient
       x1="22.008699"
       y1="36.509514"
       x2="23.585091"
       y2="14.412428"
       id="linearGradient16562"
       xlink:href="#linearGradient5162"
       gradientUnits="userSpaceOnUse"
       gradientTransform="matrix(-1,0,0,1,-164.71303,28.239477)" />
    <radialGradient
       cx="20.089987"
       cy="10.853651"
       r="22.597088"
       fx="20.089987"
       fy="10.853651"
       id="radialGradient16560"
       xlink:href="#linearGradient5196"
       gradientUnits="userSpaceOnUse"
       gradientTransform="matrix(-1.790269,0,0,1.769263,-148.89909,16.289507)" />
    <radialGradient
       cx="23.688078"
       cy="14.210698"
       r="22.597088"
       fx="23.688078"
       fy="14.210698"
       id="radialGradient16558"
       xlink:href="#linearGradient5188"
       gradientUnits="userSpaceOnUse"
       gradientTransform="matrix(-2.135667,0,0,2.110607,-137.81127,12.570337)" />
    <linearGradient
       x1="25.632622"
       y1="10.611729"
       x2="38.714096"
       y2="18.389904"
       id="linearGradient16556"
       xlink:href="#linearGradient5176"
       gradientUnits="userSpaceOnUse"
       gradientTransform="matrix(-0.500942,0,0,0.500942,127.79749,34.542958)" />
    <linearGradient
       x1="24.365993"
       y1="20.246058"
       x2="32.600704"
       y2="28.554564"
       id="linearGradient16554"
       xlink:href="#linearGradient5162"
       gradientUnits="userSpaceOnUse"
       gradientTransform="matrix(-0.500942,0,0,0.500942,127.79749,34.542958)" />
    <linearGradient
       x1="22.008699"
       y1="36.509514"
       x2="23.585091"
       y2="14.412428"
       id="linearGradient16552"
       xlink:href="#linearGradient5162"
       gradientUnits="userSpaceOnUse"
       gradientTransform="matrix(-0.500942,0,0,0.500942,127.79749,34.542958)" />
    <radialGradient
       cx="20.089987"
       cy="10.853651"
       r="22.597088"
       fx="20.089987"
       fy="10.853651"
       id="radialGradient16550"
       xlink:href="#linearGradient5196"
       gradientUnits="userSpaceOnUse"
       gradientTransform="matrix(-0.8968209,0,0,0.8862981,135.71936,28.556716)" />
    <radialGradient
       cx="23.688078"
       cy="14.210698"
       r="22.597088"
       fx="23.688078"
       fy="14.210698"
       id="radialGradient16548"
       xlink:href="#linearGradient5188"
       gradientUnits="userSpaceOnUse"
       gradientTransform="matrix(-1.0698453,0,0,1.0572917,141.27372,26.693628)" />
    <radialGradient
       cx="24.837126"
       cy="40.663769"
       r="21.478369"
       fx="24.837126"
       fy="40.663769"
       id="radialGradient16546"
       xlink:href="#linearGradient5150"
       gradientUnits="userSpaceOnUse"
       gradientTransform="matrix(1,0,0,0.325103,0,27.44386)" />
    <linearGradient
       id="linearGradient5176">
      <stop
         id="stop5178"
         style="stop-color:#000000;stop-opacity:1"
         offset="0" />
      <stop
         id="stop5180"
         style="stop-color:#000000;stop-opacity:0"
         offset="1" />
    </linearGradient>
    <linearGradient
       x1="25.632622"
       y1="10.611729"
       x2="38.714096"
       y2="18.389904"
       id="linearGradient16544"
       xlink:href="#linearGradient5176"
       gradientUnits="userSpaceOnUse"
       gradientTransform="matrix(-1,0,0,1,-164.71303,28.239477)" />
    <linearGradient
       x1="24.365993"
       y1="20.246058"
       x2="32.600704"
       y2="28.554564"
       id="linearGradient16542"
       xlink:href="#linearGradient5162"
       gradientUnits="userSpaceOnUse"
       gradientTransform="matrix(-1,0,0,1,-164.71303,28.239477)" />
    <linearGradient
       x1="22.008699"
       y1="36.509514"
       x2="23.585091"
       y2="14.412428"
       id="linearGradient16540"
       xlink:href="#linearGradient5162"
       gradientUnits="userSpaceOnUse"
       gradientTransform="matrix(-1,0,0,1,-164.71303,28.239477)" />
    <radialGradient
       cx="20.089987"
       cy="10.853651"
       r="22.597088"
       fx="20.089987"
       fy="10.853651"
       id="radialGradient16538"
       xlink:href="#linearGradient5196"
       gradientUnits="userSpaceOnUse"
       gradientTransform="matrix(-1.790269,0,0,1.769263,-148.89909,16.289507)" />
    <radialGradient
       cx="23.688078"
       cy="14.210698"
       r="22.597088"
       fx="23.688078"
       fy="14.210698"
       id="radialGradient16536"
       xlink:href="#linearGradient5188"
       gradientUnits="userSpaceOnUse"
       gradientTransform="matrix(-2.135667,0,0,2.110607,-137.81127,12.570337)" />
    <radialGradient
       cx="24.837126"
       cy="40.663769"
       r="21.478369"
       fx="24.837126"
       fy="40.663769"
       id="radialGradient16534"
       xlink:href="#linearGradient5150"
       gradientUnits="userSpaceOnUse"
       gradientTransform="matrix(1,0,0,0.325103,0,27.44386)" />
    <linearGradient
       x1="73.373505"
       y1="82.788712"
       x2="89.456299"
       y2="82.788712"
       id="linearGradient16532"
       xlink:href="#linearGradient2793"
       gradientUnits="userSpaceOnUse"
       gradientTransform="matrix(0.5120754,0,0,0.4900506,90.554105,0.02408511)" />
    <linearGradient
       x1="24.365993"
       y1="20.246058"
       x2="32.600704"
       y2="28.554564"
       id="linearGradient16530"
       xlink:href="#linearGradient5162"
       gradientUnits="userSpaceOnUse"
       gradientTransform="matrix(0.500942,0,0,0.500942,116.96896,34.747555)" />
    <linearGradient
       id="linearGradient5162">
      <stop
         id="stop5164"
         style="stop-color:#babdb6;stop-opacity:1"
         offset="0" />
      <stop
         id="stop5166"
         style="stop-color:#ffffff;stop-opacity:1"
         offset="1" />
    </linearGradient>
    <linearGradient
       x1="22.008699"
       y1="36.509514"
       x2="23.585091"
       y2="14.412428"
       id="linearGradient16528"
       xlink:href="#linearGradient5162"
       gradientUnits="userSpaceOnUse"
       gradientTransform="matrix(0.500942,0,0,0.500942,116.96896,34.747555)" />
    <linearGradient
       id="linearGradient5196">
      <stop
         id="stop5198"
         style="stop-color:#dfe2dc;stop-opacity:1"
         offset="0" />
      <stop
         id="stop5200"
         style="stop-color:#86917a;stop-opacity:1"
         offset="1" />
    </linearGradient>
    <radialGradient
       cx="20.089987"
       cy="10.853651"
       r="22.597088"
       fx="20.089987"
       fy="10.853651"
       id="radialGradient16526"
       xlink:href="#linearGradient5196"
       gradientUnits="userSpaceOnUse"
       gradientTransform="matrix(0.8968209,0,0,0.8862981,109.0471,28.761313)" />
    <linearGradient
       id="linearGradient5188">
      <stop
         id="stop5190"
         style="stop-color:#ffffff;stop-opacity:1"
         offset="0" />
      <stop
         id="stop5192"
         style="stop-color:#aeaea3;stop-opacity:1"
         offset="1" />
    </linearGradient>
    <radialGradient
       cx="23.688078"
       cy="14.210698"
       r="22.597088"
       fx="23.688078"
       fy="14.210698"
       id="radialGradient16524"
       xlink:href="#linearGradient5188"
       gradientUnits="userSpaceOnUse"
       gradientTransform="matrix(1.0698453,0,0,1.0572917,103.49274,26.898224)" />
    <linearGradient
       id="linearGradient5150">
      <stop
         id="stop5152"
         style="stop-color:#000000;stop-opacity:1"
         offset="0" />
      <stop
         id="stop5154"
         style="stop-color:#000000;stop-opacity:0"
         offset="1" />
    </linearGradient>
    <radialGradient
       cx="24.837126"
       cy="40.663769"
       r="21.478369"
       fx="24.837126"
       fy="40.663769"
       id="radialGradient16522"
       xlink:href="#linearGradient5150"
       gradientUnits="userSpaceOnUse"
       gradientTransform="matrix(1,0,0,0.325103,0,27.44386)" />
    <linearGradient
       id="linearGradient2793">
      <stop
         id="stop2795"
         style="stop-color:#555753;stop-opacity:1"
         offset="0" />
      <stop
         id="stop2797"
         style="stop-color:#d3d7cf;stop-opacity:0"
         offset="1" />
    </linearGradient>
    <linearGradient
       x1="27.405413"
       y1="52.355087"
       x2="37.462498"
       y2="68.298302"
       id="linearGradient2781"
       xlink:href="#linearGradient2793"
       gradientUnits="userSpaceOnUse"
       spreadMethod="reflect" />
    <linearGradient
       id="linearGradient5060">
      <stop
         id="stop5062"
         style="stop-color:#000000;stop-opacity:1"
         offset="0" />
      <stop
         id="stop5064"
         style="stop-color:#000000;stop-opacity:0"
         offset="1" />
    </linearGradient>
    <radialGradient
       cx="62.71241"
       cy="108.02493"
       r="47.38271"
       fx="62.71241"
       fy="108.02493"
       id="radialGradient2773"
       xlink:href="#linearGradient5060"
       gradientUnits="userSpaceOnUse"
       gradientTransform="matrix(0.46584864,0,0,0.12994518,2.7851652,42.535268)" />
    <linearGradient
       x1="63.999081"
       y1="6.4738212"
       x2="63.999081"
       y2="31.225994"
       id="linearGradient2857-3"
       xlink:href="#linearGradient4302"
       gradientUnits="userSpaceOnUse"
       gradientTransform="matrix(0.57389214,0,0,0.57389214,-5.2414543,-7.0696075)" />
    <linearGradient
       gradientTransform="matrix(1.1278169,0,0,1.0058418,-2.4096033,1.4172388)"
       x1="27.405413"
       y1="52.355087"
       x2="37.462498"
       y2="68.298302"
       id="linearGradient2781-5"
       xlink:href="#linearGradient2793"
       gradientUnits="userSpaceOnUse"
       spreadMethod="reflect" />
    <linearGradient
       gradientTransform="matrix(1.3421605,0,0,1.3421605,-0.14911405,-0.14911313)"
       inkscape:collect="always"
       xlink:href="#linearGradient4294"
       id="linearGradient856"
       x1="13.81517"
       y1="38.352959"
       x2="40.43726"
       y2="9.1160069"
       gradientUnits="userSpaceOnUse" />
    <radialGradient
       cx="62.71241"
       cy="108.02493"
       r="47.38271"
       fx="62.71241"
       fy="108.02493"
       id="radialGradient2470"
       xlink:href="#linearGradient5176"
       gradientUnits="userSpaceOnUse"
       gradientTransform="matrix(0.46584865,0,0,0.12994512,2.7851651,42.53595)" />
  </defs>
  <g
     transform="translate(0,1.0000003)"
     id="layer1">
    <g
       transform="matrix(0.7450674,0,0,0.7450674,0.1110998,0.1110989)"
       id="g2519">
      <path
         d="m 53.828411,5.3748046 a 22.086791,4.7932512 0 1 1 -44.1735817,0 22.086791,4.7932512 0 1 1 44.1735817,0 z"
         id="path18342"
         style="color:#000000;display:inline;overflow:visible;visibility:visible;opacity:0.77272728;fill:#c6c6c6;fill-opacity:0.51308899;fill-rule:evenodd;stroke:#636363;stroke-width:0.5661332;stroke-linecap:round;stroke-linejoin:round;stroke-miterlimit:4;stroke-dasharray:none;stroke-dashoffset:0;stroke-opacity:1;marker:none"
         inkscape:connector-curvature="0" />
      <path
         inkscape:connector-curvature="0"
         d="m 54.072827,56.57328 a 22.073171,6.1571611 0 0 1 -44.1463419,0 22.073171,6.1571611 0 1 1 44.1463419,0 z"
         id="path12941"
         style="display:inline;overflow:visible;visibility:visible;fill:url(#radialGradient2470);fill-opacity:1;fill-rule:evenodd;stroke:none;stroke-width:1.41593003;marker:none" />
      <path
         style="fill:url(#linearGradient856);fill-opacity:1;stroke:#000000;stroke-width:0.40264815;stroke-linecap:butt;stroke-linejoin:miter;stroke-miterlimit:4;stroke-dasharray:none;stroke-opacity:1"
         d="M 8.5131268,10.73484 12.6872,55.500878 c 4.76844,3.518643 12.438349,3.863938 20.46089,3.571006 8.022542,-0.292932 12.745145,-0.215939 16.811694,-4.066216 L 54.220691,10.73484 Z"
         id="path846"
         inkscape:connector-curvature="0"
         sodipodi:nodetypes="cczccc" />
      <path
         inkscape:connector-curvature="0"
         d="m 49.844267,54.858747 a 18.356623,4.2951444 0 1 1 -36.713244,0 18.356623,4.2951444 0 1 1 36.713244,0 z"
         id="path3037"
         style="color:#000000;display:inline;overflow:visible;visibility:visible;opacity:0.5;fill:url(#linearGradient2781-5);fill-opacity:1;fill-rule:evenodd;stroke:none;stroke-width:0.50094199;marker:none" />
      <path
         inkscape:connector-curvature="0"
         d="m 48.756328,2.7753728 c 0.02461,0.00642 0.05237,0.01208 0.07701,0.018551 0.110098,0.029 0.21721,0.062537 0.327277,0.092754 0.02643,0.00723 0.05059,0.011247 0.07701,0.018553 0.06406,0.017771 0.128659,0.037405 0.192515,0.055653 0.01874,0.00533 0.03904,0.01318 0.05775,0.01855 0.01221,0.00354 0.02625,-0.00356 0.03849,0 0.03369,0.00974 0.06266,0.02722 0.09626,0.037101 0.03943,0.01165 0.07623,0.025249 0.11552,0.037101 0.02723,0.00817 0.04985,0.010281 0.077,0.018551 0.06308,0.019308 0.129988,0.035759 0.192517,0.055653 0.01656,0.00523 0.04124,0.013261 0.05775,0.018551 0.0525,0.016914 0.102004,0.038291 0.15401,0.055653 0.01862,0.00617 0.0392,0.012321 0.05775,0.01855 0.122956,0.041679 0.246414,0.0854 0.365778,0.1298567 0.03161,0.01169 0.06493,0.025204 0.09626,0.037101 0.03672,0.014027 0.05997,0.022785 0.09626,0.037101 0.07481,0.029511 0.158203,0.061941 0.23102,0.092755 0.02453,0.010294 0.05271,0.026653 0.077,0.037101 0.0056,0.00246 0.01364,-0.00246 0.01925,0 0.03648,0.015978 0.07962,0.039315 0.115506,0.055653 0.01933,0.0088 0.03861,0.00965 0.05775,0.018551 0.0071,0.00326 0.01221,0.015274 0.01925,0.018551 0.06885,0.032318 0.145408,0.058992 0.211769,0.092754 0.01765,0.00898 0.04029,0.028015 0.05775,0.037101 0.02235,0.011596 0.05497,0.025329 0.077,0.037101 0.01275,0.00689 0.02584,0.01161 0.03851,0.018551 0.01344,0.00731 0.02521,0.011167 0.03851,0.018551 0.01262,0.00701 0.0068,0.011489 0.01925,0.018551 0.01262,0.00705 0.02606,0.011435 0.03851,0.018551 0.01235,0.00711 0.02629,0.011368 0.03851,0.018551 0.0063,0.00368 0.01288,0.014856 0.01925,0.018551 0.03039,0.018033 0.06662,0.037221 0.09626,0.055653 0.01262,0.00777 0.02607,0.01071 0.03849,0.018551 0.01642,0.010415 0.02233,0.026561 0.03851,0.037101 0.01848,0.012053 0.03961,0.024886 0.05775,0.037101 0.06256,0.04188 0.134068,0.0859 0.192511,0.1298567 0.0052,0.00403 0.01403,0.014511 0.01926,0.018551 0.05896,0.044848 0.118889,0.082755 0.173267,0.1298567 0.0039,0.0034 -0.0038,0.015149 0,0.01855 0.01662,0.014548 0.04159,0.022333 0.05775,0.037101 0.0094,0.00862 0.01007,0.028403 0.01926,0.037101 0.01262,0.011945 0.02613,0.025018 0.03849,0.037101 0.0046,0.00442 0.0148,-0.00443 0.01925,0 0.0046,0.00454 0.01468,0.013987 0.01925,0.018551 0.01235,0.012455 0.02652,0.024496 0.03849,0.037101 0.003,0.00307 -0.003,0.015462 0,0.018551 0.0051,0.00542 0.01421,0.013099 0.01925,0.01855 0.058,0.062251 0.104205,0.1194456 0.154009,0.1855097 0.0102,0.013454 0.02869,0.023488 0.03849,0.037101 0.003,0.00417 -0.003,0.014361 0,0.018551 0.0042,0.00585 0.01517,0.01267 0.01926,0.01855 0.01168,0.016886 0.02739,0.038517 0.03851,0.055653 0.0046,0.0088 0.01497,0.00969 0.01925,0.018551 0.0086,0.017588 0.01168,0.038107 0.01925,0.055653 0.01872,0.044737 0.02673,0.084297 0.03851,0.1298567 0.0074,0.026475 0.01448,0.06597 0.01925,0.092754 0.0015,0.00918 -0.0012,0.00935 0,0.018551 0.0021,0.013426 0.0178,0.023562 0.01926,0.037101 0.0019,0.023017 2.9e-5,0.051151 0,0.074204 -0.0015,0.014811 0.002,0.040994 0,0.055653 -0.0015,0.00974 -0.01756,0.027432 -0.01926,0.037101 -0.0025,0.014506 0.0031,0.022747 0,0.037101 -0.01362,0.067227 -0.03282,0.1214991 -0.05775,0.1855098 -0.0036,0.00914 0.0038,0.00948 0,0.01855 -0.0058,0.014589 -0.01289,0.022677 -0.01925,0.037101 -0.006,0.013522 -0.01275,0.023723 -0.01925,0.037101 -0.0085,0.017904 -0.01007,0.019449 -0.01925,0.037101 -0.0046,0.00882 -0.0144,0.02834 -0.01925,0.037101 -0.01208,0.021909 -0.02508,0.052682 -0.03849,0.074204 -0.0027,0.00429 -0.01647,-0.00427 -0.01926,0 -0.0055,0.00858 0.0056,0.010039 0,0.01855 -0.02832,0.042572 -0.06311,0.088795 -0.09625,0.1298567 -0.0066,0.00821 -0.01248,0.010388 -0.01926,0.018551 -0.0068,0.00815 -0.01221,0.029008 -0.01925,0.037101 -0.05598,0.064777 -0.125492,0.1244075 -0.192511,0.185509 -0.0085,0.00762 -0.01074,0.010979 -0.01926,0.018551 -0.01366,0.012133 -0.04367,0.025114 -0.05775,0.037101 -0.0089,0.00748 -0.0102,0.029689 -0.01926,0.037101 -0.03244,0.026698 -0.08113,0.048208 -0.115507,0.074204 -0.0058,0.00432 -0.01343,0.014252 -0.01926,0.01855 -0.0599,0.044507 -0.127398,0.087358 -0.192513,0.1298567 -0.0147,0.0096 -0.02355,0.027606 -0.03849,0.037101 -0.02684,0.016886 -0.06867,0.039081 -0.09626,0.055654 -0.225273,0.1353089 -0.486685,0.2549719 -0.750812,0.371018 -0.05194,0.022636 -0.101064,0.05224 -0.154009,0.074204 -0.05907,0.024653 -0.11313,0.050366 -0.173266,0.074204 -0.05381,0.021328 -0.09951,0.034952 -0.154015,0.055653 -0.02726,0.010348 -0.06885,0.026904 -0.09626,0.037101 -0.0052,0.00195 -0.01397,-0.00195 -0.01925,0 -0.04936,0.018299 -0.08501,0.037835 -0.134757,0.055653 -0.0829,0.029676 -0.16673,0.064359 -0.250271,0.092755 -0.139257,0.047354 -0.284431,0.085796 -0.423536,0.1298567 -0.08347,0.026435 -0.167545,0.048857 -0.250271,0.074203 -0.06346,0.019445 -0.129761,0.055365 -0.192516,0.074204 -0.100863,0.030279 -0.190504,0.045374 -0.288774,0.074205 -0.04644,0.01212 -0.10748,0.025137 -0.154013,0.037101 -0.07485,0.019247 -0.136673,0.036821 -0.211766,0.055653 -0.04668,0.011704 -0.107252,0.025555 -0.154013,0.037103 -0.07523,0.018577 -0.136307,0.037481 -0.211767,0.055653 -0.08158,0.019646 -0.168435,0.036477 -0.25027,0.055653 -0.245508,0.057529 -0.483831,0.1135495 -0.731561,0.166959 -0.08257,0.017804 -0.167457,0.038296 -0.25027,0.055653 -0.130431,0.027337 -0.273285,0.047955 -0.404283,0.074203 -0.0653,0.013086 -0.127089,0.042838 -0.192515,0.055653 -0.0063,0.00123 -0.01302,-0.00122 -0.01925,0 -0.255923,0.05003 -0.512143,0.083794 -0.770062,0.129858 -0.08401,0.015004 -0.166056,0.041057 -0.25027,0.055653 -0.168429,0.029191 -0.331343,0.046617 -0.500541,0.074204 -0.126901,0.020691 -0.257721,0.054394 -0.385032,0.074204 -0.25462,0.039623 -0.513904,0.075084 -0.770062,0.1113053 -0.08539,0.012133 -0.164717,0.025335 -0.25027,0.037101 -0.171092,0.023417 -0.348093,0.033669 -0.519793,0.055653 -0.08586,0.01106 -0.164267,0.026396 -0.25027,0.037101 -0.09246,0.011449 -0.196157,0.026058 -0.288774,0.037101 -0.153567,0.018314 -0.308057,0.038405 -0.462037,0.055653 -0.0064,7.3e-4 -0.01275,-7.29e-4 -0.01925,0 -0.697209,0.077896 -1.394481,0.146155 -2.098421,0.2040599 -0.174455,0.014481 -0.345034,0.023738 -0.519792,0.037101 -0.611591,0.046326 -1.234029,0.095908 -1.848152,0.1298567 -0.169248,0.00944 -0.350445,0.00997 -0.519792,0.018551 -0.08779,0.0044 -0.181715,0.014373 -0.269522,0.018551 -0.169387,0.00812 -0.350367,0.01122 -0.519792,0.018551 -0.702621,0.030062 -1.39683,0.055749 -2.098422,0.074204 -0.175403,0.00466 -0.344562,0.014517 -0.519792,0.018551 -0.35669,0.00819 -0.703128,0.012616 -1.058837,0.01855 -0.182813,7.39e-4 -0.375228,-1.341e-4 -0.558296,0 -0.0063,4e-6 -0.01288,-2e-6 -0.01925,0 -0.08838,5.39e-5 -0.181091,9.3e-5 -0.269522,0 -0.0063,-8.1e-6 -0.01289,9e-6 -0.01925,0 -0.372696,-4.361e-4 -0.743164,0.00326 -1.11659,0 -0.0063,-5.8e-5 -0.01289,5.89e-5 -0.01925,0 -0.183599,-0.0017 -0.374566,-0.016087 -0.558294,-0.01855 -0.190011,-0.00248 -0.387451,0.00332 -0.577548,0 -0.19016,-0.0034 -0.368082,-0.01426 -0.558296,-0.018551 -0.0063,-1.44e-4 -0.01289,1.441e-4 -0.01925,0 -0.09507,-0.00209 -0.174446,0.00234 -0.269522,0 -0.190203,-0.00475 -0.387305,-0.012844 -0.577524,-0.018546 -0.190219,-0.0057 -0.368126,-0.011851 -0.558296,-0.018551 -0.0063,-2.229e-4 -0.01288,2.251e-4 -0.01925,0 -0.183829,-0.00651 -0.374552,-0.011073 -0.558296,-0.01855 -0.27867,-0.01118 -0.568712,-0.023588 -0.847068,-0.037101 -0.0063,-3.11e-4 -0.01289,3.12e-4 -0.01925,0 -0.752756,-0.036695 -1.503734,-0.092816 -2.252436,-0.148407 -0.0063,-4.72e-4 -0.01302,4.72e-4 -0.01925,0 -0.56001,-0.041712 -1.118394,-0.094809 -1.674886,-0.1484079 -0.0062,-6.061e-4 -0.01302,6.06e-4 -0.01925,0 -0.375034,-0.036209 -0.743511,-0.069242 -1.116566,-0.111293 -0.09335,-0.010563 -0.176384,-0.026141 -0.26956,-0.037093 -0.139689,-0.016337 -0.284171,-0.019902 -0.423534,-0.037103 -0.41809,-0.051603 -0.836493,-0.1072454 -1.251353,-0.1669581 -0.138285,-0.019904 -0.285641,-0.053363 -0.423535,-0.074204 -0.183857,-0.027789 -0.355921,-0.044713 -0.539042,-0.074204 -0.09156,-0.014748 -0.178153,-0.040471 -0.269522,-0.055653 -0.05131,-0.00852 -0.102769,-0.00989 -0.154014,-0.018551 -0.04565,-0.00772 -0.08916,-0.010724 -0.13476,-0.018551 -0.09117,-0.015619 -0.178549,-0.039589 -0.269522,-0.055652 -0.04549,-0.00803 -0.08932,-0.010402 -0.134761,-0.018553 -0.09087,-0.016288 -0.178863,-0.038912 -0.269522,-0.055651 -0.04532,-0.00838 -0.08948,-0.010066 -0.134763,-0.018551 -0.09055,-0.016969 -0.179183,-0.038223 -0.269522,-0.055653 -0.361351,-0.069718 -0.720403,-0.145312 -1.078087,-0.2226121 -0.08942,-0.019324 -0.180342,-0.035841 -0.269522,-0.055651 -0.08917,-0.019812 -0.180589,-0.035349 -0.269522,-0.055654 -0.04447,-0.010147 -0.09035,-0.026825 -0.134761,-0.037101 -0.117936,-0.031404 -0.244797,-0.060183 -0.365779,-0.092755 -0.06049,-0.016286 -0.112218,-0.039025 -0.173265,-0.055653 -0.122083,-0.033257 -0.242335,-0.057928 -0.36578,-0.092755 -0.06173,-0.017413 -0.13066,-0.037797 -0.192514,-0.055651 -0.06185,-0.017857 -0.111427,-0.037322 -0.173265,-0.055654 -0.06184,-0.018332 -0.130829,-0.03681 -0.192517,-0.055652 -0.06169,-0.018843 -0.131121,-0.036268 -0.192515,-0.055653 -0.09209,-0.029079 -0.178489,-0.062359 -0.269522,-0.092755 -0.06069,-0.020263 -0.113222,-0.034762 -0.173264,-0.055652 -0.03002,-0.010446 -0.06642,-0.026494 -0.09626,-0.037103 -0.05967,-0.021216 -0.114454,-0.033759 -0.173264,-0.055652 -0.117619,-0.043787 -0.233182,-0.1017111 -0.346528,-0.1484081 -0.198356,-0.081719 -0.397023,-0.1679559 -0.577547,-0.259713 -0.07221,-0.036703 -0.143087,-0.072836 -0.211768,-0.1113059 -0.0049,-0.00275 -0.01439,0.00276 -0.01925,0 -0.0397,-0.022402 -0.05785,-0.051181 -0.09626,-0.074204 -0.01182,-0.00705 -0.0268,-0.011435 -0.0385,-0.01855 -0.128929,-0.078421 -0.253851,-0.1551221 -0.36578,-0.241163 -0.01016,-0.00781 -0.0092,-0.01067 -0.01925,-0.018553 -0.01403,-0.011046 -0.02478,-0.025926 -0.0385,-0.037101 -0.0099,-0.00795 -0.0096,-0.010536 -0.01925,-0.018551 -0.08155,-0.067385 -0.161359,-0.1317612 -0.231019,-0.204061 -0.0084,-0.00858 -0.01109,-0.00991 -0.01925,-0.018551 -0.01433,-0.015137 -0.02473,-0.040292 -0.0385,-0.055653 -0.0031,-0.00352 -0.01615,0.00353 -0.01925,0 -0.03442,-0.038701 -0.04623,-0.071167 -0.07701,-0.1113067 -0.0071,-0.00909 -0.01238,-0.0094 -0.01925,-0.018551 -0.02339,-0.03117 -0.03666,-0.060696 -0.05776,-0.092755 -0.0063,-0.0094 -0.01317,-0.00909 -0.01925,-0.01855 -0.02434,-0.037901 -0.05599,-0.072141 -0.07701,-0.1113054 -0.00525,-0.00978 -0.014211,-0.027231 -0.019252,-0.037101 -0.017643,-0.03455 -0.023534,-0.075757 -0.038503,-0.1113041 -0.00642,-0.015235 -0.013341,-0.021683 -0.019252,-0.037101 -0.00272,-0.014291 0.00212,-0.041478 0,-0.055653 -0.00212,-0.014175 -0.017738,-0.023039 -0.019252,-0.037101 -0.00203,-0.018749 9.593e-4,-0.037107 0,-0.055653 -4.823e-4,-0.00927 2.235e-4,-0.00931 0,-0.01855 -2.178e-4,-0.00922 -3.96e-5,-0.02793 0,-0.037101 3.6e-5,-0.00918 -2.896e-4,-0.00942 0,-0.01855 5.926e-4,-0.018243 -0.0016,-0.037611 0,-0.055653 7.935e-4,-0.00903 -0.00104,-0.00957 0,-0.018551 0.00157,-0.013457 0.017129,-0.023758 0.019252,-0.037101 0.00212,-0.013341 -0.00267,-0.04242 0,-0.055653 0.00177,-0.00883 -0.00201,-0.00977 0,-0.018551 0.00203,-0.00876 0.017,-0.028379 0.019252,-0.037101 0.00224,-0.00872 -0.00247,-0.00986 0,-0.01855 0.00248,-0.00867 -0.00271,-0.00993 0,-0.018551 0.010804,-0.034541 0.02412,-0.077541 0.038503,-0.1113054 0.00361,-0.00843 0.015424,-0.010174 0.019252,-0.018551 0.0057,-0.012576 0.01303,-0.024639 0.01925,-0.037101 0.0062,-0.012469 0.01256,-0.024749 0.01925,-0.037101 0.0067,-0.012348 0.01209,-0.024857 0.01925,-0.037101 0.0024,-0.00408 -0.0024,-0.014482 0,-0.018551 0.0097,-0.016307 0.02798,-0.039536 0.0385,-0.055653 0.01583,-0.024131 0.02092,-0.031951 0.0385,-0.055653 0.0059,-0.00791 0.01319,-0.029248 0.01925,-0.037101 0.006,-0.00787 0.01303,-0.010724 0.01925,-0.018551 0.0062,-0.00781 0.01283,-0.010791 0.01925,-0.01855 0.0128,-0.01555 0.02498,-0.040289 0.0385,-0.055653 0.0095,-0.010724 0.02866,-0.00791 0.0385,-0.018551 0.01388,-0.01527 0.02394,-0.022017 0.0385,-0.037103 0.0073,-0.00752 0.01178,-0.029624 0.01925,-0.037101 0.0149,-0.014992 0.02294,-0.022295 0.0385,-0.037101 0.0078,-0.00738 0.01129,-0.011207 0.01925,-0.018551 0.01588,-0.014715 0.04124,-0.041121 0.05776,-0.055653 0.0083,-0.00725 0.01082,-0.011355 0.01925,-0.018553 0.02522,-0.021661 0.05045,-0.034401 0.07701,-0.055653 0.0089,-0.00706 0.02948,-0.011529 0.0385,-0.01855 0.03598,-0.028154 0.05809,-0.065322 0.09626,-0.092755 0.0287,-0.020511 0.06641,-0.035544 0.09626,-0.055653 0.02978,-0.020171 0.0654,-0.035881 0.09626,-0.055653 0.02062,-0.01314 0.03668,-0.024139 0.05776,-0.037101 0.108258,-0.067343 0.208462,-0.1413737 0.327276,-0.2040605 0.09199,-0.048533 0.191956,-0.084057 0.288774,-0.1298567 0.07261,-0.03435 0.137078,-0.078468 0.211767,-0.1113053 0.04979,-0.021892 0.103502,-0.034424 0.154012,-0.055653 0.02526,-0.010617 0.0516,-0.026653 0.07701,-0.037103 0.05081,-0.020897 0.102732,-0.035409 0.154012,-0.055653 0.02564,-0.01012 0.05128,-0.027142 0.07701,-0.037101 0.05146,-0.019919 0.102325,-0.036379 0.154012,-0.055653 0.05169,-0.019273 0.102261,-0.037017 0.154014,-0.055653 0.05175,-0.018635 0.102357,-0.037649 0.154012,-0.055653 0.05166,-0.018004 0.102618,-0.038274 0.154012,-0.055653 0.02571,-0.00867 0.05139,-0.010026 0.07701,-0.018551 0.0512,-0.017068 0.103313,-0.039202 0.154012,-0.055653 0.07605,-0.024676 0.156566,-0.050896 0.231018,-0.074204 0.02804,-0.00808 0.04902,-0.01059 0.07701,-0.01855 0.08399,-0.023874 0.166243,-0.051134 0.25027,-0.074204 0.0056,-0.00154 0.01365,0.00154 0.01925,0 0.106474,-0.029172 0.219469,-0.064102 0.327278,-0.092755 -3.917038,0.4550765 -6.3145156,1.2130588 -6.3145156,2.5600309 4e-7,0.2623089 0,4.3939801 0,4.6562898 4e-7,2.845393 10.6746206,5.157166 23.8334446,5.157164 13.158825,2e-6 23.833446,-2.311771 23.833446,-5.157164 0,-0.2623097 0,-4.3939799 0,-4.6562898 0,-1.3760965 -2.498374,-2.152906 -6.564786,-2.6156836 z"
         id="path18314"
         style="color:#000000;display:inline;overflow:visible;visibility:visible;fill:#ffffff;fill-opacity:1;fill-rule:evenodd;stroke:#808389;stroke-width:0.25;stroke-linecap:round;stroke-linejoin:round;stroke-miterlimit:4;stroke-dasharray:none;stroke-dashoffset:0;stroke-opacity:1;marker:none" />
      <path
         inkscape:connector-curvature="0"
         d="m 48.756328,2.7753728 c 0.02461,0.00642 0.05237,0.01208 0.07701,0.018551 0.110098,0.029 0.21721,0.062537 0.327277,0.092754 0.02643,0.00723 0.05059,0.011247 0.07701,0.018553 0.06406,0.017771 0.128659,0.037405 0.192515,0.055653 0.01874,0.00533 0.03904,0.01318 0.05775,0.01855 0.01221,0.00354 0.02625,-0.00356 0.03849,0 0.03369,0.00974 0.06266,0.02722 0.09626,0.037101 0.03943,0.01165 0.07623,0.025249 0.11552,0.037101 0.02723,0.00817 0.04985,0.010281 0.077,0.018551 0.06308,0.019308 0.129988,0.035759 0.192517,0.055653 0.01656,0.00523 0.04124,0.013261 0.05775,0.018551 0.0525,0.016914 0.102004,0.038291 0.15401,0.055653 0.01862,0.00617 0.0392,0.012321 0.05775,0.01855 0.122956,0.041679 0.246414,0.0854 0.365778,0.1298567 0.03161,0.01169 0.06493,0.025204 0.09626,0.037101 0.03672,0.014027 0.05997,0.022785 0.09626,0.037101 0.07481,0.029511 0.158203,0.061941 0.23102,0.092755 0.02453,0.010294 0.05271,0.026653 0.077,0.037101 0.0056,0.00246 0.01364,-0.00246 0.01925,0 0.03648,0.015978 0.07962,0.039315 0.115506,0.055653 0.01933,0.0088 0.03861,0.00965 0.05775,0.018551 0.0071,0.00326 0.01221,0.015274 0.01925,0.018551 0.06885,0.032318 0.145408,0.058992 0.211769,0.092754 0.01765,0.00898 0.04029,0.028015 0.05775,0.037101 0.02235,0.011596 0.05497,0.025329 0.077,0.037101 0.01275,0.00689 0.02584,0.01161 0.03851,0.018551 0.01344,0.00731 0.02521,0.011167 0.03851,0.018551 0.01262,0.00701 0.0068,0.011489 0.01925,0.018551 0.01262,0.00705 0.02606,0.011435 0.03851,0.018551 0.01235,0.00711 0.02629,0.011368 0.03851,0.018551 0.0063,0.00368 0.01288,0.014856 0.01925,0.018551 0.03039,0.018033 0.06662,0.037221 0.09626,0.055653 0.01262,0.00777 0.02607,0.01071 0.03849,0.018551 0.01642,0.010415 0.02233,0.026561 0.03851,0.037101 0.01848,0.012053 0.03961,0.024886 0.05775,0.037101 0.06256,0.04188 0.134068,0.0859 0.192511,0.1298567 0.0052,0.00403 0.01403,0.014511 0.01926,0.018551 0.05896,0.044848 0.118889,0.082755 0.173267,0.1298567 0.0039,0.0034 -0.0038,0.015149 0,0.01855 0.01662,0.014548 0.04159,0.022333 0.05775,0.037101 0.0094,0.00862 0.01007,0.028403 0.01926,0.037101 0.01262,0.011945 0.02613,0.025018 0.03849,0.037101 0.0046,0.00442 0.0148,-0.00443 0.01925,0 0.0046,0.00454 0.01468,0.013987 0.01925,0.018551 0.01235,0.012455 0.02652,0.024496 0.03849,0.037101 0.003,0.00307 -0.003,0.015462 0,0.018551 0.0051,0.00542 0.01421,0.013099 0.01925,0.01855 0.058,0.062251 0.104205,0.1194456 0.154009,0.1855097 0.0102,0.013454 0.02869,0.023488 0.03849,0.037101 0.003,0.00417 -0.003,0.014361 0,0.018551 0.0042,0.00585 0.01517,0.01267 0.01926,0.01855 0.01168,0.016886 0.02739,0.038517 0.03851,0.055653 0.0046,0.0088 0.01497,0.00969 0.01925,0.018551 0.0086,0.017588 0.01168,0.038107 0.01925,0.055653 0.01872,0.044737 0.02673,0.084297 0.03851,0.1298567 0.0074,0.026475 0.01448,0.06597 0.01925,0.092754 0.0015,0.00918 -0.0012,0.00935 0,0.018551 0.0021,0.013426 0.0178,0.023562 0.01926,0.037101 0.0019,0.023017 2.9e-5,0.051151 0,0.074204 -0.0015,0.014811 0.002,0.040994 0,0.055653 -0.0015,0.00974 -0.01756,0.027432 -0.01926,0.037101 -0.0025,0.014506 0.0031,0.022747 0,0.037101 -0.01362,0.067227 -0.03282,0.1214991 -0.05775,0.1855098 -0.0036,0.00914 0.0038,0.00948 0,0.01855 -0.0058,0.014589 -0.01289,0.022677 -0.01925,0.037101 -0.006,0.013522 -0.01275,0.023723 -0.01925,0.037101 -0.0085,0.017904 -0.01007,0.019449 -0.01925,0.037101 -0.0046,0.00882 -0.0144,0.02834 -0.01925,0.037101 -0.01208,0.021909 -0.02508,0.052682 -0.03849,0.074204 -0.0027,0.00429 -0.01647,-0.00427 -0.01926,0 -0.0055,0.00858 0.0056,0.010039 0,0.01855 -0.02832,0.042572 -0.06311,0.088795 -0.09625,0.1298567 -0.0066,0.00821 -0.01248,0.010388 -0.01926,0.018551 -0.0068,0.00815 -0.01221,0.029008 -0.01925,0.037101 -0.05598,0.064777 -0.125492,0.1244075 -0.192511,0.1855094 -0.0085,0.00762 -0.01074,0.010979 -0.01926,0.018551 -0.01366,0.012133 -0.04367,0.025114 -0.05775,0.037101 -0.0089,0.00748 -0.0102,0.029689 -0.01926,0.037101 -0.03244,0.0267 -0.08113,0.048206 -0.115507,0.074205 -0.0058,0.00432 -0.01343,0.014252 -0.01926,0.01855 -0.0599,0.044507 -0.127398,0.087357 -0.192513,0.1298568 -0.0147,0.0096 -0.02355,0.027605 -0.03849,0.037101 -0.02684,0.016886 -0.06867,0.039081 -0.09626,0.055654 -0.225273,0.1353095 -0.486685,0.2549725 -0.750812,0.3710181 -0.05194,0.022637 -0.101064,0.05224 -0.154009,0.074204 -0.05907,0.024653 -0.11313,0.050366 -0.173266,0.074204 -0.05381,0.02133 -0.09951,0.034952 -0.154015,0.055653 -0.02726,0.010348 -0.06885,0.026905 -0.09626,0.037101 -0.0052,0.00195 -0.01397,-0.00195 -0.01925,0 -0.04936,0.018299 -0.08501,0.037835 -0.134757,0.055653 -0.0829,0.029676 -0.16673,0.064358 -0.250271,0.092754 -0.139257,0.047355 -0.284431,0.085798 -0.423536,0.1298567 -0.08347,0.026437 -0.167545,0.048857 -0.250271,0.074204 -0.06346,0.019444 -0.129761,0.055364 -0.192516,0.074204 -0.100863,0.030279 -0.190504,0.045374 -0.288774,0.074205 -0.04644,0.01212 -0.10748,0.025139 -0.154013,0.037101 -0.07485,0.019247 -0.136673,0.036821 -0.211766,0.055653 -0.04668,0.011704 -0.107252,0.025553 -0.154013,0.037101 -0.07523,0.018577 -0.136307,0.037482 -0.211767,0.055653 -0.08158,0.019645 -0.168435,0.036477 -0.25027,0.055653 -0.245508,0.057529 -0.483831,0.1135494 -0.731561,0.166959 -0.08257,0.017804 -0.167457,0.038296 -0.25027,0.055653 -0.130431,0.027337 -0.273285,0.047955 -0.404283,0.074203 -0.0653,0.013086 -0.127089,0.042838 -0.192515,0.055653 -0.0063,0.00123 -0.01302,-0.00122 -0.01925,0 -0.255923,0.05003 -0.512143,0.083794 -0.770062,0.1298581 -0.08401,0.015004 -0.166056,0.041057 -0.25027,0.055653 -0.168429,0.029191 -0.331343,0.046617 -0.500541,0.074204 -0.126901,0.020691 -0.257721,0.054392 -0.385032,0.074204 -0.25462,0.039623 -0.513904,0.075084 -0.770062,0.1113054 -0.08539,0.012133 -0.164717,0.025335 -0.25027,0.037101 -0.171092,0.023417 -0.348093,0.033669 -0.519793,0.055653 -0.08586,0.011059 -0.164267,0.026396 -0.25027,0.037101 -0.09246,0.011449 -0.196157,0.026058 -0.288774,0.037101 -0.153567,0.018314 -0.308057,0.038405 -0.462037,0.055653 -0.0064,7.3e-4 -0.01275,-7.29e-4 -0.01925,0 -0.697209,0.077896 -1.394481,0.1461551 -2.098421,0.20406 -0.174455,0.014481 -0.345034,0.023738 -0.519792,0.037101 -0.611591,0.046326 -1.234029,0.095908 -1.848152,0.1298567 -0.169248,0.00944 -0.350445,0.00997 -0.519792,0.018551 -0.08779,0.0044 -0.181715,0.014373 -0.269522,0.018551 -0.169387,0.00812 -0.350367,0.011221 -0.519792,0.018551 -0.702621,0.030062 -1.39683,0.055749 -2.098422,0.074204 -0.175403,0.00466 -0.344562,0.014517 -0.519792,0.018551 -0.35669,0.00819 -0.703128,0.012616 -1.058837,0.01855 -0.182813,7.39e-4 -0.375228,-1.341e-4 -0.558296,0 -0.0063,3.8e-6 -0.01288,-2.1e-6 -0.01925,0 -0.08838,5.39e-5 -0.181091,9.28e-5 -0.269522,0 -0.0063,-8.1e-6 -0.01289,8.9e-6 -0.01925,0 -0.372696,-4.361e-4 -0.743164,0.00326 -1.11659,0 -0.0063,-5.82e-5 -0.01289,5.89e-5 -0.01925,0 -0.183599,-0.0017 -0.374566,-0.016087 -0.558294,-0.01855 -0.190011,-0.00248 -0.387451,0.00332 -0.577548,0 -0.19016,-0.0034 -0.368082,-0.01426 -0.558296,-0.018551 -0.0063,-1.44e-4 -0.01289,1.44e-4 -0.01925,0 -0.09507,-0.00209 -0.174446,0.00234 -0.269522,0 C 28.428967,9.541692 28.231865,9.533598 28.041646,9.527896 27.851427,9.522196 27.67352,9.516045 27.48335,9.509343 c -0.0063,-2.231e-4 -0.01288,2.249e-4 -0.01925,0 -0.183829,-0.00651 -0.374552,-0.011073 -0.558296,-0.01855 -0.27867,-0.01118 -0.568712,-0.023588 -0.847068,-0.037101 -0.0063,-3.11e-4 -0.01289,3.121e-4 -0.01925,0 C 25.28673,9.416997 24.535752,9.360876 23.78705,9.3052845 c -0.0063,-4.72e-4 -0.01302,4.72e-4 -0.01925,0 -0.56001,-0.041712 -1.118394,-0.094809 -1.674886,-0.1484079 -0.0062,-6.061e-4 -0.01302,6.06e-4 -0.01925,0 -0.375062,-0.036221 -0.743539,-0.069254 -1.116594,-0.1113054 -0.09335,-0.010563 -0.176384,-0.02614 -0.26956,-0.037092 -0.139689,-0.016337 -0.284171,-0.019902 -0.423534,-0.037103 -0.41809,-0.051603 -0.836493,-0.1072453 -1.251353,-0.1669581 -0.138285,-0.019904 -0.285641,-0.053363 -0.423535,-0.074204 -0.183857,-0.027789 -0.355921,-0.044713 -0.539042,-0.074204 -0.09156,-0.014748 -0.178153,-0.040471 -0.269522,-0.055653 -0.05131,-0.00852 -0.102769,-0.00989 -0.154014,-0.018551 -0.04565,-0.00772 -0.08916,-0.010724 -0.13476,-0.018551 -0.09115,-0.015605 -0.178521,-0.039574 -0.269494,-0.055637 -0.04549,-0.00803 -0.08932,-0.010402 -0.134761,-0.018553 -0.09087,-0.016288 -0.178863,-0.038912 -0.269522,-0.055651 -0.04532,-0.00838 -0.08948,-0.010066 -0.134763,-0.018551 -0.09055,-0.016969 -0.179183,-0.038223 -0.269522,-0.055653 -0.361351,-0.069719 -0.720403,-0.1453119 -1.078087,-0.222612 -0.08942,-0.019324 -0.180342,-0.035841 -0.269522,-0.055651 -0.08917,-0.019812 -0.180589,-0.035348 -0.269522,-0.055654 -0.04447,-0.010147 -0.09035,-0.026824 -0.134761,-0.037101 -0.117936,-0.031404 -0.244797,-0.060182 -0.365779,-0.092755 -0.06049,-0.016286 -0.112218,-0.039025 -0.173265,-0.055653 -0.122083,-0.033257 -0.242335,-0.057928 -0.36578,-0.092755 -0.06171,-0.017415 -0.13066,-0.037796 -0.192514,-0.055653 -0.06185,-0.017857 -0.111427,-0.037322 -0.173265,-0.055653 -0.06184,-0.018334 -0.130829,-0.036812 -0.192517,-0.055654 -0.06169,-0.018842 -0.131121,-0.036268 -0.192515,-0.055653 -0.09209,-0.029079 -0.178489,-0.062359 -0.269522,-0.092755 -0.06069,-0.020263 -0.113222,-0.034762 -0.173264,-0.055652 -0.03002,-0.010446 -0.06642,-0.026494 -0.09626,-0.037102 -0.05966,-0.021216 -0.114452,-0.033759 -0.173262,-0.055652 -0.117619,-0.043787 -0.233182,-0.1017108 -0.346528,-0.148408 -0.198356,-0.081719 -0.397023,-0.1679554 -0.577547,-0.2597129 -0.07221,-0.036703 -0.143087,-0.072836 -0.211768,-0.1113058 -0.0049,-0.00275 -0.01439,0.00276 -0.01925,0 -0.0397,-0.022402 -0.05785,-0.051181 -0.09626,-0.074204 -0.01182,-0.00705 -0.0268,-0.011435 -0.0385,-0.01855 -0.128929,-0.078421 -0.253851,-0.1551213 -0.36578,-0.2411625 -0.01016,-0.00781 -0.0092,-0.01067 -0.01925,-0.018551 -0.01403,-0.011046 -0.02478,-0.025926 -0.0385,-0.037101 -0.0099,-0.00795 -0.0096,-0.010536 -0.01925,-0.018551 -0.08155,-0.067385 -0.161359,-0.1317612 -0.231019,-0.2040602 -0.0084,-0.00858 -0.01109,-0.00991 -0.01925,-0.018551 -0.01433,-0.015137 -0.02473,-0.040293 -0.0385,-0.055653 -0.0031,-0.00352 -0.01615,0.00353 -0.01925,0 -0.03442,-0.0387 -0.04623,-0.071167 -0.07701,-0.1113054 -0.0071,-0.00909 -0.01238,-0.0094 -0.01925,-0.018551 -0.02339,-0.03117 -0.03666,-0.060697 -0.05776,-0.092755 -0.0063,-0.0094 -0.01317,-0.00909 -0.01925,-0.01855 -0.02434,-0.037901 -0.05599,-0.072141 -0.07701,-0.1113054 -0.00525,-0.00978 -0.014211,-0.027231 -0.019252,-0.037101 -0.017643,-0.03455 -0.023534,-0.075757 -0.038503,-0.1113054 -0.00642,-0.015235 -0.013341,-0.021683 -0.019252,-0.037101 -0.00272,-0.014291 0.00212,-0.041478 0,-0.055653 -0.00212,-0.014175 -0.017738,-0.023039 -0.019252,-0.037101 -0.00203,-0.018749 9.593e-4,-0.037107 0,-0.055653 -4.823e-4,-0.00927 2.235e-4,-0.00931 0,-0.01855 -2.178e-4,-0.00922 -3.96e-5,-0.02793 0,-0.037101 3.6e-5,-0.00918 -2.896e-4,-0.00942 0,-0.01855 5.926e-4,-0.018243 -0.0016,-0.037611 0,-0.055653 7.935e-4,-0.00903 -0.00104,-0.00957 0,-0.018551 0.00157,-0.013457 0.017129,-0.023758 0.019252,-0.037101 0.00212,-0.013341 -0.00267,-0.04242 0,-0.055653 0.00177,-0.00883 -0.00201,-0.00977 0,-0.018551 0.00203,-0.00876 0.017,-0.028379 0.019252,-0.037103 0.00224,-0.00872 -0.00247,-0.00986 0,-0.01855 0.00248,-0.00867 -0.00271,-0.00993 0,-0.018553 0.010804,-0.034541 0.02412,-0.077541 0.038503,-0.1113054 0.00361,-0.00843 0.015424,-0.010174 0.019252,-0.018551 0.0057,-0.012576 0.01303,-0.024639 0.01925,-0.037101 0.0062,-0.012469 0.01256,-0.024749 0.01925,-0.037101 0.0067,-0.012348 0.01209,-0.024857 0.01925,-0.037103 0.0024,-0.00408 -0.0024,-0.014482 0,-0.018551 0.0097,-0.016307 0.02798,-0.039536 0.0385,-0.055653 0.01583,-0.024129 0.02092,-0.031951 0.0385,-0.055653 0.0059,-0.00791 0.01319,-0.02925 0.01925,-0.037103 0.006,-0.00787 0.01303,-0.010724 0.01925,-0.018551 0.0062,-0.00781 0.01283,-0.010791 0.01925,-0.01855 0.0128,-0.01555 0.02498,-0.040289 0.0385,-0.055653 0.0095,-0.010724 0.02866,-0.00791 0.0385,-0.018551 0.01388,-0.01527 0.02394,-0.022017 0.0385,-0.037101 0.0073,-0.00752 0.01178,-0.029624 0.01925,-0.037101 0.0149,-0.014992 0.02294,-0.022295 0.0385,-0.037101 0.0078,-0.00738 0.01129,-0.011207 0.01925,-0.018551 0.01588,-0.014715 0.04124,-0.041121 0.05776,-0.055653 0.0083,-0.00725 0.01082,-0.011355 0.01925,-0.018551 0.02522,-0.021661 0.05045,-0.034401 0.07701,-0.055653 0.0089,-0.00706 0.02948,-0.011529 0.0385,-0.01855 0.03598,-0.028154 0.05809,-0.065322 0.09626,-0.092755 0.0287,-0.020511 0.06641,-0.035544 0.09626,-0.055653 0.02978,-0.020173 0.0654,-0.035881 0.09626,-0.055653 0.02062,-0.01314 0.03668,-0.024139 0.05776,-0.037101 0.108258,-0.067343 0.208462,-0.1413738 0.327276,-0.2040606 0.09199,-0.048532 0.191956,-0.084057 0.288774,-0.1298567 0.07261,-0.03435 0.137078,-0.078468 0.211767,-0.1113054 0.04979,-0.021892 0.103502,-0.034424 0.154012,-0.055653 0.02526,-0.010616 0.0516,-0.026653 0.07701,-0.037101 0.05081,-0.020897 0.102732,-0.035409 0.154012,-0.055653 0.02564,-0.01012 0.05128,-0.027142 0.07701,-0.037101 0.05146,-0.019919 0.102325,-0.036379 0.154012,-0.055653 0.05169,-0.019273 0.102261,-0.037017 0.154014,-0.055653 0.05175,-0.018634 0.102357,-0.037649 0.154012,-0.055653 0.05166,-0.018004 0.102618,-0.038274 0.154012,-0.055653 0.02571,-0.00867 0.05139,-0.010026 0.07701,-0.018551 0.0512,-0.017068 0.103313,-0.039202 0.154012,-0.055653 0.07605,-0.024676 0.156566,-0.050896 0.231018,-0.074204 0.02804,-0.00808 0.04902,-0.01059 0.07701,-0.01855 0.08399,-0.023874 0.166243,-0.051134 0.25027,-0.074204 0.0056,-0.00154 0.01365,0.00154 0.01925,0 0.106473,-0.029174 0.219468,-0.064104 0.327277,-0.092758 C 10.0517,3.286111 7.6542224,4.0440933 7.6542224,5.3910656 c 4e-7,0.2623087 0,4.3939799 0,4.6562904 4e-7,2.845393 10.6746206,5.157165 23.8334446,5.157164 13.158825,10e-7 23.833446,-2.311771 23.833446,-5.157164 0,-0.2623105 0,-4.3939807 0,-4.6562904 0,-1.3760967 -2.498374,-2.1529062 -6.564786,-2.6156832 z"
         id="path3959"
         style="color:#000000;display:inline;overflow:visible;visibility:visible;fill:#00083a;fill-opacity:1;fill-rule:evenodd;stroke:#808389;stroke-width:0;stroke-linecap:round;stroke-linejoin:round;stroke-miterlimit:4;stroke-dasharray:none;stroke-dashoffset:0;stroke-opacity:1;marker:none" />
      <path
         inkscape:connector-curvature="0"
         d="m 30.775361,0.25244307 c -0.778102,0.00422 -1.554666,0.020933 -2.32944,0.037102 C 22.64558,0.49584907 16.691855,0.96087278 11.408281,2.6269649 9.6548357,3.2279481 7.4158964,4.1954258 7.6734758,5.6693212 8.2304692,7.259813 10.826823,8.0301651 12.909904,8.6374736 19.18439,10.227334 26.038836,10.57777 32.719769,10.548221 38.893078,10.435469 45.224886,10.027435 50.931754,8.3963111 52.808944,7.7933508 55.184035,6.9371693 55.321113,5.4096083 55.321353,5.2312889 55.285998,5.0420632 55.205601,4.8716303 54.292735,3.3284338 51.696572,2.6274229 49.507139,2.0333343 43.529672,0.62481644 37.111337,0.21809567 30.775361,0.25244307 Z M 29.639518,1.0686847 c 6.128931,-0.0815426 12.378923,0.218394 18.173483,1.4655253 1.983258,0.491525 4.332516,1.0791917 5.159421,2.3559712 0.0728,0.1410105 0.115721,0.2791387 0.115506,0.4266722 C 52.963751,6.580697 50.803272,7.2852639 49.102851,7.7841299 43.933378,9.1336572 38.19624,9.4902843 32.604254,9.5835717 26.552452,9.6080178 20.345434,9.3035782 14.661796,7.9881906 12.774872,7.4857273 10.430452,6.855375 9.92591,5.5394645 9.6925852,4.3200218 11.706607,3.5137643 13.294934,3.0165349 18.08097,1.6380758 23.480553,1.2579239 28.734695,1.0872364 c 0.300778,-0.00573 0.603401,-0.014541 0.904823,-0.018552 z"
         id="path18219"
         style="color:#000000;display:inline;overflow:visible;visibility:visible;fill:#323232;fill-opacity:1;fill-rule:evenodd;stroke:url(#linearGradient2857-3);stroke-width:0.24999999;stroke-linecap:round;stroke-linejoin:round;stroke-miterlimit:4;stroke-dasharray:none;stroke-dashoffset:0;stroke-opacity:1;marker:none" />
      <g
         transform="translate(-90.692784,-0.7358441)"
         id="g16471">
        <path
           d="m 46.315495,40.663769 a 21.478369,6.9826794 0 1 1 -42.956738,0 21.478369,6.9826794 0 1 1 42.956738,0 z"
           transform="matrix(0.5545408,0,0,0.5545408,115.28351,32.036699)"
           id="path4275"
           style="opacity:0.3258427;color:#000000;fill:url(#radialGradient16522);fill-opacity:1;fill-rule:evenodd;stroke:none;stroke-width:1;marker:none;visibility:visible;display:inline;overflow:visible" />
        <path
           d="m 121.48526,53.568032 -0.88555,1.41688 1.85966,0.796993 1.32832,-1.062658 5.93318,0.442773 1.85965,2.479537 1.68254,-2.745202 2.12532,1.151215 2.83375,-0.354221 -0.70844,-1.505431 1.94821,-1.948209 -2.7452,-3.099419 2.65665,0.354219 1.15121,-1.062658 -1.50543,0.265664 -1.59399,-2.745201 -2.30243,-0.531329 1.85966,-0.619884 0.0885,-1.593988 -3.63075,-3.187975 -1.32832,-4.250634 -6.02173,1.771097 -1.50543,3.542195 -0.53133,-1.151213 -1.50544,0.08855 0,1.416878 -1.77109,-2.036762 -2.39099,2.568091 0,3.63075 4.16208,3.63075 -2.65665,1.505433 0.0886,1.505431 1.50543,1.328323 z"
           id="path4273"
           style="color:#000000;fill:url(#radialGradient16524);fill-opacity:1;fill-rule:evenodd;stroke:url(#radialGradient16526);stroke-width:0.50094199;stroke-linecap:butt;stroke-linejoin:miter;stroke-miterlimit:4;stroke-opacity:1;stroke-dasharray:none;stroke-dashoffset:0;marker:none;visibility:visible;display:inline;overflow:visible" />
        <path
           d="m 126.71,46.129424 -0.44278,3.27653 1.06266,1.682541 -2.30242,0.708442 -1.32832,2.656645 6.02173,0.442773 1.41687,2.036765 1.15122,-3.099423 -2.21387,-1.416875 -3.36509,0.974102 1.32832,-1.771095 -0.70844,-3.099424 -0.61988,-2.390981 z"
           id="path5158"
           style="opacity:0.76966289;color:#000000;fill:url(#linearGradient16528);fill-opacity:1;fill-rule:evenodd;stroke:none;stroke-width:1;marker:none;visibility:visible;display:inline;overflow:visible" />
        <path
           d="m 127.24133,46.660753 2.21387,3.45364 3.63075,-2.479536 2.21387,1.239768 1.7711,-1.505433 1.59399,1.416878 -1.50543,-2.479536 -3.45365,-0.796994 -4.33918,-2.125317 c 0,0 -6.19884,1.859652 -5.84462,1.859652 0.35421,0 5.13618,0.08855 5.13618,0.08855 l 0.79699,-1.151213 2.12532,0.974103 -4.33919,1.505433 z"
           id="path5160"
           style="opacity:0.61797755;color:#000000;fill:url(#linearGradient16530);fill-opacity:1;fill-rule:evenodd;stroke:none;stroke-width:1;marker:none;visibility:visible;display:inline;overflow:visible" />
        <path
           d="m 131.75763,36.476943 -5.22474,1.771098 -0.70844,1.948207 3.01087,2.125317 2.83375,-2.745202 0.0886,-3.09942 z"
           id="path5172"
           style="color:#000000;fill:#ffffff;fill-opacity:1;fill-rule:evenodd;stroke:none;stroke-width:1;marker:none;visibility:visible;display:inline;overflow:visible" />
        <path
           d="m 131.84618,36.654053 1.15122,3.719304 2.12531,1.859653 -4.33919,-0.974104 c 0,0 -1.23976,1.416878 -0.70843,1.416878 0.53132,0 6.28739,0.708439 6.28739,0.708439 l -0.0885,1.151213 -8.14705,-1.505433 3.54219,-3.27653 0.17711,-3.09942 z"
           id="path5174"
           style="opacity:0.13483145;color:#000000;fill:url(#linearGradient16532);fill-opacity:1;fill-rule:evenodd;stroke:none;stroke-width:1;marker:none;visibility:visible;display:inline;overflow:visible" />
        <path
           d="m 120.68827,41.87879 -0.44277,4.427744 0.9741,-3.010866 2.56809,0.796994 0.61988,-1.328323 3.09943,0.442774 0.70843,-0.619884 -4.51629,-0.17711 -0.44278,1.239769 -1.94821,-0.974104 -0.61988,-0.796994 z"
           id="path5184"
           style="color:#000000;fill:#ffffff;fill-opacity:1;fill-rule:evenodd;stroke:none;stroke-width:1;marker:none;visibility:visible;display:inline;overflow:visible" />
        <path
           d="m 128.21543,48.431851 1.50544,1.771098 3.45364,-2.302428 2.12531,1.151214 3.45364,3.276531 -3.80786,-2.922312 -1.85965,-0.531329 -3.63075,2.479539 -1.23977,-2.922313 z"
           id="path5186"
           style="color:#000000;fill:#ffffff;fill-opacity:1;fill-rule:evenodd;stroke:none;stroke-width:1;marker:none;visibility:visible;display:inline;overflow:visible" />
        <path
           d="m 46.315495,40.663769 a 21.478369,6.9826794 0 1 1 -42.956738,0 21.478369,6.9826794 0 1 1 42.956738,0 z"
           transform="matrix(-0.5545408,0,0,0.5545408,134.44323,32.717865)"
           id="path2423"
           style="opacity:0.3258427;color:#000000;fill:url(#radialGradient16534);fill-opacity:1;fill-rule:evenodd;stroke:none;stroke-width:1;marker:none;visibility:visible;display:inline;overflow:visible" />
        <g
           transform="matrix(-0.500942,0,0,0.500942,18.541824,6.4015722)"
           id="g2507">
          <path
             d="m -173.72864,65.809652 1.76777,2.828427 -3.71232,1.59099 -2.65165,-2.12132 -11.84403,0.883883 -3.71231,4.949748 -3.35876,-5.480078 -4.24264,2.298097 -5.65685,-0.707106 1.41421,-3.005204 -3.88909,-3.889088 5.48008,-6.187184 -5.3033,0.707107 -2.2981,-2.12132 3.00521,0.53033 3.18198,-5.480078 4.59619,-1.06066 -3.71231,-1.237437 -0.17678,-3.18198 7.24785,-6.363961 2.65165,-8.485282 12.02081,3.535534 3.0052,7.071068 1.06066,-2.298097 3.00521,0.176777 0,2.828427 3.53553,-4.065864 4.77297,5.126524 0,7.247844 -8.3085,7.247845 5.3033,3.005204 -0.17678,3.005203 -3.0052,2.651651 z"
             id="path2425"
             style="color:#000000;fill:url(#radialGradient16536);fill-opacity:1;fill-rule:evenodd;stroke:url(#radialGradient16538);stroke-width:1;stroke-linecap:butt;stroke-linejoin:miter;stroke-miterlimit:4;stroke-opacity:1;stroke-dasharray:none;stroke-dashoffset:0;marker:none;visibility:visible;display:inline;overflow:visible" />
          <path
             d="m -184.15847,50.96041 0.88389,6.540737 -2.12132,3.358757 4.59619,1.414214 2.65165,5.303301 -12.02081,0.883883 -2.82843,4.065864 -2.2981,-6.187184 4.41942,-2.828427 6.71751,1.944544 -2.65165,-3.535534 1.41422,-6.187185 1.23743,-4.77297 z"
             id="path2427"
             style="opacity:0.76966289;color:#000000;fill:url(#linearGradient16540);fill-opacity:1;fill-rule:evenodd;stroke:none;stroke-width:1;marker:none;visibility:visible;display:inline;overflow:visible" />
          <path
             d="m -185.21913,52.02107 -4.41941,6.894291 -7.24785,-4.949748 -4.41941,2.474874 -3.53554,-3.005204 -3.18198,2.828427 3.00521,-4.949747 6.89429,-1.59099 8.66205,-4.242641 c 0,0 12.37437,3.712311 11.66726,3.712311 -0.7071,0 -10.25304,0.176776 -10.25304,0.176776 l -1.59099,-2.298097 -4.24264,1.944544 8.66205,3.005204 z"
             id="path2429"
             style="opacity:0.61797755;color:#000000;fill:url(#linearGradient16542);fill-opacity:1;fill-rule:evenodd;stroke:none;stroke-width:1;marker:none;visibility:visible;display:inline;overflow:visible" />
          <path
             d="m -194.23474,31.69175 10.42983,3.535534 1.41421,3.889087 -6.01041,4.242641 -5.65685,-5.480078 -0.17678,-6.187184 z"
             id="path2431"
             style="color:#000000;fill:#ffffff;fill-opacity:1;fill-rule:evenodd;stroke:none;stroke-width:1;marker:none;visibility:visible;display:inline;overflow:visible" />
          <path
             d="m -194.41151,32.045303 -2.2981,7.424621 -4.24264,3.712311 8.66206,-1.944544 c 0,0 2.47487,2.828427 1.41421,2.828427 -1.06066,0 -12.55114,1.414214 -12.55114,1.414214 l 0.17677,2.298097 16.26346,-3.005204 -7.07107,-6.540738 -0.35355,-6.187184 z"
             id="path2433"
             style="opacity:0.13483145;color:#000000;fill:url(#linearGradient16544);fill-opacity:1;fill-rule:evenodd;stroke:none;stroke-width:1;marker:none;visibility:visible;display:inline;overflow:visible" />
          <path
             d="m -172.13765,42.475128 0.88388,8.838835 -1.94454,-6.010408 -5.12653,1.590991 -1.23743,-2.651651 -6.18719,0.883884 -1.41421,-1.237437 9.01561,-0.353554 0.88388,2.474874 3.88909,-1.944544 1.23744,-1.59099 z"
             id="path2435"
             style="color:#000000;fill:#ffffff;fill-opacity:1;fill-rule:evenodd;stroke:none;stroke-width:1;marker:none;visibility:visible;display:inline;overflow:visible" />
          <path
             d="m -187.16367,55.556604 -3.0052,3.535534 -6.89429,-4.596195 -4.24264,2.298097 -6.89429,6.540738 7.60139,-5.833631 3.71231,-1.06066 7.24785,4.949748 2.47487,-5.833631 z"
             id="path2437"
             style="color:#000000;fill:#ffffff;fill-opacity:1;fill-rule:evenodd;stroke:none;stroke-width:1;marker:none;visibility:visible;display:inline;overflow:visible" />
        </g>
        <path
           d="m 46.315495,40.663769 a 21.478369,6.9826794 0 1 1 -42.956738,0 21.478369,6.9826794 0 1 1 42.956738,0 z"
           transform="matrix(-0.5545408,0,0,0.5545408,129.48295,31.832103)"
           id="path2479"
           style="opacity:0.3258427;color:#000000;fill:url(#radialGradient16546);fill-opacity:1;fill-rule:evenodd;stroke:none;stroke-width:1;marker:none;visibility:visible;display:inline;overflow:visible" />
        <path
           d="m 123.28119,53.363437 0.88556,1.41688 -1.85966,0.796994 -1.32832,-1.062659 -5.93318,0.442773 -1.85965,2.479538 -1.68254,-2.745203 -2.12532,1.151215 -2.83375,-0.354221 0.70843,-1.505431 -1.9482,-1.948208 2.7452,-3.099422 -2.65665,0.35422 -1.15121,-1.062658 1.50543,0.265664 1.59399,-2.745201 2.30243,-0.531329 -1.85966,-0.619884 -0.0886,-1.593988 3.63075,-3.187975 1.32832,-4.250634 6.02173,1.771097 1.50543,3.542195 0.53133,-1.151213 1.50544,0.08855 0,1.416878 1.77109,-2.036762 2.39098,2.568091 0,3.630749 -4.16207,3.63075 2.65664,1.505431 -0.0885,1.505436 -1.50544,1.328322 z"
           id="path2481"
           style="color:#000000;fill:url(#radialGradient16548);fill-opacity:1;fill-rule:evenodd;stroke:url(#radialGradient16550);stroke-width:0.50094199;stroke-linecap:butt;stroke-linejoin:miter;stroke-miterlimit:4;stroke-opacity:1;stroke-dasharray:none;stroke-dashoffset:0;marker:none;visibility:visible;display:inline;overflow:visible" />
        <path
           d="m 118.05645,45.924828 0.44278,3.27653 -1.06266,1.682542 2.30243,0.708437 1.32832,2.656651 -6.02173,0.442772 -1.41688,2.03676 -1.15121,-3.099418 2.21387,-1.416879 3.36508,0.974106 -1.32832,-1.7711 0.70844,-3.09942 0.61988,-2.390981 z"
           id="path2483"
           style="opacity:0.76966289;color:#000000;fill:url(#linearGradient16552);fill-opacity:1;fill-rule:evenodd;stroke:none;stroke-width:1;marker:none;visibility:visible;display:inline;overflow:visible" />
        <path
           d="m 117.52513,46.456157 -2.21387,3.45364 -3.63075,-2.479537 -2.21387,1.239769 -1.7711,-1.505433 -1.59399,1.416878 1.50544,-2.479536 3.45363,-0.796994 4.33919,-2.125317 c 0,0 6.19884,1.859652 5.84462,1.859652 -0.35422,0 -5.13618,0.08855 -5.13618,0.08855 l -0.79699,-1.151214 -2.12532,0.974104 4.33919,1.505433 z"
           id="path2485"
           style="opacity:0.61797755;color:#000000;fill:url(#linearGradient16554);fill-opacity:1;fill-rule:evenodd;stroke:none;stroke-width:1;marker:none;visibility:visible;display:inline;overflow:visible" />
        <path
           d="m 113.00883,36.272347 5.22474,1.771097 0.70844,1.948207 -3.01087,2.125317 -2.83376,-2.745201 -0.0885,-3.09942 z"
           id="path2487"
           style="color:#000000;fill:#ffffff;fill-opacity:1;fill-rule:evenodd;stroke:none;stroke-width:1;marker:none;visibility:visible;display:inline;overflow:visible" />
        <path
           d="m 112.92028,36.449456 -1.15122,3.719305 -2.12531,1.859652 4.33918,-0.974103 c 0,0 1.23977,1.416878 0.70844,1.416878 -0.53133,0 -6.28739,0.708439 -6.28739,0.708439 l 0.0885,1.151213 8.14705,-1.505433 -3.5422,-3.27653 -0.1771,-3.099421 z"
           id="path2489"
           style="opacity:0.13483145;color:#000000;fill:url(#linearGradient16556);fill-opacity:1;fill-rule:evenodd;stroke:none;stroke-width:1;marker:none;visibility:visible;display:inline;overflow:visible" />
        <path
           d="m 124.07819,41.674194 0.44277,4.427744 -0.9741,-3.010866 -2.56809,0.796994 -0.61989,-1.328323 -3.09942,0.442774 -0.70844,-0.619884 4.5163,-0.17711 0.44277,1.239768 1.94821,-0.974103 0.61989,-0.796994 z"
           id="path2491"
           style="color:#000000;fill:#ffffff;fill-opacity:1;fill-rule:evenodd;stroke:none;stroke-width:1;marker:none;visibility:visible;display:inline;overflow:visible" />
        <path
           d="m 116.55102,48.227255 -1.50543,1.771097 -3.45364,-2.302427 -2.12531,1.151213 -3.45364,3.276528 3.80785,-2.922308 1.85966,-0.531329 3.63075,2.479535 1.23976,-2.922309 z"
           id="path2493"
           style="color:#000000;fill:#ffffff;fill-opacity:1;fill-rule:evenodd;stroke:none;stroke-width:1;marker:none;visibility:visible;display:inline;overflow:visible" />
        <g
           transform="matrix(0,-0.500942,-0.500942,0,143.56035,-60.06773)"
           id="g2586">
          <path
             d="m -173.72864,65.809652 1.76777,2.828427 -3.71232,1.59099 -2.65165,-2.12132 -11.84403,0.883883 -3.71231,4.949748 -3.35876,-5.480078 -4.24264,2.298097 -5.65685,-0.707106 1.41421,-3.005204 -3.88909,-3.889088 5.48008,-6.187184 -5.3033,0.707107 -2.2981,-2.12132 3.00521,0.53033 3.18198,-5.480078 4.59619,-1.06066 -3.71231,-1.237437 -0.17678,-3.18198 7.24785,-6.363961 2.65165,-8.485282 12.02081,3.535534 3.0052,7.071068 1.06066,-2.298097 3.00521,0.176777 0,2.828427 3.53553,-4.065864 4.77297,5.126524 0,7.247844 -8.3085,7.247845 5.3033,3.005204 -0.17678,3.005203 -3.0052,2.651651 z"
             id="path2588"
             style="color:#000000;fill:url(#radialGradient16558);fill-opacity:1;fill-rule:evenodd;stroke:url(#radialGradient16560);stroke-width:1;stroke-linecap:butt;stroke-linejoin:miter;stroke-miterlimit:4;stroke-opacity:1;stroke-dasharray:none;stroke-dashoffset:0;marker:none;visibility:visible;display:inline;overflow:visible" />
          <path
             d="m -184.15847,50.96041 0.88389,6.540737 -2.12132,3.358757 4.59619,1.414214 2.65165,5.303301 -12.02081,0.883883 -2.82843,4.065864 -2.2981,-6.187184 4.41942,-2.828427 6.71751,1.944544 -2.65165,-3.535534 1.41422,-6.187185 1.23743,-4.77297 z"
             id="path2590"
             style="opacity:0.76966289;color:#000000;fill:url(#linearGradient16562);fill-opacity:1;fill-rule:evenodd;stroke:none;stroke-width:1;marker:none;visibility:visible;display:inline;overflow:visible" />
          <path
             d="m -185.21913,52.02107 -4.41941,6.894291 -7.24785,-4.949748 -4.41941,2.474874 -3.53554,-3.005204 -3.18198,2.828427 3.00521,-4.949747 6.89429,-1.59099 8.66205,-4.242641 c 0,0 12.37437,3.712311 11.66726,3.712311 -0.7071,0 -10.25304,0.176776 -10.25304,0.176776 l -1.59099,-2.298097 -4.24264,1.944544 8.66205,3.005204 z"
             id="path2592"
             style="opacity:0.61797755;color:#000000;fill:url(#linearGradient16564);fill-opacity:1;fill-rule:evenodd;stroke:none;stroke-width:1;marker:none;visibility:visible;display:inline;overflow:visible" />
          <path
             d="m -194.23474,31.69175 10.42983,3.535534 1.41421,3.889087 -6.01041,4.242641 -5.65685,-5.480078 -0.17678,-6.187184 z"
             id="path2594"
             style="color:#000000;fill:#ffffff;fill-opacity:1;fill-rule:evenodd;stroke:none;stroke-width:1;marker:none;visibility:visible;display:inline;overflow:visible" />
          <path
             d="m -194.41151,32.045303 -2.2981,7.424621 -4.24264,3.712311 8.66206,-1.944544 c 0,0 2.47487,2.828427 1.41421,2.828427 -1.06066,0 -12.55114,1.414214 -12.55114,1.414214 l 0.17677,2.298097 16.26346,-3.005204 -7.07107,-6.540738 -0.35355,-6.187184 z"
             id="path2596"
             style="opacity:0.13483145;color:#000000;fill:url(#linearGradient16566);fill-opacity:1;fill-rule:evenodd;stroke:none;stroke-width:1;marker:none;visibility:visible;display:inline;overflow:visible" />
          <path
             d="m -172.13765,42.475128 0.88388,8.838835 -1.94454,-6.010408 -5.12653,1.590991 -1.23743,-2.651651 -6.18719,0.883884 -1.41421,-1.237437 9.01561,-0.353554 0.88388,2.474874 3.88909,-1.944544 1.23744,-1.59099 z"
             id="path2598"
             style="color:#000000;fill:#ffffff;fill-opacity:1;fill-rule:evenodd;stroke:none;stroke-width:1;marker:none;visibility:visible;display:inline;overflow:visible" />
          <path
             d="m -187.16367,55.556604 -3.0052,3.535534 -6.89429,-4.596195 -4.24264,2.298097 -6.89429,6.540738 7.60139,-5.833631 3.71231,-1.06066 7.24785,4.949748 2.47487,-5.833631 z"
             id="path2600"
             style="color:#000000;fill:#ffffff;fill-opacity:1;fill-rule:evenodd;stroke:none;stroke-width:1;marker:none;visibility:visible;display:inline;overflow:visible" />
        </g>
        <g
           transform="matrix(0.500942,0,0,0.500942,226.25289,6.2244201)"
           id="g2552">
          <path
             d="m -173.72864,65.809652 1.76777,2.828427 -3.71232,1.59099 -2.65165,-2.12132 -11.84403,0.883883 -3.71231,4.949748 -3.35876,-5.480078 -4.24264,2.298097 -5.65685,-0.707106 1.41421,-3.005204 -3.88909,-3.889088 5.48008,-6.187184 -5.3033,0.707107 -2.2981,-2.12132 3.00521,0.53033 3.18198,-5.480078 4.59619,-1.06066 -3.71231,-1.237437 -0.17678,-3.18198 7.24785,-6.363961 2.65165,-8.485282 12.02081,3.535534 3.0052,7.071068 1.06066,-2.298097 3.00521,0.176777 0,2.828427 3.53553,-4.065864 4.77297,5.126524 0,7.247844 -8.3085,7.247845 5.3033,3.005204 -0.17678,3.005203 -3.0052,2.651651 z"
             id="path2554"
             style="color:#000000;fill:url(#radialGradient16568);fill-opacity:1;fill-rule:evenodd;stroke:url(#radialGradient16570);stroke-width:1;stroke-linecap:butt;stroke-linejoin:miter;stroke-miterlimit:4;stroke-opacity:1;stroke-dasharray:none;stroke-dashoffset:0;marker:none;visibility:visible;display:inline;overflow:visible" />
          <path
             d="m -184.15847,50.96041 0.88389,6.540737 -2.12132,3.358757 4.59619,1.414214 2.65165,5.303301 -12.02081,0.883883 -2.82843,4.065864 -2.2981,-6.187184 4.41942,-2.828427 6.71751,1.944544 -2.65165,-3.535534 1.41422,-6.187185 1.23743,-4.77297 z"
             id="path2556"
             style="opacity:0.76966289;color:#000000;fill:url(#linearGradient16572);fill-opacity:1;fill-rule:evenodd;stroke:none;stroke-width:1;marker:none;visibility:visible;display:inline;overflow:visible" />
          <path
             d="m -185.21913,52.02107 -4.41941,6.894291 -7.24785,-4.949748 -4.41941,2.474874 -3.53554,-3.005204 -3.18198,2.828427 3.00521,-4.949747 6.89429,-1.59099 8.66205,-4.242641 c 0,0 12.37437,3.712311 11.66726,3.712311 -0.7071,0 -10.25304,0.176776 -10.25304,0.176776 l -1.59099,-2.298097 -4.24264,1.944544 8.66205,3.005204 z"
             id="path2558"
             style="opacity:0.61797755;color:#000000;fill:url(#linearGradient16574);fill-opacity:1;fill-rule:evenodd;stroke:none;stroke-width:1;marker:none;visibility:visible;display:inline;overflow:visible" />
          <path
             d="m -194.23474,31.69175 10.42983,3.535534 1.41421,3.889087 -6.01041,4.242641 -5.65685,-5.480078 -0.17678,-6.187184 z"
             id="path2560"
             style="color:#000000;fill:#ffffff;fill-opacity:1;fill-rule:evenodd;stroke:none;stroke-width:1;marker:none;visibility:visible;display:inline;overflow:visible" />
          <path
             d="m -194.41151,32.045303 -2.2981,7.424621 -4.24264,3.712311 8.66206,-1.944544 c 0,0 2.47487,2.828427 1.41421,2.828427 -1.06066,0 -12.55114,1.414214 -12.55114,1.414214 l 0.17677,2.298097 16.26346,-3.005204 -7.07107,-6.540738 -0.35355,-6.187184 z"
             id="path2562"
             style="opacity:0.13483145;color:#000000;fill:url(#linearGradient16576);fill-opacity:1;fill-rule:evenodd;stroke:none;stroke-width:1;marker:none;visibility:visible;display:inline;overflow:visible" />
          <path
             d="m -172.13765,42.475128 0.88388,8.838835 -1.94454,-6.010408 -5.12653,1.590991 -1.23743,-2.651651 -6.18719,0.883884 -1.41421,-1.237437 9.01561,-0.353554 0.88388,2.474874 3.88909,-1.944544 1.23744,-1.59099 z"
             id="path2564"
             style="color:#000000;fill:#ffffff;fill-opacity:1;fill-rule:evenodd;stroke:none;stroke-width:1;marker:none;visibility:visible;display:inline;overflow:visible" />
          <path
             d="m -187.16367,55.556604 -3.0052,3.535534 -6.89429,-4.596195 -4.24264,2.298097 -6.89429,6.540738 7.60139,-5.833631 3.71231,-1.06066 7.24785,4.949748 2.47487,-5.833631 z"
             id="path2566"
             style="color:#000000;fill:#ffffff;fill-opacity:1;fill-rule:evenodd;stroke:none;stroke-width:1;marker:none;visibility:visible;display:inline;overflow:visible" />
        </g>
        <g
           transform="matrix(0,0.500942,0.500942,0,97.571112,143.10433)"
           id="g2526">
          <path
             d="m -173.72864,65.809652 1.76777,2.828427 -3.71232,1.59099 -2.65165,-2.12132 -11.84403,0.883883 -3.71231,4.949748 -3.35876,-5.480078 -4.24264,2.298097 -5.65685,-0.707106 1.41421,-3.005204 -3.88909,-3.889088 5.48008,-6.187184 -5.3033,0.707107 -2.2981,-2.12132 3.00521,0.53033 3.18198,-5.480078 4.59619,-1.06066 -3.71231,-1.237437 -0.17678,-3.18198 7.24785,-6.363961 2.65165,-8.485282 12.02081,3.535534 3.0052,7.071068 1.06066,-2.298097 3.00521,0.176777 0,2.828427 3.53553,-4.065864 4.77297,5.126524 0,7.247844 -8.3085,7.247845 5.3033,3.005204 -0.17678,3.005203 -3.0052,2.651651 z"
             id="path2528"
             style="color:#000000;fill:url(#radialGradient16578);fill-opacity:1;fill-rule:evenodd;stroke:url(#radialGradient16580);stroke-width:1;stroke-linecap:butt;stroke-linejoin:miter;stroke-miterlimit:4;stroke-opacity:1;stroke-dasharray:none;stroke-dashoffset:0;marker:none;visibility:visible;display:inline;overflow:visible" />
          <path
             d="m -184.15847,50.96041 0.88389,6.540737 -2.12132,3.358757 4.59619,1.414214 2.65165,5.303301 -12.02081,0.883883 -2.82843,4.065864 -2.2981,-6.187184 4.41942,-2.828427 6.71751,1.944544 -2.65165,-3.535534 1.41422,-6.187185 1.23743,-4.77297 z"
             id="path2530"
             style="opacity:0.76966289;color:#000000;fill:url(#linearGradient16582);fill-opacity:1;fill-rule:evenodd;stroke:none;stroke-width:1;marker:none;visibility:visible;display:inline;overflow:visible" />
          <path
             d="m -185.21913,52.02107 -4.41941,6.894291 -7.24785,-4.949748 -4.41941,2.474874 -3.53554,-3.005204 -3.18198,2.828427 3.00521,-4.949747 6.89429,-1.59099 8.66205,-4.242641 c 0,0 12.37437,3.712311 11.66726,3.712311 -0.7071,0 -10.25304,0.176776 -10.25304,0.176776 l -1.59099,-2.298097 -4.24264,1.944544 8.66205,3.005204 z"
             id="path2532"
             style="opacity:0.61797755;color:#000000;fill:url(#linearGradient16584);fill-opacity:1;fill-rule:evenodd;stroke:none;stroke-width:1;marker:none;visibility:visible;display:inline;overflow:visible" />
          <path
             d="m -194.23474,31.69175 10.42983,3.535534 1.41421,3.889087 -6.01041,4.242641 -5.65685,-5.480078 -0.17678,-6.187184 z"
             id="path2534"
             style="color:#000000;fill:#ffffff;fill-opacity:1;fill-rule:evenodd;stroke:none;stroke-width:1;marker:none;visibility:visible;display:inline;overflow:visible" />
          <path
             d="m -194.41151,32.045303 -2.2981,7.424621 -4.24264,3.712311 8.66206,-1.944544 c 0,0 2.47487,2.828427 1.41421,2.828427 -1.06066,0 -12.55114,1.414214 -12.55114,1.414214 l 0.17677,2.298097 16.26346,-3.005204 -7.07107,-6.540738 -0.35355,-6.187184 z"
             id="path2536"
             style="opacity:0.13483145;color:#000000;fill:url(#linearGradient16586);fill-opacity:1;fill-rule:evenodd;stroke:none;stroke-width:1;marker:none;visibility:visible;display:inline;overflow:visible" />
          <path
             d="m -172.13765,42.475128 0.88388,8.838835 -1.94454,-6.010408 -5.12653,1.590991 -1.23743,-2.651651 -6.18719,0.883884 -1.41421,-1.237437 9.01561,-0.353554 0.88388,2.474874 3.88909,-1.944544 1.23744,-1.59099 z"
             id="path2538"
             style="color:#000000;fill:#ffffff;fill-opacity:1;fill-rule:evenodd;stroke:none;stroke-width:1;marker:none;visibility:visible;display:inline;overflow:visible" />
          <path
             d="m -187.16367,55.556604 -3.0052,3.535534 -6.89429,-4.596195 -4.24264,2.298097 -6.89429,6.540738 7.60139,-5.833631 3.71231,-1.06066 7.24785,4.949748 2.47487,-5.833631 z"
             id="path2540"
             style="color:#000000;fill:#ffffff;fill-opacity:1;fill-rule:evenodd;stroke:none;stroke-width:1;marker:none;visibility:visible;display:inline;overflow:visible" />
        </g>
      </g>
    </g>
  </g>
</svg>
