<?xml version="1.0" encoding="UTF-8" standalone="no"?>
<!-- Created with Inkscape (http://www.inkscape.org/) -->

<svg
   xmlns:dc="http://purl.org/dc/elements/1.1/"
   xmlns:cc="http://creativecommons.org/ns#"
   xmlns:rdf="http://www.w3.org/1999/02/22-rdf-syntax-ns#"
   xmlns:svg="http://www.w3.org/2000/svg"
   xmlns="http://www.w3.org/2000/svg"
   xmlns:xlink="http://www.w3.org/1999/xlink"
   xmlns:sodipodi="http://sodipodi.sourceforge.net/DTD/sodipodi-0.dtd"
   xmlns:inkscape="http://www.inkscape.org/namespaces/inkscape"
   version="1.1"
   width="48"
   height="48"
   id="svg2453"
   sodipodi:docname="user-trash.svg"
   inkscape:version="0.92.4 (5da689c313, 2019-01-14)">
  <metadata
     id="metadata43">
    <rdf:RDF>
      <cc:Work
         rdf:about="">
        <dc:format>image/svg+xml</dc:format>
        <dc:type
           rdf:resource="http://purl.org/dc/dcmitype/StillImage" />
      </cc:Work>
    </rdf:RDF>
  </metadata>
  <sodipodi:namedview
     pagecolor="#ffffff"
     bordercolor="#666666"
     borderopacity="1"
     objecttolerance="10"
     gridtolerance="10"
     guidetolerance="10"
     inkscape:pageopacity="0"
     inkscape:pageshadow="2"
     inkscape:window-width="1680"
     inkscape:window-height="1002"
     id="namedview41"
     showgrid="false"
     inkscape:zoom="13.906433"
     inkscape:cx="28.169648"
     inkscape:cy="27.262023"
     inkscape:window-x="0"
     inkscape:window-y="0"
     inkscape:window-maximized="1"
     inkscape:current-layer="layer1" />
  <defs
     id="defs2455">
    <linearGradient
       id="linearGradient5060">
      <stop
         id="stop5062"
         style="stop-color:#000000;stop-opacity:1"
         offset="0" />
      <stop
         id="stop5064"
         style="stop-color:#000000;stop-opacity:0"
         offset="1" />
    </linearGradient>
    <radialGradient
       cx="62.71241"
       cy="108.02493"
       r="47.38271"
       fx="62.71241"
       fy="108.02493"
       id="radialGradient2470"
       xlink:href="#linearGradient5060"
       gradientUnits="userSpaceOnUse"
       gradientTransform="matrix(0.34708863,0,0,0.09681787,2.1862356,31.803248)" />
    <linearGradient
       x1="27.405413"
       y1="52.355087"
       x2="37.462498"
       y2="68.298302"
       id="linearGradient2474"
       xlink:href="#linearGradient2793"
       gradientUnits="userSpaceOnUse"
       spreadMethod="reflect" />
    <linearGradient
       id="linearGradient4294">
      <stop
         id="stop4296"
         style="stop-color:#e6e7e7;stop-opacity:1"
         offset="0" />
      <stop
         id="stop4298"
         style="stop-color:#676b73;stop-opacity:1"
         offset="1" />
    </linearGradient>
    <linearGradient
       x1="29.232977"
       y1="1.2616314"
       x2="29.232977"
       y2="57.745785"
       id="linearGradient2505"
       xlink:href="#linearGradient4294"
       gradientUnits="userSpaceOnUse"
       gradientTransform="matrix(0.7832927,0,0,0.7832927,0.54557311,0.17949926)" />
    <linearGradient
       id="linearGradient2338">
      <stop
         id="stop3317"
         style="stop-color:#e7e7d6;stop-opacity:1"
         offset="0" />
      <stop
         id="stop2342"
         style="stop-color:#cccccc;stop-opacity:1"
         offset="1" />
    </linearGradient>
    <linearGradient
       x1="4.8849959"
       y1="38.13002"
       x2="35.514687"
       y2="39.751118"
       id="linearGradient2503"
       xlink:href="#linearGradient2338"
       gradientUnits="userSpaceOnUse"
       gradientTransform="matrix(0.9475723,0,0,1.1088253,4.2222731,-13.804097)" />
    <linearGradient
       x1="97.717728"
       y1="17.833755"
       x2="62.373119"
       y2="17.833755"
       id="linearGradient2499"
       xlink:href="#linearGradient2793"
       gradientUnits="userSpaceOnUse"
       gradientTransform="matrix(0.4619808,0,0,0.4451681,-5.9980172,-4.5012223)"
       spreadMethod="reflect" />
    <linearGradient
       x1="32.626884"
       y1="37.21664"
       x2="63.999931"
       y2="37.21664"
       id="linearGradient2495"
       xlink:href="#linearGradient2793"
       gradientUnits="userSpaceOnUse"
       gradientTransform="matrix(0.4481803,0,0,0.404684,-5.1147529,-3.6093511)"
       spreadMethod="reflect" />
    <linearGradient
       id="linearGradient4302">
      <stop
         id="stop4304"
         style="stop-color:#c0c0c0;stop-opacity:1"
         offset="0" />
      <stop
         id="stop4306"
         style="stop-color:#abacb0;stop-opacity:1"
         offset="1" />
    </linearGradient>
    <linearGradient
       x1="63.999081"
       y1="6.4738212"
       x2="63.999081"
       y2="31.225994"
       id="linearGradient2492"
       xlink:href="#linearGradient4302"
       gradientUnits="userSpaceOnUse"
       gradientTransform="matrix(0.4303661,0,0,0.4303661,-3.9746958,-5.3456424)" />
    <linearGradient
       id="linearGradient2793">
      <stop
         id="stop2795"
         style="stop-color:#555753;stop-opacity:1"
         offset="0" />
      <stop
         id="stop2797"
         style="stop-color:#d3d7cf;stop-opacity:0"
         offset="1" />
    </linearGradient>
    <linearGradient
       x1="92.004761"
       y1="47.258526"
       x2="55.992207"
       y2="10.900407"
       id="linearGradient2489"
       xlink:href="#linearGradient2793"
       gradientUnits="userSpaceOnUse"
       gradientTransform="matrix(0.3756602,0,0,0.3756602,-0.4739172,-0.08930123)"
       spreadMethod="reflect" />
    <linearGradient
       inkscape:collect="always"
       xlink:href="#linearGradient4294"
       id="linearGradient856"
       x1="13.81517"
       y1="38.352959"
       x2="40.43726"
       y2="9.1160069"
       gradientUnits="userSpaceOnUse" />
    <linearGradient
       gradientTransform="matrix(0.84029961,0,0,0.74941993,-1.6842167,1.1670377)"
       x1="27.405413"
       y1="52.355087"
       x2="37.462498"
       y2="68.298302"
       id="linearGradient2781"
       xlink:href="#linearGradient2793"
       gradientUnits="userSpaceOnUse"
       spreadMethod="reflect" />
    <linearGradient
       x1="63.999081"
       y1="6.4738212"
       x2="63.999081"
       y2="31.225994"
       id="linearGradient2857"
       xlink:href="#linearGradient4302"
       gradientUnits="userSpaceOnUse"
       gradientTransform="matrix(0.42758831,0,0,0.42758831,-3.7941364,-5.1562346)" />
    <linearGradient
       x1="32.626884"
       y1="37.21664"
       x2="63.999931"
       y2="37.21664"
       id="linearGradient3961"
       xlink:href="#linearGradient2793"
       gradientUnits="userSpaceOnUse"
       gradientTransform="matrix(0.44528752,0,0,0.40207197,-4.9268349,-3.4311499)"
       spreadMethod="reflect" />
  </defs>
  <g
     transform="translate(0,0.9999999)"
     id="layer1">
    <path
       d="m 40.216894,4.115691 a 16.456148,3.5712952 0 1 1 -32.9122957,0 16.456148,3.5712952 0 1 1 32.9122957,0 z"
       id="path18342"
       style="color:#000000;display:inline;overflow:visible;visibility:visible;opacity:0.77272728;fill:#c6c6c6;fill-opacity:0.513089;fill-rule:evenodd;stroke:#636363;stroke-width:0.42180741;stroke-linecap:round;stroke-linejoin:round;stroke-miterlimit:4;stroke-dasharray:none;stroke-dashoffset:0;stroke-opacity:1;marker:none"
       inkscape:connector-curvature="0" />
    <path
       d="m 40.399,42.262006 a 16.446,4.5875 0 0 1 -32.8919998,0 16.446,4.5875 0 1 1 32.8919998,0 z"
       id="path12941"
       style="fill:url(#radialGradient2470);fill-opacity:1;fill-rule:evenodd;stroke:none;stroke-width:1.05496335;marker:none;visibility:visible;display:inline;overflow:visible" />
    <path
       style="fill:url(#linearGradient856);fill-opacity:1;stroke:#000000;stroke-width:0.30000001;stroke-linecap:butt;stroke-linejoin:miter;stroke-miterlimit:4;stroke-dasharray:none;stroke-opacity:1"
       d="M 6.4539531,8.1092785 9.5639188,41.462994 c 3.5528092,2.621626 9.2674082,2.878894 15.2447422,2.66064 5.977334,-0.218254 9.495992,-0.160889 12.525845,-3.029605 L 40.509169,8.1092785 Z"
       id="path846"
       inkscape:connector-curvature="0"
       sodipodi:nodetypes="cczccc" />
    <path
       inkscape:connector-curvature="0"
       d="m 37.248438,40.984563 a 13.676921,3.2001721 0 1 1 -27.3538407,0 13.676921,3.2001721 0 1 1 27.3538407,0 z"
       id="path3037"
       style="color:#000000;display:inline;overflow:visible;visibility:visible;opacity:0.5;fill:url(#linearGradient2781);fill-opacity:1;fill-rule:evenodd;stroke:none;stroke-width:0.37323555;marker:none" />
    <path
       inkscape:connector-curvature="0"
       d="m 36.43785,2.1789391 c 0.01834,0.00478 0.03902,0.009 0.05738,0.013822 0.08203,0.021607 0.161836,0.046594 0.243843,0.069108 0.01969,0.00539 0.03769,0.00838 0.05738,0.013823 0.04773,0.013241 0.09586,0.027869 0.143437,0.041465 0.01396,0.00397 0.02909,0.00982 0.04303,0.013821 0.0091,0.00264 0.01956,-0.00265 0.02868,0 0.0251,0.00726 0.04669,0.020281 0.07172,0.027643 0.02938,0.00868 0.0568,0.018812 0.08607,0.027643 0.02029,0.00609 0.03714,0.00766 0.05737,0.013822 0.047,0.014386 0.09685,0.026643 0.143438,0.041465 0.01234,0.0039 0.03073,0.00988 0.04303,0.013822 0.03912,0.012602 0.076,0.028529 0.114748,0.041465 0.01387,0.0046 0.02921,0.00918 0.04303,0.013821 0.09161,0.031054 0.183595,0.063629 0.272529,0.096752 0.02355,0.00871 0.04838,0.018779 0.07172,0.027643 0.02736,0.010451 0.04468,0.016976 0.07172,0.027643 0.05574,0.021988 0.117872,0.04615 0.172125,0.069109 0.01828,0.00767 0.03927,0.019858 0.05737,0.027643 0.0042,0.00183 0.01016,-0.00183 0.01434,0 0.02718,0.011905 0.05932,0.029292 0.08606,0.041465 0.0144,0.00656 0.02877,0.00719 0.04303,0.013822 0.0053,0.00243 0.0091,0.01138 0.01434,0.013822 0.0513,0.024079 0.108339,0.043953 0.157782,0.069108 0.01315,0.00669 0.03002,0.020873 0.04303,0.027643 0.01665,0.00864 0.04096,0.018872 0.05737,0.027643 0.0095,0.00513 0.01925,0.00865 0.02869,0.013822 0.01001,0.00545 0.01878,0.00832 0.02869,0.013822 0.0094,0.00522 0.0051,0.00856 0.01434,0.013822 0.0094,0.00525 0.01942,0.00852 0.02869,0.013822 0.0092,0.0053 0.01959,0.00847 0.02869,0.013822 0.0047,0.00274 0.0096,0.011069 0.01434,0.013822 0.02264,0.013436 0.04964,0.027732 0.07172,0.041465 0.0094,0.00579 0.01942,0.00798 0.02868,0.013822 0.01223,0.00776 0.01664,0.01979 0.02869,0.027643 0.01377,0.00898 0.02951,0.018542 0.04303,0.027643 0.04661,0.031203 0.09989,0.064001 0.143434,0.096752 0.0039,0.003 0.01045,0.010812 0.01435,0.013822 0.04393,0.033415 0.08858,0.061658 0.129095,0.096752 0.0029,0.00253 -0.0028,0.011287 0,0.013821 0.01238,0.010839 0.03099,0.01664 0.04303,0.027643 0.007,0.00642 0.0075,0.021162 0.01435,0.027643 0.0094,0.0089 0.01947,0.01864 0.02868,0.027643 0.0034,0.00329 0.01103,-0.0033 0.01434,0 0.0034,0.00338 0.01094,0.010421 0.01434,0.013822 0.0092,0.00928 0.01976,0.018251 0.02868,0.027643 0.0022,0.00229 -0.0022,0.01152 0,0.013822 0.0038,0.00404 0.01059,0.00976 0.01434,0.013821 0.04321,0.046381 0.07764,0.088995 0.114747,0.1382172 0.0076,0.010024 0.02138,0.0175 0.02868,0.027643 0.0022,0.00311 -0.0022,0.0107 0,0.013822 0.0031,0.00436 0.0113,0.00944 0.01435,0.013821 0.0087,0.012581 0.02041,0.028698 0.02869,0.041465 0.0034,0.00656 0.01115,0.00722 0.01434,0.013822 0.0064,0.013104 0.0087,0.028392 0.01434,0.041465 0.01395,0.033332 0.01992,0.062807 0.02869,0.096752 0.0055,0.019726 0.01079,0.049152 0.01434,0.069108 0.0011,0.00684 -8.94e-4,0.00697 0,0.013822 0.0016,0.010003 0.01326,0.017555 0.01435,0.027643 0.0014,0.017149 2.2e-5,0.038111 0,0.055287 -0.0011,0.011035 0.0015,0.030543 0,0.041465 -0.0011,0.00726 -0.01308,0.020439 -0.01435,0.027643 -0.0019,0.010808 0.0023,0.016948 0,0.027643 -0.01015,0.050089 -0.02445,0.090525 -0.04303,0.1382173 -0.0027,0.00681 0.0028,0.00706 0,0.013821 -0.0043,0.01087 -0.0096,0.016896 -0.01434,0.027643 -0.0045,0.010075 -0.0095,0.017675 -0.01434,0.027643 -0.0063,0.01334 -0.0075,0.014491 -0.01434,0.027643 -0.0034,0.00657 -0.01073,0.021115 -0.01434,0.027643 -0.009,0.016324 -0.01869,0.039252 -0.02868,0.055287 -0.002,0.0032 -0.01227,-0.00318 -0.01435,0 -0.0041,0.00639 0.0042,0.00748 0,0.013821 -0.0211,0.031719 -0.04702,0.066158 -0.07171,0.096752 -0.0049,0.00612 -0.0093,0.00774 -0.01435,0.013822 -0.0051,0.00607 -0.0091,0.021613 -0.01434,0.027643 -0.04171,0.048263 -0.0935,0.092692 -0.143434,0.1382167 -0.0063,0.00568 -0.008,0.00818 -0.01435,0.013822 -0.01018,0.00904 -0.03254,0.018712 -0.04303,0.027643 -0.0066,0.00557 -0.0076,0.02212 -0.01435,0.027643 -0.02417,0.019892 -0.06045,0.035918 -0.08606,0.055287 -0.0043,0.00322 -0.01001,0.010619 -0.01435,0.013821 -0.04463,0.033161 -0.09492,0.065088 -0.143435,0.096752 -0.01095,0.00715 -0.01755,0.020568 -0.02868,0.027643 -0.02,0.012581 -0.05116,0.029118 -0.07172,0.041466 -0.167843,0.1008143 -0.362613,0.1899713 -0.559405,0.2764334 -0.0387,0.016865 -0.0753,0.038922 -0.114747,0.055287 -0.04401,0.018368 -0.08429,0.037526 -0.129095,0.055287 -0.04009,0.015891 -0.07414,0.026042 -0.114752,0.041465 -0.02031,0.00771 -0.0513,0.020045 -0.07172,0.027643 -0.0039,0.00145 -0.01041,-0.00145 -0.01434,0 -0.03678,0.013634 -0.06334,0.02819 -0.100403,0.041465 -0.06177,0.022111 -0.124225,0.047952 -0.186469,0.069109 -0.103756,0.035282 -0.21192,0.063924 -0.315563,0.096752 -0.06219,0.019696 -0.124832,0.036402 -0.186469,0.055286 -0.04728,0.014488 -0.09668,0.041251 -0.143437,0.055287 -0.07515,0.02256 -0.141938,0.033807 -0.215156,0.055288 -0.0346,0.00903 -0.08008,0.018729 -0.11475,0.027643 -0.05577,0.01434 -0.101831,0.027434 -0.15778,0.041465 -0.03478,0.00872 -0.07991,0.01904 -0.11475,0.027644 -0.05605,0.013841 -0.101558,0.027926 -0.157781,0.041465 -0.06078,0.014638 -0.125495,0.027178 -0.186468,0.041465 -0.18292,0.042863 -0.360487,0.084602 -0.545062,0.1243957 -0.06152,0.013265 -0.124767,0.028533 -0.186468,0.041465 -0.09718,0.020368 -0.203616,0.03573 -0.301218,0.055286 -0.04865,0.00975 -0.09469,0.031917 -0.143437,0.041465 -0.0047,9.164e-4 -0.0097,-9.09e-4 -0.01434,0 -0.19068,0.037276 -0.381581,0.062432 -0.573748,0.096753 -0.06259,0.011179 -0.123723,0.03059 -0.186468,0.041465 -0.125491,0.021749 -0.246873,0.034733 -0.372937,0.055287 -0.09455,0.015416 -0.19202,0.040527 -0.286875,0.055287 -0.189709,0.029522 -0.382893,0.055943 -0.573748,0.08293 -0.06362,0.00904 -0.122725,0.018876 -0.186468,0.027643 -0.127475,0.017447 -0.259353,0.025086 -0.387281,0.041465 -0.06397,0.00824 -0.12239,0.019667 -0.186468,0.027643 -0.06889,0.00853 -0.14615,0.019415 -0.215156,0.027643 -0.114418,0.013645 -0.229523,0.028614 -0.344249,0.041465 -0.0048,5.439e-4 -0.0095,-5.432e-4 -0.01434,0 -0.519468,0.058038 -1.038982,0.1088953 -1.563465,0.1520384 -0.129981,0.010789 -0.257074,0.017686 -0.38728,0.027643 -0.455677,0.034516 -0.919435,0.071458 -1.376998,0.096752 -0.126101,0.00703 -0.261105,0.00743 -0.38728,0.013822 -0.06541,0.00328 -0.13539,0.010709 -0.200812,0.013822 -0.126205,0.00605 -0.261047,0.00836 -0.38728,0.013822 -0.5235,0.022398 -1.040733,0.041537 -1.563466,0.055287 -0.130687,0.00347 -0.256722,0.010816 -0.38728,0.013822 -0.265758,0.0061 -0.523878,0.0094 -0.788905,0.013821 -0.136208,5.506e-4 -0.27957,-9.99e-5 -0.415968,0 -0.0047,3e-6 -0.0096,-1.5e-6 -0.01434,0 -0.06585,4.02e-5 -0.134925,6.93e-5 -0.200812,0 -0.0047,-6e-6 -0.0096,6.7e-6 -0.01434,0 -0.277684,-3.249e-4 -0.553707,0.00243 -0.831935,0 -0.0047,-4.32e-5 -0.0096,4.39e-5 -0.01434,0 -0.136794,-0.00127 -0.279077,-0.011986 -0.415967,-0.013821 -0.141571,-0.00185 -0.288677,0.00247 -0.430312,0 -0.141682,-0.00253 -0.274246,-0.010625 -0.415968,-0.013822 -0.0047,-1.073e-4 -0.0096,1.073e-4 -0.01434,0 -0.07083,-0.00156 -0.129974,0.00174 -0.200812,0 -0.141714,-0.00354 -0.288568,-0.00957 -0.430294,-0.013818 -0.141726,-0.00425 -0.274279,-0.00883 -0.415968,-0.013822 -0.0047,-1.661e-4 -0.0096,1.677e-4 -0.01434,0 -0.136965,-0.00485 -0.279066,-0.00825 -0.415968,-0.013821 -0.207628,-0.00833 -0.423729,-0.017575 -0.631123,-0.027643 -0.0047,-2.317e-4 -0.0096,2.325e-4 -0.01434,0 -0.560854,-0.02734 -1.120383,-0.069154 -1.678217,-0.1105732 -0.0047,-3.517e-4 -0.0097,3.517e-4 -0.01434,0 -0.417245,-0.031078 -0.833279,-0.070639 -1.247903,-0.1105739 -0.0046,-4.516e-4 -0.0097,4.515e-4 -0.01434,0 -0.279447,-0.026987 -0.553987,-0.051599 -0.831938,-0.08293 -0.06955,-0.00787 -0.131418,-0.019477 -0.20084,-0.027637 -0.104078,-0.012172 -0.211727,-0.014828 -0.315562,-0.027644 -0.311505,-0.038448 -0.623243,-0.079905 -0.932342,-0.124395 -0.103032,-0.01483 -0.212822,-0.039759 -0.315562,-0.055287 -0.136986,-0.020705 -0.265185,-0.033314 -0.401623,-0.055287 -0.06822,-0.010988 -0.132736,-0.030154 -0.200812,-0.041465 -0.03823,-0.00635 -0.07657,-0.00737 -0.11475,-0.013822 -0.03401,-0.00575 -0.06643,-0.00799 -0.100406,-0.013822 -0.06793,-0.011637 -0.133031,-0.029496 -0.200812,-0.041464 -0.03389,-0.00598 -0.06655,-0.00775 -0.100406,-0.013823 -0.0677,-0.012136 -0.133265,-0.028992 -0.200812,-0.041464 -0.03377,-0.00624 -0.06667,-0.0075 -0.100407,-0.013822 -0.06747,-0.012643 -0.133504,-0.028479 -0.200812,-0.041465 -0.269231,-0.051945 -0.536749,-0.1082672 -0.803248,-0.165861 -0.06662,-0.014398 -0.134367,-0.026704 -0.200812,-0.041464 -0.06644,-0.014761 -0.134551,-0.026337 -0.200812,-0.041466 -0.03313,-0.00756 -0.06732,-0.019986 -0.100406,-0.027643 -0.08787,-0.023398 -0.18239,-0.04484 -0.27253,-0.069109 -0.04507,-0.012134 -0.08361,-0.029076 -0.129094,-0.041465 -0.09096,-0.024779 -0.180556,-0.04316 -0.272531,-0.069109 -0.04599,-0.012974 -0.09735,-0.028161 -0.143436,-0.041464 -0.04608,-0.013305 -0.08302,-0.027807 -0.129094,-0.041466 C 10.042366,5.7865678 9.9909648,5.7728004 9.9450031,5.7587619 9.8990421,5.7447226 9.8473091,5.7317398 9.8015665,5.7172966 9.7329532,5.6956308 9.6685801,5.670835 9.6007544,5.6481879 9.5555378,5.6330906 9.5163964,5.6222879 9.4716611,5.6067234 9.4492926,5.5989405 9.4221707,5.5869836 9.3999424,5.5790792 9.3554864,5.5632718 9.3146664,5.5539265 9.270849,5.5376147 9.1832149,5.5049904 9.0971127,5.4618331 9.0126623,5.4270407 8.8648737,5.3661546 8.7168534,5.3019022 8.5823508,5.233537 8.5285495,5.2061908 8.4757414,5.1792693 8.4245694,5.1506066 c -0.00365,-0.00205 -0.010722,0.00206 -0.014343,0 -0.029579,-0.016691 -0.043102,-0.038133 -0.07172,-0.055287 -0.00881,-0.00525 -0.019968,-0.00852 -0.028685,-0.013821 -0.096061,-0.058429 -0.1891361,-0.1155764 -0.2725308,-0.1796827 -0.00757,-0.00582 -0.00685,-0.00795 -0.014342,-0.013823 -0.010453,-0.00823 -0.018463,-0.019317 -0.028685,-0.027643 -0.00738,-0.00592 -0.00715,-0.00785 -0.014343,-0.013822 -0.06076,-0.050206 -0.1202233,-0.098171 -0.1721247,-0.1520392 -0.00626,-0.00639 -0.00826,-0.00738 -0.014343,-0.013822 -0.010677,-0.011278 -0.018426,-0.03002 -0.028685,-0.041465 -0.00231,-0.00262 -0.012033,0.00263 -0.014343,0 -0.025645,-0.028835 -0.034444,-0.053024 -0.057378,-0.082931 -0.00529,-0.00677 -0.00922,-0.007 -0.014343,-0.013822 -0.017427,-0.023224 -0.027314,-0.045223 -0.043035,-0.069109 -0.00469,-0.007 -0.00981,-0.00677 -0.014343,-0.013821 -0.018135,-0.028239 -0.041716,-0.05375 -0.057378,-0.08293 -0.00391,-0.00729 -0.010588,-0.020289 -0.014344,-0.027643 -0.013145,-0.025742 -0.017534,-0.056444 -0.028687,-0.082929 -0.00478,-0.011351 -0.00994,-0.016155 -0.014344,-0.027643 -0.00203,-0.010648 0.00158,-0.030904 0,-0.041465 -0.00158,-0.010561 -0.013216,-0.017166 -0.014344,-0.027643 -0.00151,-0.013969 7.147e-4,-0.027647 0,-0.041465 -3.594e-4,-0.00691 1.665e-4,-0.00694 0,-0.013821 -1.623e-4,-0.00687 -2.95e-5,-0.02081 0,-0.027643 2.68e-5,-0.00684 -2.158e-4,-0.00702 0,-0.013821 4.415e-4,-0.013592 -0.00119,-0.028023 0,-0.041465 5.912e-4,-0.00673 -7.749e-4,-0.00713 0,-0.013822 0.00117,-0.010026 0.012762,-0.017701 0.014344,-0.027643 0.00158,-0.00994 -0.00199,-0.031606 0,-0.041465 0.00132,-0.00658 -0.0015,-0.00728 0,-0.013822 0.00151,-0.00653 0.012666,-0.021144 0.014344,-0.027643 0.00167,-0.0065 -0.00184,-0.00735 0,-0.013821 0.00185,-0.00646 -0.00202,-0.0074 0,-0.013822 0.00805,-0.025735 0.017971,-0.057773 0.028687,-0.08293 0.00269,-0.00628 0.011492,-0.00758 0.014344,-0.013822 0.00425,-0.00937 0.00971,-0.018358 0.014343,-0.027643 0.00462,-0.00929 0.00936,-0.01844 0.014343,-0.027643 0.00499,-0.0092 0.00901,-0.01852 0.014343,-0.027643 0.00179,-0.00304 -0.00179,-0.01079 0,-0.013822 0.00723,-0.01215 0.020847,-0.029457 0.028685,-0.041465 0.011794,-0.017979 0.015587,-0.023806 0.028685,-0.041465 0.0044,-0.00589 0.00983,-0.021792 0.014342,-0.027643 0.00447,-0.00586 0.00971,-0.00799 0.014343,-0.013822 0.00462,-0.00582 0.00956,-0.00804 0.014342,-0.013821 0.00954,-0.011586 0.018612,-0.030018 0.028685,-0.041465 0.00708,-0.00799 0.021354,-0.00589 0.028685,-0.013822 0.010342,-0.011377 0.017837,-0.016404 0.028685,-0.027644 0.00544,-0.0056 0.00878,-0.022072 0.014343,-0.027643 0.011102,-0.01117 0.017092,-0.016611 0.028685,-0.027643 0.00581,-0.0055 0.00841,-0.00835 0.014343,-0.013822 0.011832,-0.010964 0.030727,-0.030638 0.043035,-0.041465 0.00618,-0.0054 0.00806,-0.00846 0.014342,-0.013823 0.018791,-0.016139 0.037589,-0.025631 0.057378,-0.041465 0.00663,-0.00526 0.021965,-0.00859 0.028685,-0.013821 0.026807,-0.020977 0.043281,-0.048669 0.07172,-0.069109 0.021383,-0.015282 0.04948,-0.026483 0.07172,-0.041465 0.022188,-0.015029 0.048728,-0.026734 0.07172,-0.041465 0.015363,-0.00979 0.027329,-0.017985 0.043035,-0.027643 0.080659,-0.050175 0.1553183,-0.1053329 0.2438427,-0.1520388 0.068539,-0.03616 0.1430202,-0.062628 0.2151561,-0.096752 0.054099,-0.025593 0.1021324,-0.058464 0.1577807,-0.08293 0.037097,-0.016311 0.077116,-0.025648 0.1147493,-0.041465 0.01882,-0.00791 0.038445,-0.019858 0.057378,-0.027644 0.037857,-0.01557 0.076542,-0.026382 0.1147493,-0.041465 0.019103,-0.00754 0.038207,-0.020223 0.057378,-0.027643 0.038341,-0.014841 0.076239,-0.027105 0.1147493,-0.041465 0.038513,-0.01436 0.076191,-0.02758 0.1147508,-0.041465 0.038557,-0.013884 0.076263,-0.028051 0.1147494,-0.041465 0.03849,-0.013414 0.076457,-0.028517 0.1147493,-0.041465 0.019156,-0.00646 0.038289,-0.00747 0.057378,-0.013822 0.038148,-0.012717 0.076975,-0.029208 0.1147493,-0.041465 0.056662,-0.018385 0.1166523,-0.037921 0.1721239,-0.055287 0.02089,-0.00602 0.03652,-0.00789 0.05738,-0.013821 0.06258,-0.017788 0.123862,-0.038098 0.186468,-0.055287 0.0042,-0.00115 0.01017,0.00115 0.01434,0 0.07933,-0.021735 0.163519,-0.04776 0.243844,-0.069109 -2.918457,0.3390627 -4.7047396,0.9038106 -4.7047396,1.9073956 3e-7,0.1954378 0,3.2738113 0,3.4692498 3e-7,2.1200096 7.9533116,3.8424357 17.7575226,3.8424347 9.804211,1e-6 17.757523,-1.7224251 17.757523,-3.8424347 0,-0.1954385 0,-3.2738113 0,-3.4692498 0,-1.0252847 -1.861457,-1.6040601 -4.891208,-1.9488606 z"
       id="path18314"
       style="color:#000000;display:inline;overflow:visible;visibility:visible;fill:#ffffff;fill-opacity:1;fill-rule:evenodd;stroke:#808389;stroke-width:0.18626685;stroke-linecap:round;stroke-linejoin:round;stroke-miterlimit:4;stroke-dasharray:none;stroke-dashoffset:0;stroke-opacity:1;marker:none" />
    <path
       inkscape:connector-curvature="0"
       d="m 36.43785,2.1789391 c 0.01834,0.00478 0.03902,0.009 0.05738,0.013822 0.08203,0.021607 0.161836,0.046594 0.243843,0.069108 0.01969,0.00539 0.03769,0.00838 0.05738,0.013823 0.04773,0.013241 0.09586,0.027869 0.143437,0.041465 0.01396,0.00397 0.02909,0.00982 0.04303,0.013821 0.0091,0.00264 0.01956,-0.00265 0.02868,0 0.0251,0.00726 0.04669,0.020281 0.07172,0.027643 0.02938,0.00868 0.0568,0.018812 0.08607,0.027643 0.02029,0.00609 0.03714,0.00766 0.05737,0.013822 0.047,0.014386 0.09685,0.026643 0.143438,0.041465 0.01234,0.0039 0.03073,0.00988 0.04303,0.013822 0.03912,0.012602 0.076,0.028529 0.114748,0.041465 0.01387,0.0046 0.02921,0.00918 0.04303,0.013821 0.09161,0.031054 0.183595,0.063629 0.272529,0.096752 0.02355,0.00871 0.04838,0.018779 0.07172,0.027643 0.02736,0.010451 0.04468,0.016976 0.07172,0.027643 0.05574,0.021988 0.117872,0.04615 0.172125,0.069109 0.01828,0.00767 0.03927,0.019858 0.05737,0.027643 0.0042,0.00183 0.01016,-0.00183 0.01434,0 0.02718,0.011905 0.05932,0.029292 0.08606,0.041465 0.0144,0.00656 0.02877,0.00719 0.04303,0.013822 0.0053,0.00243 0.0091,0.01138 0.01434,0.013822 0.0513,0.024079 0.108339,0.043953 0.157782,0.069108 0.01315,0.00669 0.03002,0.020873 0.04303,0.027643 0.01665,0.00864 0.04096,0.018872 0.05737,0.027643 0.0095,0.00513 0.01925,0.00865 0.02869,0.013822 0.01001,0.00545 0.01878,0.00832 0.02869,0.013822 0.0094,0.00522 0.0051,0.00856 0.01434,0.013822 0.0094,0.00525 0.01942,0.00852 0.02869,0.013822 0.0092,0.0053 0.01959,0.00847 0.02869,0.013822 0.0047,0.00274 0.0096,0.011069 0.01434,0.013822 0.02264,0.013436 0.04964,0.027732 0.07172,0.041465 0.0094,0.00579 0.01942,0.00798 0.02868,0.013822 0.01223,0.00776 0.01664,0.01979 0.02869,0.027643 0.01377,0.00898 0.02951,0.018542 0.04303,0.027643 0.04661,0.031203 0.09989,0.064001 0.143434,0.096752 0.0039,0.003 0.01045,0.010812 0.01435,0.013822 0.04393,0.033415 0.08858,0.061658 0.129095,0.096752 0.0029,0.00253 -0.0028,0.011287 0,0.013821 0.01238,0.010839 0.03099,0.01664 0.04303,0.027643 0.007,0.00642 0.0075,0.021162 0.01435,0.027643 0.0094,0.0089 0.01947,0.01864 0.02868,0.027643 0.0034,0.00329 0.01103,-0.0033 0.01434,0 0.0034,0.00338 0.01094,0.010421 0.01434,0.013822 0.0092,0.00928 0.01976,0.018251 0.02868,0.027643 0.0022,0.00229 -0.0022,0.01152 0,0.013822 0.0038,0.00404 0.01059,0.00976 0.01434,0.013821 0.04321,0.046381 0.07764,0.088995 0.114747,0.1382172 0.0076,0.010024 0.02138,0.0175 0.02868,0.027643 0.0022,0.00311 -0.0022,0.0107 0,0.013822 0.0031,0.00436 0.0113,0.00944 0.01435,0.013821 0.0087,0.012581 0.02041,0.028698 0.02869,0.041465 0.0034,0.00656 0.01115,0.00722 0.01434,0.013822 0.0064,0.013104 0.0087,0.028392 0.01434,0.041465 0.01395,0.033332 0.01992,0.062807 0.02869,0.096752 0.0055,0.019726 0.01079,0.049152 0.01434,0.069108 0.0011,0.00684 -8.94e-4,0.00697 0,0.013822 0.0016,0.010003 0.01326,0.017555 0.01435,0.027643 0.0014,0.017149 2.2e-5,0.038111 0,0.055287 -0.0011,0.011035 0.0015,0.030543 0,0.041465 -0.0011,0.00726 -0.01308,0.020439 -0.01435,0.027643 -0.0019,0.010808 0.0023,0.016948 0,0.027643 -0.01015,0.050089 -0.02445,0.090525 -0.04303,0.1382173 -0.0027,0.00681 0.0028,0.00706 0,0.013821 -0.0043,0.01087 -0.0096,0.016896 -0.01434,0.027643 -0.0045,0.010075 -0.0095,0.017675 -0.01434,0.027643 -0.0063,0.01334 -0.0075,0.014491 -0.01434,0.027643 -0.0034,0.00657 -0.01073,0.021115 -0.01434,0.027643 -0.009,0.016324 -0.01869,0.039252 -0.02868,0.055287 -0.002,0.0032 -0.01227,-0.00318 -0.01435,0 -0.0041,0.00639 0.0042,0.00748 0,0.013821 -0.0211,0.031719 -0.04702,0.066158 -0.07171,0.096752 -0.0049,0.00612 -0.0093,0.00774 -0.01435,0.013822 -0.0051,0.00607 -0.0091,0.021613 -0.01434,0.027643 -0.04171,0.048263 -0.0935,0.092692 -0.143434,0.138217 -0.0063,0.00568 -0.008,0.00818 -0.01435,0.013822 -0.01018,0.00904 -0.03254,0.018712 -0.04303,0.027643 -0.0066,0.00557 -0.0076,0.02212 -0.01435,0.027643 -0.02417,0.019893 -0.06045,0.035917 -0.08606,0.055288 -0.0043,0.00322 -0.01001,0.010619 -0.01435,0.013821 -0.04463,0.033161 -0.09492,0.065087 -0.143435,0.096752 -0.01095,0.00715 -0.01755,0.020568 -0.02868,0.027643 -0.02,0.012581 -0.05116,0.029118 -0.07172,0.041466 -0.167843,0.1008147 -0.362613,0.1899717 -0.559405,0.2764335 -0.0387,0.016866 -0.0753,0.038922 -0.114747,0.055287 -0.04401,0.018368 -0.08429,0.037526 -0.129095,0.055287 -0.04009,0.015892 -0.07414,0.026042 -0.114752,0.041465 -0.02031,0.00771 -0.0513,0.020046 -0.07172,0.027643 -0.0039,0.00145 -0.01041,-0.00145 -0.01434,0 -0.03678,0.013634 -0.06334,0.02819 -0.100403,0.041465 -0.06177,0.022111 -0.124225,0.047951 -0.186469,0.069108 -0.103756,0.035283 -0.21192,0.063925 -0.315563,0.096752 -0.06219,0.019697 -0.124832,0.036402 -0.186469,0.055287 -0.04728,0.014487 -0.09668,0.04125 -0.143437,0.055287 -0.07515,0.02256 -0.141938,0.033807 -0.215156,0.055288 -0.0346,0.00903 -0.08008,0.01873 -0.11475,0.027643 -0.05577,0.01434 -0.101831,0.027434 -0.15778,0.041465 -0.03478,0.00872 -0.07991,0.019039 -0.11475,0.027643 -0.05605,0.013841 -0.101558,0.027927 -0.157781,0.041465 -0.06078,0.014637 -0.125495,0.027178 -0.186468,0.041465 -0.18292,0.042863 -0.360487,0.084602 -0.545062,0.1243957 -0.06152,0.013265 -0.124767,0.028533 -0.186468,0.041465 -0.09718,0.020368 -0.203616,0.03573 -0.301218,0.055286 -0.04865,0.00975 -0.09469,0.031917 -0.143437,0.041465 -0.0047,9.165e-4 -0.0097,-9.089e-4 -0.01434,0 -0.19068,0.037276 -0.381581,0.062432 -0.573748,0.096753 -0.06259,0.011179 -0.123723,0.03059 -0.186468,0.041465 -0.125491,0.021749 -0.246873,0.034733 -0.372937,0.055287 -0.09455,0.015416 -0.19202,0.040526 -0.286875,0.055287 -0.189709,0.029522 -0.382893,0.055943 -0.573748,0.08293 -0.06362,0.00904 -0.122725,0.018876 -0.186468,0.027643 -0.127475,0.017447 -0.259353,0.025086 -0.387281,0.041465 -0.06397,0.00824 -0.12239,0.019667 -0.186468,0.027643 -0.06889,0.00853 -0.14615,0.019415 -0.215156,0.027643 -0.114418,0.013645 -0.229523,0.028614 -0.344249,0.041465 -0.0048,5.439e-4 -0.0095,-5.431e-4 -0.01434,0 -0.519468,0.058038 -1.038982,0.1088954 -1.563465,0.1520385 -0.129981,0.010789 -0.257074,0.017686 -0.38728,0.027643 -0.455677,0.034516 -0.919435,0.071458 -1.376998,0.096752 -0.126101,0.00703 -0.261105,0.00743 -0.38728,0.013822 -0.06541,0.00328 -0.13539,0.010709 -0.200812,0.013822 -0.126205,0.00605 -0.261047,0.00836 -0.38728,0.013822 -0.5235,0.022398 -1.040733,0.041537 -1.563466,0.055287 -0.130687,0.00347 -0.256722,0.010816 -0.38728,0.013822 -0.265758,0.0061 -0.523878,0.0094 -0.788905,0.013821 -0.136208,5.506e-4 -0.27957,-9.99e-5 -0.415968,0 -0.0047,2.9e-6 -0.0096,-1.5e-6 -0.01434,0 -0.06585,4.02e-5 -0.134925,6.92e-5 -0.200812,0 -0.0047,-6e-6 -0.0096,6.7e-6 -0.01434,0 -0.277684,-3.249e-4 -0.553707,0.00243 -0.831935,0 -0.0047,-4.33e-5 -0.0096,4.39e-5 -0.01434,0 -0.136794,-0.00127 -0.279077,-0.011986 -0.415967,-0.013821 -0.141571,-0.00185 -0.288677,0.00247 -0.430312,0 -0.141682,-0.00253 -0.274246,-0.010625 -0.415968,-0.013822 -0.0047,-1.073e-4 -0.0096,1.073e-4 -0.01434,0 -0.07083,-0.00156 -0.129974,0.00174 -0.200812,0 -0.141714,-0.00354 -0.288568,-0.00957 -0.430294,-0.013818 -0.141726,-0.00425 -0.274279,-0.00883 -0.415968,-0.013823 -0.0047,-1.662e-4 -0.0096,1.676e-4 -0.01434,0 -0.136965,-0.00485 -0.279066,-0.00825 -0.415968,-0.013821 -0.207628,-0.00833 -0.423729,-0.017575 -0.631123,-0.027643 -0.0047,-2.317e-4 -0.0096,2.325e-4 -0.01434,0 -0.560854,-0.02734 -1.120383,-0.069154 -1.678217,-0.1105736 -0.0047,-3.517e-4 -0.0097,3.517e-4 -0.01434,0 -0.417245,-0.031078 -0.833279,-0.070639 -1.247903,-0.1105739 -0.0046,-4.516e-4 -0.0097,4.515e-4 -0.01434,0 -0.279447,-0.026987 -0.553987,-0.051599 -0.831938,-0.08293 -0.06955,-0.00787 -0.131418,-0.019476 -0.20084,-0.027636 -0.104078,-0.012172 -0.211727,-0.014828 -0.315562,-0.027644 -0.311505,-0.038448 -0.623243,-0.079905 -0.932342,-0.124395 -0.103032,-0.01483 -0.212822,-0.039759 -0.315562,-0.055287 -0.136986,-0.020705 -0.265185,-0.033314 -0.401623,-0.055287 -0.06822,-0.010988 -0.132736,-0.030154 -0.200812,-0.041465 -0.03823,-0.00635 -0.07657,-0.00737 -0.11475,-0.013822 -0.03401,-0.00575 -0.06643,-0.00799 -0.100406,-0.013822 -0.06793,-0.011637 -0.133031,-0.029496 -0.200812,-0.041464 -0.03389,-0.00598 -0.06655,-0.00775 -0.100406,-0.013823 -0.0677,-0.012136 -0.133265,-0.028992 -0.200812,-0.041464 -0.03377,-0.00624 -0.06667,-0.0075 -0.100407,-0.013822 -0.06747,-0.012643 -0.133504,-0.028479 -0.200812,-0.041465 -0.269231,-0.051945 -0.536749,-0.1082672 -0.803248,-0.165861 -0.06662,-0.014398 -0.134367,-0.026704 -0.200812,-0.041464 -0.06644,-0.014761 -0.134551,-0.026337 -0.200812,-0.041466 -0.03313,-0.00756 -0.06732,-0.019986 -0.100406,-0.027643 -0.08787,-0.023398 -0.18239,-0.04484 -0.27253,-0.069109 -0.04507,-0.012134 -0.08361,-0.029076 -0.129094,-0.041465 -0.09096,-0.024779 -0.180556,-0.04316 -0.272531,-0.069109 -0.04598,-0.012975 -0.09735,-0.028161 -0.143436,-0.041465 -0.04608,-0.013305 -0.08302,-0.027807 -0.129094,-0.041465 C 10.042366,5.786567 9.9909648,5.7727997 9.9450031,5.7587611 9.8990399,5.7447226 9.8473091,5.731739 9.8015665,5.7172959 9.7329532,5.6956301 9.6685801,5.6708342 9.6007544,5.6481872 9.5555363,5.6330899 9.5163964,5.6222871 9.4716611,5.6067227 9.4492941,5.5989397 9.4221737,5.5869829 9.3999409,5.5790792 9.3554864,5.5632718 9.3146664,5.5539264 9.270849,5.5376145 9.1832149,5.5049904 9.0971127,5.4618331 9.0126623,5.4270405 8.8648737,5.3661546 8.7168534,5.3019024 8.5823508,5.2335369 8.5285495,5.2061907 8.4757414,5.1792695 8.4245694,5.1506066 c -0.00365,-0.00205 -0.010722,0.00206 -0.014343,0 -0.029579,-0.016691 -0.043102,-0.038133 -0.07172,-0.055287 -0.00881,-0.00525 -0.019968,-0.00852 -0.028685,-0.013821 -0.096061,-0.058429 -0.1891361,-0.1155758 -0.2725308,-0.1796823 -0.00757,-0.00582 -0.00685,-0.00795 -0.014342,-0.013822 -0.010453,-0.00823 -0.018463,-0.019317 -0.028685,-0.027643 -0.00738,-0.00592 -0.00715,-0.00785 -0.014343,-0.013822 -0.06076,-0.050206 -0.1202233,-0.098171 -0.1721247,-0.1520386 -0.00626,-0.00639 -0.00826,-0.00738 -0.014343,-0.013822 -0.010677,-0.011278 -0.018426,-0.030021 -0.028685,-0.041465 -0.00231,-0.00262 -0.012033,0.00263 -0.014343,0 -0.025645,-0.028834 -0.034444,-0.053024 -0.057378,-0.08293 -0.00529,-0.00677 -0.00922,-0.007 -0.014343,-0.013822 -0.017427,-0.023224 -0.027314,-0.045223 -0.043035,-0.069109 -0.00469,-0.007 -0.00981,-0.00677 -0.014343,-0.013821 -0.018135,-0.028239 -0.041716,-0.05375 -0.057378,-0.08293 -0.00391,-0.00729 -0.010588,-0.020289 -0.014344,-0.027643 -0.013145,-0.025742 -0.017534,-0.056444 -0.028687,-0.08293 -0.00478,-0.011351 -0.00994,-0.016155 -0.014344,-0.027643 -0.00203,-0.010648 0.00158,-0.030904 0,-0.041465 -0.00158,-0.010561 -0.013216,-0.017166 -0.014344,-0.027643 -0.00151,-0.013969 7.147e-4,-0.027647 0,-0.041465 -3.594e-4,-0.00691 1.665e-4,-0.00694 0,-0.013821 -1.623e-4,-0.00687 -2.95e-5,-0.02081 0,-0.027643 2.68e-5,-0.00684 -2.158e-4,-0.00702 0,-0.013821 4.415e-4,-0.013592 -0.00119,-0.028023 0,-0.041465 5.912e-4,-0.00673 -7.749e-4,-0.00713 0,-0.013822 0.00117,-0.010026 0.012762,-0.017701 0.014344,-0.027643 0.00158,-0.00994 -0.00199,-0.031606 0,-0.041465 0.00132,-0.00658 -0.0015,-0.00728 0,-0.013822 0.00151,-0.00653 0.012666,-0.021144 0.014344,-0.027644 0.00167,-0.0065 -0.00184,-0.00735 0,-0.013821 0.00185,-0.00646 -0.00202,-0.0074 0,-0.013823 0.00805,-0.025735 0.017971,-0.057773 0.028687,-0.08293 0.00269,-0.00628 0.011492,-0.00758 0.014344,-0.013822 0.00425,-0.00937 0.00971,-0.018358 0.014343,-0.027643 0.00462,-0.00929 0.00936,-0.01844 0.014343,-0.027643 0.00499,-0.0092 0.00901,-0.01852 0.014343,-0.027644 0.00179,-0.00304 -0.00179,-0.01079 0,-0.013822 0.00723,-0.01215 0.020847,-0.029457 0.028685,-0.041465 0.011794,-0.017978 0.015587,-0.023806 0.028685,-0.041465 0.0044,-0.00589 0.00983,-0.021793 0.014342,-0.027644 0.00447,-0.00586 0.00971,-0.00799 0.014343,-0.013822 0.00462,-0.00582 0.00956,-0.00804 0.014342,-0.013821 0.00954,-0.011586 0.018612,-0.030018 0.028685,-0.041465 0.00708,-0.00799 0.021354,-0.00589 0.028685,-0.013822 0.010342,-0.011377 0.017837,-0.016404 0.028685,-0.027643 0.00544,-0.0056 0.00878,-0.022072 0.014343,-0.027643 0.011102,-0.01117 0.017092,-0.016611 0.028685,-0.027643 0.00581,-0.0055 0.00841,-0.00835 0.014343,-0.013822 0.011832,-0.010964 0.030727,-0.030638 0.043035,-0.041465 0.00618,-0.0054 0.00806,-0.00846 0.014342,-0.013822 0.018791,-0.016139 0.037589,-0.025631 0.057378,-0.041465 0.00663,-0.00526 0.021965,-0.00859 0.028685,-0.013821 0.026807,-0.020977 0.043281,-0.048669 0.07172,-0.069109 0.021383,-0.015282 0.04948,-0.026483 0.07172,-0.041465 0.022188,-0.01503 0.048728,-0.026734 0.07172,-0.041465 0.015363,-0.00979 0.027329,-0.017985 0.043035,-0.027643 0.080659,-0.050175 0.1553183,-0.105333 0.2438427,-0.1520389 0.068539,-0.03616 0.1430202,-0.062628 0.2151561,-0.096752 0.054099,-0.025593 0.1021324,-0.058464 0.1577807,-0.08293 0.037097,-0.016311 0.077116,-0.025648 0.1147493,-0.041465 0.01882,-0.00791 0.038445,-0.019858 0.057378,-0.027643 0.037857,-0.01557 0.076542,-0.026382 0.1147493,-0.041465 0.019103,-0.00754 0.038207,-0.020223 0.057378,-0.027643 0.038341,-0.014841 0.076239,-0.027105 0.1147493,-0.041465 0.038513,-0.01436 0.076191,-0.02758 0.1147508,-0.041465 0.038557,-0.013884 0.076263,-0.028051 0.1147494,-0.041465 0.03849,-0.013414 0.076457,-0.028517 0.1147493,-0.041465 0.019156,-0.00646 0.038289,-0.00747 0.057378,-0.013822 0.038148,-0.012717 0.076975,-0.029208 0.1147493,-0.041465 0.056662,-0.018385 0.1166523,-0.037921 0.1721239,-0.055287 0.02089,-0.00602 0.03652,-0.00789 0.05738,-0.013821 0.06258,-0.017788 0.123862,-0.038098 0.186468,-0.055287 0.0042,-0.00115 0.01017,0.00115 0.01434,0 0.07933,-0.021735 0.163519,-0.04776 0.243844,-0.069109 -2.918457,0.3390627 -4.7047396,0.9038106 -4.7047396,1.9073957 3e-7,0.1954377 0,3.2738112 0,3.4692501 3e-7,2.1200096 7.9533116,3.8424354 17.7575226,3.8424344 9.804211,10e-7 17.757523,-1.7224248 17.757523,-3.8424344 0,-0.1954389 0,-3.2738117 0,-3.4692501 0,-1.0252848 -1.861457,-1.6040602 -4.891208,-1.9488603 z"
       id="path3959"
       style="color:#000000;display:inline;overflow:visible;visibility:visible;fill:#00083a;fill-opacity:1;fill-rule:evenodd;stroke:#808389;stroke-width:0;stroke-linecap:round;stroke-linejoin:round;stroke-miterlimit:4;stroke-dasharray:none;stroke-dashoffset:0;stroke-opacity:1;marker:none" />
    <path
       inkscape:connector-curvature="0"
       d="m 23.040818,0.29918641 c -0.579739,0.003143 -1.158331,0.0155963 -1.73559,0.0276436 C 16.983583,0.48054029 12.547657,0.82701429 8.611038,2.0683652 7.3046031,2.5161382 5.6364425,3.2369743 5.8283565,4.3351257 6.2433541,5.5201493 8.1778127,6.0941135 9.7298482,6.5465993 14.404763,7.7311526 19.511787,7.9922507 24.489533,7.970235 29.089064,7.8862268 33.806688,7.5822145 38.058689,6.366917 39.457322,5.9176709 41.226925,5.279758 41.329057,4.1416221 41.329236,4.0087621 41.302894,3.8677762 41.242993,3.7407922 40.562846,2.5910068 38.62853,2.0687064 36.997255,1.6260704 32.543639,0.57662967 27.761547,0.27359525 23.040818,0.29918641 Z m -0.84628,0.60815501 c 4.566467,-0.0607547 9.223132,0.16271828 13.54047,1.09191518 1.477661,0.3662192 3.228016,0.8040705 3.844116,1.7553573 0.05424,0.1050623 0.08622,0.2079771 0.08606,0.3178995 -0.09252,0.9416487 -1.702223,1.4665985 -2.969151,1.8382873 -3.851606,1.0054888 -8.12616,1.2712 -12.292567,1.3407054 -4.509,0.018214 -9.133647,-0.208614 -13.36834,-1.1886664 C 9.6292406,5.6884707 7.8824897,5.2188157 7.5065717,4.2383737 7.332729,3.3298067 8.833311,2.7290905 10.016722,2.3586211 13.582641,1.3315762 17.605694,1.0483374 21.520384,0.92116371 c 0.2241,-0.004272 0.449574,-0.0108339 0.674154,-0.0138223 z"
       id="path18219"
       style="color:#000000;display:inline;overflow:visible;visibility:visible;fill:#323232;fill-opacity:1;fill-rule:evenodd;stroke:url(#linearGradient2857);stroke-width:0.18626684;stroke-linecap:round;stroke-linejoin:round;stroke-miterlimit:4;stroke-dasharray:none;stroke-dashoffset:0;stroke-opacity:1;marker:none" />
  </g>
</svg>
