<?xml version="1.0" encoding="UTF-8" standalone="no"?>
<!-- Created with Inkscape (http://www.inkscape.org/) -->

<svg
   xmlns:dc="http://purl.org/dc/elements/1.1/"
   xmlns:cc="http://creativecommons.org/ns#"
   xmlns:rdf="http://www.w3.org/1999/02/22-rdf-syntax-ns#"
   xmlns:svg="http://www.w3.org/2000/svg"
   xmlns="http://www.w3.org/2000/svg"
   xmlns:xlink="http://www.w3.org/1999/xlink"
   xmlns:sodipodi="http://sodipodi.sourceforge.net/DTD/sodipodi-0.dtd"
   xmlns:inkscape="http://www.inkscape.org/namespaces/inkscape"
   version="1.1"
   width="16"
   height="16"
   id="svg2868"
   sodipodi:docname="edit-cut.svg"
   inkscape:version="0.92.4 (5da689c313, 2019-01-14)">
  <metadata
     id="metadata18">
    <rdf:RDF>
      <cc:Work
         rdf:about="">
        <dc:format>image/svg+xml</dc:format>
        <dc:type
           rdf:resource="http://purl.org/dc/dcmitype/StillImage" />
      </cc:Work>
    </rdf:RDF>
  </metadata>
  <sodipodi:namedview
     pagecolor="#ffffff"
     bordercolor="#666666"
     borderopacity="1"
     objecttolerance="10"
     gridtolerance="10"
     guidetolerance="10"
     inkscape:pageopacity="0"
     inkscape:pageshadow="2"
     inkscape:window-width="1680"
     inkscape:window-height="1001"
     id="namedview16"
     showgrid="false"
     inkscape:zoom="2.6074563"
     inkscape:cx="71.266302"
     inkscape:cy="-86.293421"
     inkscape:window-x="0"
     inkscape:window-y="0"
     inkscape:window-maximized="1"
     inkscape:current-layer="svg2868" />
  <defs
     id="defs2870">
    <linearGradient
       x1="292.28122"
       y1="5.2970366"
       x2="295.15903"
       y2="9.2606277"
       id="linearGradient6372"
       xlink:href="#linearGradient2264-691-644-798-66-603"
       gradientUnits="userSpaceOnUse"
       gradientTransform="matrix(1.1218077,-0.27054212,0.35065353,1.3943807,-327.20211,75.198468)" />
    <linearGradient
       x1="292.97168"
       y1="4.7592773"
       x2="296.93979"
       y2="10.711433"
       id="XMLID_897_"
       gradientUnits="userSpaceOnUse">
      <stop
         id="stop45093"
         style="stop-color:#e8e8e5;stop-opacity:1"
         offset="0" />
      <stop
         id="stop45095"
         style="stop-color:#f0f0f0;stop-opacity:1"
         offset="1" />
    </linearGradient>
    <linearGradient
       x1="295.05093"
       y1="4.5953283"
       x2="292.81815"
       y2="6.7920604"
       id="linearGradient2922"
       xlink:href="#linearGradient2264-691-644-798-66-603"
       gradientUnits="userSpaceOnUse"
       gradientTransform="matrix(-1.1150516,-0.23157263,-0.31963526,1.3932756,341.24169,63.829342)" />
    <linearGradient
       id="linearGradient3242-593-605-251-305">
      <stop
         id="stop2749"
         style="stop-color:#8ec5d7;stop-opacity:1"
         offset="0" />
      <stop
         id="stop2751"
         style="stop-color:#6499c5;stop-opacity:1"
         offset="0.26238" />
      <stop
         id="stop2753"
         style="stop-color:#3e6ea4;stop-opacity:1"
         offset="0.66093999" />
      <stop
         id="stop2755"
         style="stop-color:#1a4ba7;stop-opacity:1"
         offset="1" />
    </linearGradient>
    <linearGradient
       id="linearGradient2264-691-644-798-66-603">
      <stop
         id="stop3706"
         style="stop-color:#ffffff;stop-opacity:1"
         offset="0" />
      <stop
         id="stop3708"
         style="stop-color:#a2a2a2;stop-opacity:1"
         offset="1" />
    </linearGradient>
    <linearGradient
       inkscape:collect="always"
       xlink:href="#linearGradient3242-593-605-251-305"
       id="linearGradient849"
       x1="1.9226187"
       y1="12.859911"
       x2="7.0026894"
       y2="12.859911"
       gradientUnits="userSpaceOnUse" />
    <linearGradient
       inkscape:collect="always"
       xlink:href="#linearGradient3242-593-605-251-305"
       id="linearGradient865"
       x1="8.920311"
       y1="12.859911"
       x2="14.000381"
       y2="12.859911"
       gradientUnits="userSpaceOnUse" />
    <linearGradient
       inkscape:collect="always"
       xlink:href="#linearGradient3242-593-605-251-305"
       id="linearGradient873"
       x1="296.51752"
       y1="13.339585"
       x2="299.70663"
       y2="13.339585"
       gradientUnits="userSpaceOnUse" />
    <linearGradient
       inkscape:collect="always"
       xlink:href="#linearGradient3242-593-605-251-305"
       id="linearGradient881"
       x1="296.51752"
       y1="13.339585"
       x2="299.70663"
       y2="13.339585"
       gradientUnits="userSpaceOnUse" />
  </defs>
  <g
     id="layer1">
    <path
       d="m 13.409802,0.4875624 c 0.05195,0.0349657 0.101526,0.0721198 0.151737,0.10825506 L 13.525579,3.6872329 C 13,6 10.52517,7.1719729 9.002489,9.1248981 8.7897013,9.1325491 8.5802943,8.8067309 8.3753082,8.7704285 7.943676,8.6949868 7.5218692,8.5245586 7.1568457,8.2583556 9.1820052,5.661498 11.364515,3.0584312 13.409802,0.4875624 z"
       id="path12626"
       style="fill:url(#linearGradient2922);stroke:#000350;stroke-width:1;stroke-linecap:round;stroke-linejoin:round;stroke-miterlimit:4;stroke-opacity:1;stroke-dasharray:none;fill-opacity:1" />
    <polygon
       points="296.95605,12.300293 297.6001,13.384766 298.86719,14.71875 299.26807,13.672852 298.25391,11.960449 296.95605,12.300293 "
       transform="matrix(-0.9931683,-0.27984223,-0.35343052,1.2091849,307.45722,77.285544)"
       id="polygon2981"
       style="fill:url(#linearGradient881);fill-opacity:1;stroke:#000350;stroke-width:0.87711573;stroke-linecap:round;stroke-linejoin:round;stroke-miterlimit:4;stroke-opacity:1;stroke-dasharray:none" />
    <path
       d="M 2.7119003,0.53777117 2.5607555,0.65198222 2.5386245,3.5101761 C 3,6 5.5227176,7.2293517 7.0998225,9.148154 7.3149334,9.1487886 8.1990536,9.4887755 8.405404,9.445373 8.839945,9.3549388 9.2626582,9.1690945 9.6260992,8.8885283 7.5285066,6.3370747 4.8292574,3.0623498 2.7119003,0.53777117 z"
       id="path12632"
       style="fill:url(#linearGradient6372);stroke:#000350;stroke-width:1;stroke-linecap:round;stroke-linejoin:round;stroke-miterlimit:4;stroke-opacity:1;stroke-dasharray:none;fill-opacity:1" />
    <path
       d="M 6.3371363,10.399417 C 7.0883737,11.395708 6.6911305,13.706021 5.6713028,15.008168 4.6513103,16.311236 3.3961902,16.113954 2.644119,15.120362 1.8924898,14.123915 2.1094578,12.26155 3.1293117,10.959432 4.1487382,9.6571296 5.584785,9.4077477 6.3371363,10.399417 z m -0.6488217,0.830652 c -0.3337621,-0.44123 -1.2188521,-0.28144 -1.9038379,0.59491 -0.6860455,0.87592 -0.8255661,2.025389 -0.4920113,2.465634 0.3331029,0.442774 1.0386653,0.728418 1.7236347,-0.147967 0.6864274,-0.875747 1.0059761,-2.471344 0.6722145,-2.912577 z"
       id="path12638"
       style="fill:url(#linearGradient849);fill-opacity:1;stroke:#000350;stroke-width:0.54695249;stroke-miterlimit:4;stroke-opacity:1;stroke-dasharray:none" />
    <polygon
       points="297.6001,13.384766 298.86719,14.71875 299.26807,13.672852 298.25391,11.960449 296.95605,12.300293 296.95605,12.300293 "
       transform="matrix(1.0020543,-0.24613441,0.31238391,1.2204333,-293.31665,67.335136)"
       id="polygon12640"
       style="fill:url(#linearGradient873);fill-opacity:1;stroke:#000350;stroke-width:0.87711579;stroke-linecap:round;stroke-linejoin:round;stroke-miterlimit:4;stroke-opacity:1;stroke-dasharray:none" />
    <path
       d="m 9.585864,10.399417 c -0.7512378,0.996291 -0.3539947,3.306604 0.665833,4.608751 1.019992,1.303068 2.275112,1.105786 3.027184,0.112194 0.751629,-0.996447 0.534661,-2.858812 -0.485193,-4.16093 C 11.774262,9.6571296 10.338215,9.4077477 9.585864,10.399417 z m 0.648822,0.830652 c 0.333762,-0.44123 1.218852,-0.28144 1.903837,0.59491 0.686046,0.87592 0.825566,2.025389 0.492011,2.465634 -0.333102,0.442774 -1.038665,0.728418 -1.723634,-0.147967 -0.686428,-0.875747 -1.0059762,-2.471344 -0.672214,-2.912577 z"
       id="path2828"
       style="fill:url(#linearGradient865);fill-opacity:1;stroke:#000350;stroke-width:0.54695243;stroke-miterlimit:4;stroke-opacity:1;stroke-dasharray:none" />
  </g>
</svg>
