<?xml version="1.0" encoding="UTF-8" standalone="no"?>
<!-- Created with Inkscape (http://www.inkscape.org/) -->

<svg
   xmlns:dc="http://purl.org/dc/elements/1.1/"
   xmlns:cc="http://creativecommons.org/ns#"
   xmlns:rdf="http://www.w3.org/1999/02/22-rdf-syntax-ns#"
   xmlns:svg="http://www.w3.org/2000/svg"
   xmlns="http://www.w3.org/2000/svg"
   xmlns:xlink="http://www.w3.org/1999/xlink"
   xmlns:sodipodi="http://sodipodi.sourceforge.net/DTD/sodipodi-0.dtd"
   xmlns:inkscape="http://www.inkscape.org/namespaces/inkscape"
   version="1.1"
   width="48"
   height="48"
   id="svg4297"
   sodipodi:docname="application-7zip.svg"
   inkscape:version="0.92.4 (5da689c313, 2019-01-14)">
  <metadata
     id="metadata54">
    <rdf:RDF>
      <cc:Work
         rdf:about="">
        <dc:format>image/svg+xml</dc:format>
        <dc:type
           rdf:resource="http://purl.org/dc/dcmitype/StillImage" />
      </cc:Work>
    </rdf:RDF>
  </metadata>
  <sodipodi:namedview
     pagecolor="#ffffff"
     bordercolor="#666666"
     borderopacity="1"
     objecttolerance="10"
     gridtolerance="10"
     guidetolerance="10"
     inkscape:pageopacity="0"
     inkscape:pageshadow="2"
     inkscape:window-width="640"
     inkscape:window-height="480"
     id="namedview52"
     showgrid="false"
     inkscape:zoom="4.9166667"
     inkscape:cx="24"
     inkscape:cy="24"
     inkscape:window-x="0"
     inkscape:window-y="0"
     inkscape:window-maximized="0"
     inkscape:current-layer="layer1" />
  <defs
     id="defs4299">
    <radialGradient
       cx="5"
       cy="41.5"
       r="5"
       fx="5"
       fy="41.5"
       id="radialGradient3314"
       xlink:href="#linearGradient3681"
       gradientUnits="userSpaceOnUse"
       gradientTransform="matrix(0.5938225,0,0,1.5366531,41.140892,-103.93618)" />
    <linearGradient
       id="linearGradient3703">
      <stop
         id="stop3705"
         style="stop-color:black;stop-opacity:0"
         offset="0" />
      <stop
         id="stop3711"
         style="stop-color:black;stop-opacity:1"
         offset="0.5" />
      <stop
         id="stop3707"
         style="stop-color:black;stop-opacity:0"
         offset="1" />
    </linearGradient>
    <linearGradient
       x1="17.554192"
       y1="46.000275"
       x2="17.554192"
       y2="34.999718"
       id="linearGradient3312"
       xlink:href="#linearGradient3703"
       gradientUnits="userSpaceOnUse"
       gradientTransform="matrix(1.7570316,0,0,1.3969574,-17.394014,-16.411698)" />
    <linearGradient
       id="linearGradient3681">
      <stop
         id="stop3683"
         style="stop-color:black;stop-opacity:1"
         offset="0" />
      <stop
         id="stop3685"
         style="stop-color:black;stop-opacity:0"
         offset="1" />
    </linearGradient>
    <radialGradient
       cx="5"
       cy="41.5"
       r="5"
       fx="5"
       fy="41.5"
       id="radialGradient3310"
       xlink:href="#linearGradient3681"
       gradientUnits="userSpaceOnUse"
       gradientTransform="matrix(0.5938225,0,0,1.5366531,-6.6594735,-103.93618)" />
    <linearGradient
       id="linearGradient3295">
      <stop
         id="stop3297"
         style="stop-color:#c9af8b;stop-opacity:1"
         offset="0" />
      <stop
         id="stop3299"
         style="stop-color:#ad8757;stop-opacity:1"
         offset="0.23942046" />
      <stop
         id="stop3301"
         style="stop-color:#c2a57f;stop-opacity:1"
         offset="0.27582464" />
      <stop
         id="stop3303"
         style="stop-color:#9d7d53;stop-opacity:1"
         offset="1" />
    </linearGradient>
    <linearGradient
       x1="15.464298"
       y1="7.9756851"
       x2="15.464298"
       y2="45.04248"
       id="linearGradient3293"
       xlink:href="#linearGradient3295"
       gradientUnits="userSpaceOnUse" />
    <linearGradient
       id="linearGradient3199">
      <stop
         id="stop3201"
         style="stop-color:#dac197;stop-opacity:1"
         offset="0" />
      <stop
         id="stop3203"
         style="stop-color:#c1a581;stop-opacity:1"
         offset="0.23942046" />
      <stop
         id="stop3205"
         style="stop-color:#dbc298;stop-opacity:1"
         offset="0.27582464" />
      <stop
         id="stop3207"
         style="stop-color:#a68b60;stop-opacity:1"
         offset="1" />
    </linearGradient>
    <linearGradient
       x1="24.822832"
       y1="15.377745"
       x2="24.996943"
       y2="37.27668"
       id="linearGradient3197"
       xlink:href="#linearGradient3199"
       gradientUnits="userSpaceOnUse"
       gradientTransform="matrix(1.2822251,0,0,1.5572619,-6.0701918,-15.290756)" />
    <linearGradient
       id="linearGradient4559">
      <stop
         id="stop4561"
         style="stop-color:white;stop-opacity:0"
         offset="0" />
      <stop
         id="stop4563"
         style="stop-color:white;stop-opacity:0"
         offset="1" />
    </linearGradient>
    <linearGradient
       x1="23.451576"
       y1="30.554907"
       x2="43.00663"
       y2="45.934479"
       id="linearGradient2659"
       xlink:href="#linearGradient4559"
       gradientUnits="userSpaceOnUse"
       gradientTransform="matrix(1.2822251,0,0,1.1746872,-6.0701918,-5.3031677)" />
    <linearGradient
       id="linearGradient3827">
      <stop
         id="stop3829"
         style="stop-color:white;stop-opacity:1"
         offset="0" />
      <stop
         id="stop4295"
         style="stop-color:white;stop-opacity:1"
         offset="0.3021296" />
      <stop
         id="stop4293"
         style="stop-color:white;stop-opacity:0.6901961"
         offset="0.34361121" />
      <stop
         id="stop3832"
         style="stop-color:white;stop-opacity:0"
         offset="1" />
    </linearGradient>
    <linearGradient
       x1="26"
       y1="22"
       x2="26"
       y2="8"
       id="linearGradient3834"
       xlink:href="#linearGradient3827"
       gradientUnits="userSpaceOnUse" />
    <linearGradient
       id="linearGradient3275">
      <stop
         id="stop3277"
         style="stop-color:white;stop-opacity:0"
         offset="0" />
      <stop
         id="stop3283"
         style="stop-color:white;stop-opacity:1"
         offset="0.245" />
      <stop
         id="stop3285"
         style="stop-color:white;stop-opacity:1"
         offset="0.77350003" />
      <stop
         id="stop3279"
         style="stop-color:white;stop-opacity:0"
         offset="1" />
    </linearGradient>
    <linearGradient
       x1="44.994774"
       y1="17.5"
       x2="3.0052247"
       y2="17.5"
       id="linearGradient3281"
       xlink:href="#linearGradient3275"
       gradientUnits="userSpaceOnUse"
       spreadMethod="reflect" />
    <radialGradient
       cx="5"
       cy="41.5"
       r="5"
       fx="5"
       fy="41.5"
       id="radialGradient3310-3"
       xlink:href="#linearGradient3681"
       gradientUnits="userSpaceOnUse"
       gradientTransform="matrix(0.5938225,0,0,1.5366531,-6.6594735,-103.93618)" />
    <radialGradient
       cx="5"
       cy="41.5"
       r="5"
       fx="5"
       fy="41.5"
       id="radialGradient3314-6"
       xlink:href="#linearGradient3681"
       gradientUnits="userSpaceOnUse"
       gradientTransform="matrix(0.5938225,0,0,1.5366531,41.140892,-103.93618)" />
    <radialGradient
       inkscape:collect="always"
       xlink:href="#linearGradient3656"
       id="radialGradient935"
       cx="43.219528"
       cy="16.881748"
       fx="43.219528"
       fy="16.881748"
       r="21.000694"
       gradientTransform="matrix(2.0347936,0.08316898,-0.04553145,1.1139623,-43.954639,-4.3814603)"
       gradientUnits="userSpaceOnUse" />
    <linearGradient
       id="linearGradient3656">
      <stop
         id="stop3658"
         style="stop-color:#c17d11;stop-opacity:1"
         offset="0" />
      <stop
         id="stop3660"
         style="stop-color:#e9b96e;stop-opacity:1"
         offset="1" />
    </linearGradient>
    <linearGradient
       x1="26"
       y1="22"
       x2="26"
       y2="8"
       id="linearGradient3834-1"
       xlink:href="#linearGradient888"
       gradientUnits="userSpaceOnUse"
       gradientTransform="translate(0,0.20338983)" />
    <linearGradient
       id="linearGradient888">
      <stop
         offset="0"
         style="stop-color:#f4b88c;stop-opacity:1"
         id="stop884" />
      <stop
         offset="1"
         style="stop-color:#f3e79c;stop-opacity:1"
         id="stop886" />
    </linearGradient>
    <linearGradient
       x1="44.994774"
       y1="17.5"
       x2="3.0052247"
       y2="17.5"
       id="linearGradient3281-1"
       xlink:href="#linearGradient3275"
       gradientUnits="userSpaceOnUse"
       spreadMethod="reflect" />
  </defs>
  <g
     id="layer1">
    <path
       inkscape:connector-curvature="0"
       d="M 3.5052252,17.5 H 44.494775"
       id="path3273"
       style="display:inline;opacity:0.4;fill:none;stroke:url(#linearGradient3281-1);stroke-width:1px;stroke-linecap:square;stroke-linejoin:miter;stroke-opacity:1" />
    <g
       id="text2866"
       style="font-style:normal;font-variant:normal;font-weight:bold;font-stretch:normal;font-size:12px;font-family:'URW Gothic L';-inkscape-font-specification:'Andale Mono Bold';opacity:0.4;fill:#000000;fill-opacity:1;stroke:none">
      <path
         inkscape:connector-curvature="0"
         d="m 17.999999,38.831 c 0.072,0.647999 0.180001,0.984 0.444,1.344 0.432,0.575999 1.188001,0.924 1.992,0.924 1.331999,0 2.376,-0.996002 2.376,-2.268 0,-0.576 -0.216,-1.056001 -0.624,-1.38 -0.251999,-0.216 -0.648,-0.384001 -1.224,-0.564 -0.647999,-0.204 -0.648,-0.204 -0.804,-0.276 -0.215999,-0.096 -0.324,-0.252001 -0.324,-0.444 0,-0.324 0.264001,-0.564 0.612,-0.564 0.336,0 0.552,0.18 0.624,0.528 h 1.56 c -0.024,-0.564 -0.156,-0.900001 -0.48,-1.26 -0.419999,-0.468 -1.044,-0.732 -1.704,-0.732 -1.235998,0 -2.208,0.888001 -2.208,2.028 0,0.971999 0.528002,1.524 1.848,1.968 0.612,0.203999 0.660001,0.228 0.828,0.336 0.192,0.119999 0.3,0.3 0.3,0.516 0,0.371999 -0.312,0.648 -0.72,0.648 -0.467999,0 -0.732,-0.240001 -0.888,-0.804 h -1.608"
         id="path2864" />
      <path
         inkscape:connector-curvature="0"
         d="m 23.893,40.943 h 1.596 v -6.648 h -1.596 v 6.648 m 0,-7.368 h 1.596 v -1.5 h -1.596 v 1.5"
         id="path2866" />
      <path
         inkscape:connector-curvature="0"
         d="m 27.216,40.943 h 1.596 v -5.196 h 0.96 v -1.452 h -0.96 v -2.22 h -1.596 v 2.22 h -0.78 v 1.452 h 0.78 v 5.196"
         id="path2868" />
    </g>
    <g
       id="layer1-2">
      <g
         transform="matrix(0.9926623,0,0,0.9761474,0.2751901,1.2929634)"
         id="g3305"
         style="display:inline;opacity:0.4">
        <rect
           width="2.9601951"
           height="15.366531"
           x="-3.6903627"
           y="-47.848343"
           transform="scale(-1)"
           id="rect2484"
           style="fill:url(#radialGradient3310-3);fill-opacity:1;stroke:none" />
        <rect
           width="40.41172"
           height="15.366531"
           x="3.6903627"
           y="32.481812"
           id="rect2486"
           style="fill:url(#linearGradient3312);fill-opacity:1;stroke:none" />
        <rect
           width="2.9601951"
           height="15.366531"
           x="44.110001"
           y="-47.848343"
           transform="scale(1,-1)"
           id="rect3444"
           style="display:inline;fill:url(#radialGradient3314-6);fill-opacity:1;stroke:none" />
      </g>
      <path
         inkscape:connector-curvature="0"
         d="m 9.010725,8.5 h 29.497723 c 1.721985,0 2.496922,-0.2865505 2.991552,1 l 3.001734,8 v 25.673912 c 0,1.553304 0.10293,1.315976 -1.619063,1.315976 H 5.1173288 c -1.7219924,0 -1.6190635,0.237328 -1.6190635,-1.315976 V 17.5 L 6.5,9.5 c 0.4808316,-1.2605622 0.7887325,-1 2.510725,-1 z"
         id="path2488"
         style="display:block;overflow:visible;visibility:visible;fill:url(#radialGradient935);fill-opacity:1;fill-rule:nonzero;stroke:#000000;stroke-width:0.99420077;stroke-linecap:round;stroke-linejoin:miter;stroke-miterlimit:4;stroke-dasharray:none;stroke-dashoffset:0;stroke-opacity:1;marker:none" />
      <path
         inkscape:connector-curvature="0"
         d="m 9.948194,9.5129459 h 27.652872 c 1.614293,0 2.61338,0.5565361 3.289521,2.0860281 l 2.32894,6.419721 v 23.144557 c 0,1.460676 -0.818759,2.196085 -2.433056,2.196085 H 7.0532679 c -1.6142934,0 -2.2727761,-0.808827 -2.2727761,-2.269504 V 18.018695 l 2.2538109,-6.55736 C 7.4850649,10.275943 8.3338968,9.5129459 9.948194,9.5129459 Z"
         id="path2490"
         style="display:block;overflow:visible;visibility:visible;opacity:0.50549454;fill:none;stroke:url(#linearGradient2659);stroke-width:0.74211526;stroke-linecap:butt;stroke-linejoin:miter;stroke-miterlimit:4;stroke-dasharray:none;stroke-dashoffset:0;stroke-opacity:1;marker:none" />
      <path
         d="m 22,8.2033898 c 1.333333,0 2.666667,0 4,0 0,4.6666672 0,9.3333332 0,14.0000002 -0.393729,0 -0.787458,0 -1.181187,0 -0.403125,0 -0.80625,0 -1.209375,0 -0.324529,0 -0.649057,0 -0.973585,0 -0.211951,0 -0.423902,0 -0.635853,0 0,-4.666667 0,-9.333333 0,-14.0000002 z"
         id="rect3326-6"
         style="display:inline;overflow:visible;visibility:visible;opacity:1;fill:url(#linearGradient3834-1);fill-opacity:1;fill-rule:nonzero;stroke:#000000;stroke-width:1;stroke-opacity:1;marker:none;enable-background:accumulate"
         inkscape:connector-curvature="0" />
      <path
         inkscape:connector-curvature="0"
         d="M 3.5052248,17.5 H 44.494775"
         id="path3273-7"
         style="display:inline;opacity:1;fill:none;stroke:#000000;stroke-width:0.89999998;stroke-linecap:square;stroke-linejoin:miter;stroke-miterlimit:4;stroke-dasharray:none;stroke-opacity:1" />
    </g>
    <path
       d="m 22,8 c 1.333333,0 2.666667,0 4,0 0,4.666667 0,9.333333 0,14 -0.393729,0 -0.787458,0 -1.181187,0 -0.403125,0 -0.80625,0 -1.209375,0 -0.324529,0 -0.649057,0 -0.973585,0 C 22.423902,22 22.211951,22 22,22 22,17.333333 22,12.666667 22,8 z"
       id="rect3326"
       style="opacity:0.4;fill:url(#linearGradient3834);fill-opacity:1;fill-rule:nonzero;stroke:none;stroke-width:1;marker:none;visibility:visible;display:inline;overflow:visible;enable-background:accumulate" />
    <path
       d="m 13.192137,41.142857 c 0.6,0 1.200001,0 1.800001,0 1.08,-2.456 2.16,-4.912 3.239999,-7.368 0,-0.5 0,-1 0,-1.5 -1.739999,0 -3.479999,0 -5.219999,0 0,0.5 0,1 0,1.5 1.18,0 2.36,0 3.54,0 -1.12,2.456 -2.240001,4.912 -3.360001,7.368 z m 6.006563,0 c 1.687999,0 3.375999,0 5.063999,0 0,-0.476001 0,-0.952001 0,-1.428002 -1.052,0 -2.104,0 -3.155999,0 0.976,-1.264 1.952,-2.528 2.928,-3.792 0,-0.475999 0,-0.951998 0,-1.427997 -1.5,0 -3.000001,0 -4.500001,0 0,0.475999 0,0.951998 0,1.427997 0.864,0 1.728,0 2.592,0 -0.976,1.264 -1.951999,2.528 -2.927999,3.792 0,0.476001 0,0.952001 0,1.428002 z m 5.939249,0 c 0.532,0 1.064,0 1.596,0 0,-2.216 0,-4.432 0,-6.647999 -0.532,0 -1.064,0 -1.596,0 0,2.215999 0,4.431999 0,6.647999 z m 0,-7.368 c 0.532,0 1.064,0 1.596,0 0,-0.5 0,-1 0,-1.5 -0.532,0 -1.064,0 -1.596,0 0,0.5 0,1 0,1.5 z m 2.882812,9.588001 c 0.532,0 1.064001,0 1.596001,0 0,-0.948001 0,-1.896001 0,-2.844002 1.502701,1.45957 4.309059,0.766538 5.050579,-1.169654 0.794246,-1.737135 0.08508,-4.17206 -1.823421,-4.811325 -1.130696,-0.406113 -2.553867,-0.213691 -3.359158,0.73698 -0.08219,-0.250431 0.201159,-0.8664 -0.217861,-0.779999 -0.41538,0 -0.83076,0 -1.24614,0 0,2.956 0,5.912 0,8.868 z m 3.444,-7.560002 c 1.47844,-0.05671 2.367944,1.76673 1.683733,2.992629 -0.570978,1.305732 -2.593444,1.378225 -3.302466,0.164566 -0.845945,-1.261931 0.01461,-3.211269 1.618734,-3.157194 l -1e-6,-1e-6 z"
       id="text3329"
       style="font-size:12px;font-style:normal;font-variant:normal;font-weight:bold;font-stretch:normal;text-align:start;line-height:100%;writing-mode:lr-tb;text-anchor:start;opacity:0.4;fill:black;fill-opacity:1;stroke:none;display:inline;font-family:URW Gothic L;-inkscape-font-specification:URW Gothic L Semi-Bold" />
  </g>
</svg>
