<?xml version="1.0" encoding="UTF-8" standalone="no"?>
<!-- Created with Inkscape (http://www.inkscape.org/) -->

<svg
   xmlns:dc="http://purl.org/dc/elements/1.1/"
   xmlns:cc="http://creativecommons.org/ns#"
   xmlns:rdf="http://www.w3.org/1999/02/22-rdf-syntax-ns#"
   xmlns:svg="http://www.w3.org/2000/svg"
   xmlns="http://www.w3.org/2000/svg"
   xmlns:xlink="http://www.w3.org/1999/xlink"
   xmlns:sodipodi="http://sodipodi.sourceforge.net/DTD/sodipodi-0.dtd"
   xmlns:inkscape="http://www.inkscape.org/namespaces/inkscape"
   version="1.1"
   width="48"
   height="48"
   id="svg4297"
   sodipodi:docname="application-x-rpm.svg"
   inkscape:version="0.92.4 (5da689c313, 2019-01-14)">
  <metadata
     id="metadata54">
    <rdf:RDF>
      <cc:Work
         rdf:about="">
        <dc:format>image/svg+xml</dc:format>
        <dc:type
           rdf:resource="http://purl.org/dc/dcmitype/StillImage" />
        <dc:title></dc:title>
      </cc:Work>
    </rdf:RDF>
  </metadata>
  <sodipodi:namedview
     pagecolor="#ffffff"
     bordercolor="#666666"
     borderopacity="1"
     objecttolerance="10"
     gridtolerance="10"
     guidetolerance="10"
     inkscape:pageopacity="0"
     inkscape:pageshadow="2"
     inkscape:window-width="1680"
     inkscape:window-height="1004"
     id="namedview52"
     showgrid="false"
     inkscape:zoom="4.9166667"
     inkscape:cx="-41.463233"
     inkscape:cy="24"
     inkscape:window-x="-4"
     inkscape:window-y="-4"
     inkscape:window-maximized="1"
     inkscape:current-layer="layer1" />
  <defs
     id="defs4299">
    <radialGradient
       cx="5"
       cy="41.5"
       r="5"
       fx="5"
       fy="41.5"
       id="radialGradient3314"
       xlink:href="#linearGradient3681"
       gradientUnits="userSpaceOnUse"
       gradientTransform="matrix(0.5938225,0,0,1.5366531,41.140892,-103.93618)" />
    <linearGradient
       id="linearGradient3703">
      <stop
         id="stop3705"
         style="stop-color:#000000;stop-opacity:0"
         offset="0" />
      <stop
         id="stop3711"
         style="stop-color:#000000;stop-opacity:1"
         offset="0.5" />
      <stop
         id="stop3707"
         style="stop-color:#000000;stop-opacity:0"
         offset="1" />
    </linearGradient>
    <linearGradient
       x1="17.554192"
       y1="46.000275"
       x2="17.554192"
       y2="34.999718"
       id="linearGradient3312"
       xlink:href="#linearGradient3703"
       gradientUnits="userSpaceOnUse"
       gradientTransform="matrix(1.7570316,0,0,1.3969574,-17.394014,-16.411698)" />
    <linearGradient
       id="linearGradient3681">
      <stop
         id="stop3683"
         style="stop-color:#000000;stop-opacity:1"
         offset="0" />
      <stop
         id="stop3685"
         style="stop-color:#000000;stop-opacity:0"
         offset="1" />
    </linearGradient>
    <radialGradient
       cx="5"
       cy="41.5"
       r="5"
       fx="5"
       fy="41.5"
       id="radialGradient3310"
       xlink:href="#linearGradient3681"
       gradientUnits="userSpaceOnUse"
       gradientTransform="matrix(0.5938225,0,0,1.5366531,-6.6594735,-103.93618)" />
    <linearGradient
       id="linearGradient3295">
      <stop
         id="stop3297"
         style="stop-color:#c9af8b;stop-opacity:1"
         offset="0" />
      <stop
         id="stop3299"
         style="stop-color:#ad8757;stop-opacity:1"
         offset="0.23942046" />
      <stop
         id="stop3301"
         style="stop-color:#c2a57f;stop-opacity:1"
         offset="0.27582464" />
      <stop
         id="stop3303"
         style="stop-color:#9d7d53;stop-opacity:1"
         offset="1" />
    </linearGradient>
    <linearGradient
       x1="15.464298"
       y1="7.9756851"
       x2="15.464298"
       y2="45.04248"
       id="linearGradient3293"
       xlink:href="#linearGradient3295"
       gradientUnits="userSpaceOnUse" />
    <linearGradient
       id="linearGradient3199">
      <stop
         id="stop3201"
         style="stop-color:#dac197;stop-opacity:1"
         offset="0" />
      <stop
         id="stop3203"
         style="stop-color:#c1a581;stop-opacity:1"
         offset="0.23942046" />
      <stop
         id="stop3205"
         style="stop-color:#dbc298;stop-opacity:1"
         offset="0.27582464" />
      <stop
         id="stop3207"
         style="stop-color:#a68b60;stop-opacity:1"
         offset="1" />
    </linearGradient>
    <linearGradient
       x1="24.822832"
       y1="15.377745"
       x2="24.996943"
       y2="37.27668"
       id="linearGradient3197"
       xlink:href="#linearGradient3242-593-605-251-305"
       gradientUnits="userSpaceOnUse"
       gradientTransform="matrix(1.2822251,0,0,1.5572619,-6.0701918,-15.290756)" />
    <linearGradient
       id="linearGradient4559">
      <stop
         id="stop4561"
         style="stop-color:#ffffff;stop-opacity:0"
         offset="0" />
      <stop
         id="stop4563"
         style="stop-color:#ffffff;stop-opacity:0"
         offset="1" />
    </linearGradient>
    <linearGradient
       x1="23.451576"
       y1="30.554907"
       x2="43.00663"
       y2="45.934479"
       id="linearGradient2659"
       xlink:href="#linearGradient4559"
       gradientUnits="userSpaceOnUse"
       gradientTransform="matrix(1.2822251,0,0,1.1746872,-6.0701918,-5.3031677)" />
    <linearGradient
       id="linearGradient3827">
      <stop
         id="stop3829"
         style="stop-color:#ffffff;stop-opacity:1"
         offset="0" />
      <stop
         id="stop4295"
         style="stop-color:#ffffff;stop-opacity:1"
         offset="0.3021296" />
      <stop
         id="stop4293"
         style="stop-color:#ffffff;stop-opacity:0.6901961"
         offset="0.34361121" />
      <stop
         id="stop3832"
         style="stop-color:#ffffff;stop-opacity:0"
         offset="1" />
    </linearGradient>
    <linearGradient
       x1="26"
       y1="22"
       x2="26"
       y2="8"
       id="linearGradient3834"
       xlink:href="#linearGradient888"
       gradientUnits="userSpaceOnUse"
       gradientTransform="translate(0,0.20338983)" />
    <linearGradient
       id="linearGradient3275">
      <stop
         id="stop3277"
         style="stop-color:#ffffff;stop-opacity:0"
         offset="0" />
      <stop
         id="stop3283"
         style="stop-color:#ffffff;stop-opacity:1"
         offset="0.245" />
      <stop
         id="stop3285"
         style="stop-color:#ffffff;stop-opacity:1"
         offset="0.77350003" />
      <stop
         id="stop3279"
         style="stop-color:#ffffff;stop-opacity:0"
         offset="1" />
    </linearGradient>
    <linearGradient
       x1="44.994774"
       y1="17.5"
       x2="3.0052247"
       y2="17.5"
       id="linearGradient3281"
       xlink:href="#linearGradient888"
       gradientUnits="userSpaceOnUse"
       spreadMethod="reflect" />
    <linearGradient
       x1="33.579403"
       y1="5.7086449"
       x2="33.579403"
       y2="16.323294"
       id="linearGradient3636-65"
       xlink:href="#linearGradient888"
       gradientUnits="userSpaceOnUse"
       gradientTransform="matrix(0.8148434,0,0,0.6596233,-75.073028,-14.816873)" />
    <linearGradient
       id="linearGradient888">
      <stop
         offset="0"
         style="stop-color:#f4b88c;stop-opacity:1"
         id="stop884" />
      <stop
         offset="1"
         style="stop-color:#f3e79c;stop-opacity:1"
         id="stop886" />
    </linearGradient>
    <linearGradient
       x1="24.682861"
       y1="9.2416716"
       x2="24.682861"
       y2="13.523027"
       id="linearGradient3639"
       xlink:href="#linearGradient3681"
       gradientUnits="userSpaceOnUse"
       gradientTransform="matrix(0.9563112,0,0,0.4680085,-71.758518,-8.3760284)" />
    <linearGradient
       x1="16.626165"
       y1="15.298182"
       x2="20.054544"
       y2="24.627615"
       id="linearGradient2849"
       xlink:href="#linearGradient8265-821-176-38-919-66-249"
       gradientUnits="userSpaceOnUse"
       gradientTransform="matrix(0.9578231,0,0,1.0182827,-71.801318,-16.12872)" />
    <linearGradient
       id="linearGradient8265-821-176-38-919-66-249">
      <stop
         id="stop2687"
         style="stop-color:#ffffff;stop-opacity:1"
         offset="0" />
      <stop
         id="stop2689"
         style="stop-color:#ffffff;stop-opacity:0"
         offset="1" />
    </linearGradient>
    <radialGradient
       cx="26.616697"
       cy="-2.0644982"
       r="23"
       fx="26.616697"
       fy="-2.0644982"
       id="radialGradient3966"
       xlink:href="#linearGradient3242-593-605-251-305"
       gradientUnits="userSpaceOnUse"
       gradientTransform="matrix(-1.8187668e-8,-1.0656573,1.3967139,0,-36.848373,40.507987)" />
    <linearGradient
       id="linearGradient3242-593-605-251-305">
      <stop
         id="stop2749"
         style="stop-color:#8ec5d7;stop-opacity:1"
         offset="0" />
      <stop
         id="stop2751"
         style="stop-color:#6499c5;stop-opacity:1"
         offset="0.26238" />
      <stop
         id="stop2753"
         style="stop-color:#3e6ea4;stop-opacity:1"
         offset="0.66093999" />
      <stop
         id="stop2755"
         style="stop-color:#1a4ba7;stop-opacity:1"
         offset="1" />
    </linearGradient>
    <radialGradient
       cx="605.71429"
       cy="486.64789"
       r="117.14286"
       fx="605.71429"
       fy="486.64789"
       id="radialGradient2782"
       xlink:href="#linearGradient3681"
       gradientUnits="userSpaceOnUse"
       gradientTransform="matrix(-0.06553443,0,0,0.02470588,-25.140433,13.890793)" />
    <radialGradient
       cx="605.71429"
       cy="486.64789"
       r="117.14286"
       fx="605.71429"
       fy="486.64789"
       id="radialGradient2785"
       xlink:href="#linearGradient3681"
       gradientUnits="userSpaceOnUse"
       gradientTransform="matrix(0.06553443,0,0,0.02470588,-72.486678,13.890793)" />
    <linearGradient
       x1="302.85715"
       y1="366.64789"
       x2="302.85715"
       y2="609.50507"
       id="linearGradient2788"
       xlink:href="#linearGradient3703"
       gradientUnits="userSpaceOnUse"
       gradientTransform="matrix(0.06553443,0,0,0.02470588,-72.499578,13.890793)" />
    <radialGradient
       inkscape:collect="always"
       xlink:href="#linearGradient3242-593-605-251-305"
       id="radialGradient935"
       cx="43.219528"
       cy="16.881748"
       fx="43.219528"
       fy="16.881748"
       r="21.000694"
       gradientTransform="matrix(2.0347936,0.08316898,-0.04553145,1.1139623,-43.954639,-4.3814603)"
       gradientUnits="userSpaceOnUse" />
  </defs>
  <g
     id="layer1">
    <g
       transform="matrix(0.89171359,0,0,0.89785736,4.0099166,4.0220629)"
       id="g3305"
       style="display:inline;opacity:0.4;stroke-width:1.10012519">
      <rect
         width="2.9601951"
         height="15.366531"
         x="-3.6903627"
         y="-47.848343"
         transform="scale(-1)"
         id="rect2484"
         style="fill:url(#radialGradient3310);fill-opacity:1;stroke:none;stroke-width:1.10012519" />
      <rect
         width="40.41172"
         height="15.366531"
         x="3.6903627"
         y="32.481812"
         id="rect2486"
         style="fill:url(#linearGradient3312);fill-opacity:1;stroke:none;stroke-width:1.10012519" />
      <rect
         width="2.9601951"
         height="15.366531"
         x="44.110001"
         y="-47.848343"
         transform="scale(1,-1)"
         id="rect3444"
         style="display:inline;fill:url(#radialGradient3314);fill-opacity:1;stroke:none;stroke-width:1.10012519" />
    </g>
    <path
       d="m 9.010725,8.5 29.497723,0 c 1.721985,0 2.496922,-0.2865505 2.991552,1 l 3.001734,8 0,25.673912 c 0,1.553304 0.10293,1.315976 -1.619063,1.315976 l -37.7653422,0 c -1.7219924,0 -1.6190635,0.237328 -1.6190635,-1.315976 L 3.4982653,17.5 6.5,9.5 c 0.4808316,-1.2605622 0.7887325,-1 2.510725,-1 z"
       id="path2488"
       style="fill:url(#radialGradient935);fill-opacity:1;fill-rule:nonzero;stroke:#000000;stroke-width:0.99420077;stroke-linecap:round;stroke-linejoin:miter;stroke-miterlimit:4;stroke-opacity:1;stroke-dasharray:none;stroke-dashoffset:0;marker:none;visibility:visible;display:block;overflow:visible" />
    <path
       d="m 9.948194,9.5129459 27.652872,0 c 1.614293,0 2.61338,0.5565361 3.289521,2.0860281 l 2.32894,6.419721 0,23.144557 c 0,1.460676 -0.818759,2.196085 -2.433056,2.196085 l -33.7332031,0 c -1.6142934,0 -2.2727761,-0.808827 -2.2727761,-2.269504 l 0,-23.071138 2.2538109,-6.55736 C 7.4850649,10.275943 8.3338968,9.5129459 9.948194,9.5129459 z"
       id="path2490"
       style="opacity:0.50549454;fill:none;stroke:url(#linearGradient2659);stroke-width:0.74211526;stroke-linecap:butt;stroke-linejoin:miter;stroke-miterlimit:4;stroke-opacity:1;stroke-dasharray:none;stroke-dashoffset:0;marker:none;visibility:visible;display:block;overflow:visible" />
    <path
       d="m 22,8.2033898 c 1.333333,0 2.666667,0 4,0 0,4.6666672 0,9.3333332 0,14.0000002 -0.393729,0 -0.787458,0 -1.181187,0 -0.403125,0 -0.80625,0 -1.209375,0 -0.324529,0 -0.649057,0 -0.973585,0 -0.211951,0 -0.423902,0 -0.635853,0 0,-4.666667 0,-9.333333 0,-14.0000002 z"
       id="rect3326"
       style="display:inline;overflow:visible;visibility:visible;opacity:1;fill:url(#linearGradient3834);fill-opacity:1;fill-rule:nonzero;stroke:#000000;stroke-width:1;stroke-opacity:1;marker:none;enable-background:accumulate"
       inkscape:connector-curvature="0" />
    <path
       d="m 3.5052248,17.5 40.9895502,0"
       id="path3273"
       style="opacity:1;fill:none;stroke:#000000;stroke-width:0.9;stroke-linecap:square;stroke-linejoin:miter;stroke-opacity:1;display:inline;stroke-miterlimit:4;stroke-dasharray:none" />
    <path
       inkscape:connector-curvature="0"
       d="m 30.708106,24.62179 -0.69337,0.918298 c 1.950227,0.842101 3.46088,2.166333 4.170294,3.613015 0.409321,0.834715 0.476098,2.251507 0.441524,2.717636 l -0.06088,0.820927 c 1.923841,0.349903 4.337206,0.792092 5.279684,0.949322 0,0 -0.0033,-0.278916 -0.136102,-1.091946 C 39.514682,31.357259 38.51887,29.5179 37.481086,28.438167 35.705001,26.590302 33.80836,25.452494 30.708107,24.62179 Z"
       id="path1399"
       style="opacity:0.6;fill:#550000;fill-opacity:1;stroke-width:1" />
    <path
       inkscape:connector-curvature="0"
       d="m 15.848379,38.591794 v -4.218407 l 2.259863,0.104589 c 2.850701,0.131939 4.252436,0.554616 5.323235,1.60517 0.662901,0.650368 0.730094,0.793458 0.730094,1.554817 0,0.627238 -0.107091,0.982295 -0.424984,1.409044 -0.569152,0.764053 -2.330817,1.62706 -3.807232,1.865104 l -1.196809,0.192957 v 0.637585 c 0,0.721314 -0.04926,0.74691 -1.82381,0.947621 l -1.060357,0.119934 z m 4.114024,1.230268 c 1.346817,-0.874558 1.718781,-2.271349 0.877481,-3.295098 -0.513082,-0.624353 -1.189499,-1.136755 -1.725608,-1.307192 l -0.38173,-0.121357 v 2.617447 c 0,2.03618 0.04914,2.617446 0.221271,2.617446 0.121697,0 0.575559,-0.230061 1.008586,-0.511246 z M 8.2524847,37.771 l 0.04616,-3.257176 2.6296853,-0.02443 c 1.939657,-0.01802 2.784123,0.0408 3.218269,0.224197 l 0.588588,0.24863 -0.71395,0.435933 c -0.618033,0.37737 -0.796636,0.412557 -1.329444,0.261923 -0.338526,-0.09571 -0.83562,-0.128933 -1.104653,-0.07384 l -0.489157,0.10017 v 2.670885 2.670881 H 9.6521608 8.2063316 Z M 26.197451,37.7112 v -3.316975 l 6.150066,0.06651 c 5.266105,0.05694 6.241506,0.107967 6.786275,0.354941 l 0.636215,0.288433 v 2.962032 2.962037 h -1.437981 -1.437979 l -0.04652,-2.909739 -0.04652,-2.909745 -1.230014,-0.05104 -1.23001,-0.05104 v 2.960781 2.960783 h -1.357254 -1.357256 v -2.678387 c 0,-1.473118 -0.04634,-2.802045 -0.10298,-2.953174 -0.08012,-0.213793 -0.36255,-0.274784 -1.272428,-0.274784 h -1.169448 v 2.953171 2.953171 H 27.639533 26.197448 V 37.7112 Z m 6.277308,-5.299596 c -5.954206,-1.095653 -7.96585,-1.407066 -8.202198,-1.269744 -0.232376,0.135012 -0.385544,0.117519 -0.593801,-0.06783 -0.154355,-0.137373 -0.509684,-0.336097 -0.789617,-0.441604 l -0.508974,-0.191829 0.508974,0.02695 c 0.279933,0.01482 0.694017,-0.0359 0.920185,-0.1127 0.293345,-0.09962 0.465077,-0.06422 0.599125,0.12348 0.179789,0.251762 0.978894,0.407469 13.749812,2.679183 1.399673,0.248974 2.617381,0.519197 2.70603,0.600493 0.258212,0.236805 -0.08522,0.181688 -8.389536,-1.346406 z M 8.3834738,32.956897 c 0,-0.897673 0.6055384,-2.385523 1.4475135,-3.556626 2.5036447,-3.482323 8.0745207,-5.745563 14.1353707,-5.74267 2.153816,0.001 4.755671,0.313922 6.078385,0.730978 l 0.708636,0.223436 -0.369324,0.464036 -0.369319,0.464037 -1.1876,-0.409244 c -5.654234,-1.948443 -13.087795,0.115514 -15.024126,4.171504 -0.326901,0.684751 -0.41318,1.135125 -0.407691,2.12802 0.0039,0.692692 -0.03434,1.25977 -0.08483,1.260177 -0.05049,4.06e-4 -1.156694,0.195838 -2.458235,0.434289 -1.3015418,0.238456 -2.3894674,0.433552 -2.4176158,0.433552 -0.028141,0 -0.051167,-0.27067 -0.051167,-0.601489 z"
       id="path1397"
       style="opacity:0.90100002;fill:#ffffff;fill-opacity:1;stroke-width:1" />
  </g>
</svg>
