<?xml version="1.0" encoding="UTF-8" standalone="no"?>
<!-- Created with Inkscape (http://www.inkscape.org/) -->

<svg
   xmlns:dc="http://purl.org/dc/elements/1.1/"
   xmlns:cc="http://creativecommons.org/ns#"
   xmlns:rdf="http://www.w3.org/1999/02/22-rdf-syntax-ns#"
   xmlns:svg="http://www.w3.org/2000/svg"
   xmlns="http://www.w3.org/2000/svg"
   xmlns:xlink="http://www.w3.org/1999/xlink"
   xmlns:sodipodi="http://sodipodi.sourceforge.net/DTD/sodipodi-0.dtd"
   xmlns:inkscape="http://www.inkscape.org/namespaces/inkscape"
   version="1.0"
   width="48"
   height="48"
   id="svg3208"
   sodipodi:docname="application-x-arj.svg"
   inkscape:version="0.92.4 (5da689c313, 2019-01-14)">
  <metadata
     id="metadata223">
    <rdf:RDF>
      <cc:Work
         rdf:about="">
        <dc:format>image/svg+xml</dc:format>
        <dc:type
           rdf:resource="http://purl.org/dc/dcmitype/StillImage" />
      </cc:Work>
    </rdf:RDF>
  </metadata>
  <sodipodi:namedview
     pagecolor="#ffffff"
     bordercolor="#666666"
     borderopacity="1"
     objecttolerance="10"
     gridtolerance="10"
     guidetolerance="10"
     inkscape:pageopacity="0"
     inkscape:pageshadow="2"
     inkscape:window-width="640"
     inkscape:window-height="480"
     id="namedview221"
     showgrid="false"
     inkscape:zoom="4.9166667"
     inkscape:cx="24"
     inkscape:cy="24"
     inkscape:window-x="0"
     inkscape:window-y="0"
     inkscape:window-maximized="0"
     inkscape:current-layer="layer1" />
  <defs
     id="defs3210">
    <radialGradient
       cx="5"
       cy="41.5"
       r="5"
       fx="5"
       fy="41.5"
       id="radialGradient3314"
       xlink:href="#linearGradient3681"
       gradientUnits="userSpaceOnUse"
       gradientTransform="matrix(0.5938225,0,0,1.5366531,41.140892,-103.93618)" />
    <linearGradient
       id="linearGradient3703">
      <stop
         id="stop3705"
         style="stop-color:#000000;stop-opacity:0"
         offset="0" />
      <stop
         id="stop3711"
         style="stop-color:#000000;stop-opacity:1"
         offset="0.5" />
      <stop
         id="stop3707"
         style="stop-color:#000000;stop-opacity:0"
         offset="1" />
    </linearGradient>
    <linearGradient
       x1="17.554192"
       y1="46.000275"
       x2="17.554192"
       y2="34.999718"
       id="linearGradient3312"
       xlink:href="#linearGradient3703"
       gradientUnits="userSpaceOnUse"
       gradientTransform="matrix(1.7570316,0,0,1.3969574,-17.394014,-16.411698)" />
    <linearGradient
       id="linearGradient3681">
      <stop
         id="stop3683"
         style="stop-color:#000000;stop-opacity:1"
         offset="0" />
      <stop
         id="stop3685"
         style="stop-color:#000000;stop-opacity:0"
         offset="1" />
    </linearGradient>
    <radialGradient
       cx="5"
       cy="41.5"
       r="5"
       fx="5"
       fy="41.5"
       id="radialGradient3310"
       xlink:href="#linearGradient3681"
       gradientUnits="userSpaceOnUse"
       gradientTransform="matrix(0.5938225,0,0,1.5366531,-6.6594735,-103.93618)" />
    <linearGradient
       id="linearGradient3295">
      <stop
         id="stop3297"
         style="stop-color:#c9af8b;stop-opacity:1"
         offset="0" />
      <stop
         id="stop3299"
         style="stop-color:#ad8757;stop-opacity:1"
         offset="0.23942046" />
      <stop
         id="stop3301"
         style="stop-color:#c2a57f;stop-opacity:1"
         offset="0.27582464" />
      <stop
         id="stop3303"
         style="stop-color:#9d7d53;stop-opacity:1"
         offset="1" />
    </linearGradient>
    <linearGradient
       x1="15.464298"
       y1="7.9756851"
       x2="15.464298"
       y2="45.04248"
       id="linearGradient3293"
       xlink:href="#linearGradient3295"
       gradientUnits="userSpaceOnUse" />
    <linearGradient
       id="linearGradient3199">
      <stop
         id="stop3201"
         style="stop-color:#dac197;stop-opacity:1"
         offset="0" />
      <stop
         id="stop3203"
         style="stop-color:#c1a581;stop-opacity:1"
         offset="0.23942046" />
      <stop
         id="stop3205"
         style="stop-color:#dbc298;stop-opacity:1"
         offset="0.27582464" />
      <stop
         id="stop3207"
         style="stop-color:#a68b60;stop-opacity:1"
         offset="1" />
    </linearGradient>
    <linearGradient
       x1="24.822832"
       y1="15.377745"
       x2="24.996943"
       y2="37.27668"
       id="linearGradient3197"
       xlink:href="#linearGradient3199"
       gradientUnits="userSpaceOnUse"
       gradientTransform="matrix(1.2822251,0,0,1.5572619,-6.0701918,-15.290756)" />
    <linearGradient
       id="linearGradient4559">
      <stop
         id="stop4561"
         style="stop-color:#ffffff;stop-opacity:0"
         offset="0" />
      <stop
         id="stop4563"
         style="stop-color:#ffffff;stop-opacity:0"
         offset="1" />
    </linearGradient>
    <linearGradient
       x1="23.451576"
       y1="30.554907"
       x2="43.00663"
       y2="45.934479"
       id="linearGradient2659"
       xlink:href="#linearGradient4559"
       gradientUnits="userSpaceOnUse"
       gradientTransform="matrix(1.2822251,0,0,1.1746872,-6.0701918,-5.3031677)" />
    <linearGradient
       id="linearGradient3827">
      <stop
         id="stop3829"
         style="stop-color:#ffffff;stop-opacity:1"
         offset="0" />
      <stop
         id="stop4295"
         style="stop-color:#ffffff;stop-opacity:1"
         offset="0.3021296" />
      <stop
         id="stop4293"
         style="stop-color:#ffffff;stop-opacity:0.6901961"
         offset="0.34361121" />
      <stop
         id="stop3832"
         style="stop-color:#ffffff;stop-opacity:0"
         offset="1" />
    </linearGradient>
    <linearGradient
       x1="26"
       y1="22"
       x2="26"
       y2="8"
       id="linearGradient3834"
       xlink:href="#linearGradient3827"
       gradientUnits="userSpaceOnUse" />
    <linearGradient
       id="linearGradient3275">
      <stop
         id="stop3277"
         style="stop-color:#ffffff;stop-opacity:0"
         offset="0" />
      <stop
         id="stop3283"
         style="stop-color:#ffffff;stop-opacity:1"
         offset="0.245" />
      <stop
         id="stop3285"
         style="stop-color:#ffffff;stop-opacity:1"
         offset="0.77350003" />
      <stop
         id="stop3279"
         style="stop-color:#ffffff;stop-opacity:0"
         offset="1" />
    </linearGradient>
    <linearGradient
       x1="44.994774"
       y1="17.5"
       x2="3.0052247"
       y2="17.5"
       id="linearGradient3281"
       xlink:href="#linearGradient3275"
       gradientUnits="userSpaceOnUse"
       spreadMethod="reflect" />
    <radialGradient
       cx="5"
       cy="41.5"
       r="5"
       fx="5"
       fy="41.5"
       id="radialGradient3310-3"
       xlink:href="#linearGradient3681"
       gradientUnits="userSpaceOnUse"
       gradientTransform="matrix(0.5938225,0,0,1.5366531,-6.6594735,-103.93618)" />
    <radialGradient
       cx="5"
       cy="41.5"
       r="5"
       fx="5"
       fy="41.5"
       id="radialGradient3314-6"
       xlink:href="#linearGradient3681"
       gradientUnits="userSpaceOnUse"
       gradientTransform="matrix(0.5938225,0,0,1.5366531,41.140892,-103.93618)" />
    <radialGradient
       inkscape:collect="always"
       xlink:href="#linearGradient3656"
       id="radialGradient935"
       cx="43.219528"
       cy="16.881748"
       fx="43.219528"
       fy="16.881748"
       r="21.000694"
       gradientTransform="matrix(2.0347936,0.08316898,-0.04553145,1.1139623,-43.954639,-4.3814603)"
       gradientUnits="userSpaceOnUse" />
    <linearGradient
       id="linearGradient3656">
      <stop
         id="stop3658"
         style="stop-color:#c17d11;stop-opacity:1"
         offset="0" />
      <stop
         id="stop3660"
         style="stop-color:#e9b96e;stop-opacity:1"
         offset="1" />
    </linearGradient>
    <linearGradient
       x1="26"
       y1="22"
       x2="26"
       y2="8"
       id="linearGradient3834-1"
       xlink:href="#linearGradient888"
       gradientUnits="userSpaceOnUse"
       gradientTransform="translate(0,0.20338983)" />
    <linearGradient
       id="linearGradient888">
      <stop
         offset="0"
         style="stop-color:#f4b88c;stop-opacity:1"
         id="stop884" />
      <stop
         offset="1"
         style="stop-color:#f3e79c;stop-opacity:1"
         id="stop886" />
    </linearGradient>
    <linearGradient
       x1="44.994774"
       y1="17.5"
       x2="3.0052247"
       y2="17.5"
       id="linearGradient3281-0"
       xlink:href="#linearGradient3275"
       gradientUnits="userSpaceOnUse"
       spreadMethod="reflect" />
  </defs>
  <g
     id="layer1">
    <path
       inkscape:connector-curvature="0"
       d="M 3.5052248,17.5 H 44.494775"
       id="path3273"
       style="display:inline;opacity:0.4;fill:none;stroke:url(#linearGradient3281-0);stroke-width:1px;stroke-linecap:square;stroke-linejoin:miter;stroke-opacity:1" />
    <g
       id="text2866"
       style="font-style:normal;font-variant:normal;font-weight:bold;font-stretch:normal;font-size:12px;font-family:'URW Gothic L';-inkscape-font-specification:'Andale Mono Bold';opacity:0.4;fill:#000000;fill-opacity:1;stroke:none">
      <path
         inkscape:connector-curvature="0"
         d="m 17.999999,38.831 c 0.072,0.647999 0.180001,0.984 0.444,1.344 0.432,0.575999 1.188001,0.924 1.992,0.924 1.331999,0 2.376,-0.996002 2.376,-2.268 0,-0.576 -0.216,-1.056001 -0.624,-1.38 -0.251999,-0.216 -0.648,-0.384001 -1.224,-0.564 -0.647999,-0.204 -0.648,-0.204 -0.804,-0.276 -0.215999,-0.096 -0.324,-0.252001 -0.324,-0.444 0,-0.324 0.264001,-0.564 0.612,-0.564 0.336,0 0.552,0.18 0.624,0.528 h 1.56 c -0.024,-0.564 -0.156,-0.900001 -0.48,-1.26 -0.419999,-0.468 -1.044,-0.732 -1.704,-0.732 -1.235998,0 -2.208,0.888001 -2.208,2.028 0,0.971999 0.528002,1.524 1.848,1.968 0.612,0.203999 0.660001,0.228 0.828,0.336 0.192,0.119999 0.3,0.3 0.3,0.516 0,0.371999 -0.312,0.648 -0.72,0.648 -0.467999,0 -0.732,-0.240001 -0.888,-0.804 h -1.608"
         id="path2864" />
      <path
         inkscape:connector-curvature="0"
         d="m 23.893,40.943 h 1.596 v -6.648 h -1.596 v 6.648 m 0,-7.368 h 1.596 v -1.5 h -1.596 v 1.5"
         id="path2866" />
      <path
         inkscape:connector-curvature="0"
         d="m 27.216,40.943 h 1.596 v -5.196 h 0.96 v -1.452 h -0.96 v -2.22 h -1.596 v 2.22 h -0.78 v 1.452 h 0.78 v 5.196"
         id="path2868" />
    </g>
    <g
       id="layer1-2">
      <g
         transform="matrix(0.9926623,0,0,0.9761474,0.2751901,1.2929634)"
         id="g3305"
         style="display:inline;opacity:0.4">
        <rect
           width="2.9601951"
           height="15.366531"
           x="-3.6903627"
           y="-47.848343"
           transform="scale(-1)"
           id="rect2484"
           style="fill:url(#radialGradient3310-3);fill-opacity:1;stroke:none" />
        <rect
           width="40.41172"
           height="15.366531"
           x="3.6903627"
           y="32.481812"
           id="rect2486"
           style="fill:url(#linearGradient3312);fill-opacity:1;stroke:none" />
        <rect
           width="2.9601951"
           height="15.366531"
           x="44.110001"
           y="-47.848343"
           transform="scale(1,-1)"
           id="rect3444"
           style="display:inline;fill:url(#radialGradient3314-6);fill-opacity:1;stroke:none" />
      </g>
      <path
         inkscape:connector-curvature="0"
         d="m 9.010725,8.5 h 29.497723 c 1.721985,0 2.496922,-0.2865505 2.991552,1 l 3.001734,8 v 25.673912 c 0,1.553304 0.10293,1.315976 -1.619063,1.315976 H 5.1173288 c -1.7219924,0 -1.6190635,0.237328 -1.6190635,-1.315976 V 17.5 L 6.5,9.5 c 0.4808316,-1.2605622 0.7887325,-1 2.510725,-1 z"
         id="path2488"
         style="display:block;overflow:visible;visibility:visible;fill:url(#radialGradient935);fill-opacity:1;fill-rule:nonzero;stroke:#000000;stroke-width:0.99420077;stroke-linecap:round;stroke-linejoin:miter;stroke-miterlimit:4;stroke-dasharray:none;stroke-dashoffset:0;stroke-opacity:1;marker:none" />
      <path
         inkscape:connector-curvature="0"
         d="m 9.948194,9.5129459 h 27.652872 c 1.614293,0 2.61338,0.5565361 3.289521,2.0860281 l 2.32894,6.419721 v 23.144557 c 0,1.460676 -0.818759,2.196085 -2.433056,2.196085 H 7.0532679 c -1.6142934,0 -2.2727761,-0.808827 -2.2727761,-2.269504 V 18.018695 l 2.2538109,-6.55736 C 7.4850649,10.275943 8.3338968,9.5129459 9.948194,9.5129459 Z"
         id="path2490"
         style="display:block;overflow:visible;visibility:visible;opacity:0.50549454;fill:none;stroke:url(#linearGradient2659);stroke-width:0.74211526;stroke-linecap:butt;stroke-linejoin:miter;stroke-miterlimit:4;stroke-dasharray:none;stroke-dashoffset:0;stroke-opacity:1;marker:none" />
      <path
         d="m 22,8.2033898 c 1.333333,0 2.666667,0 4,0 0,4.6666672 0,9.3333332 0,14.0000002 -0.393729,0 -0.787458,0 -1.181187,0 -0.403125,0 -0.80625,0 -1.209375,0 -0.324529,0 -0.649057,0 -0.973585,0 -0.211951,0 -0.423902,0 -0.635853,0 0,-4.666667 0,-9.333333 0,-14.0000002 z"
         id="rect3326"
         style="display:inline;overflow:visible;visibility:visible;opacity:1;fill:url(#linearGradient3834-1);fill-opacity:1;fill-rule:nonzero;stroke:#000000;stroke-width:1;stroke-opacity:1;marker:none;enable-background:accumulate"
         inkscape:connector-curvature="0" />
      <path
         inkscape:connector-curvature="0"
         d="M 3.5052248,17.5 H 44.494775"
         id="path3273-7"
         style="display:inline;opacity:1;fill:none;stroke:#000000;stroke-width:0.89999998;stroke-linecap:square;stroke-linejoin:miter;stroke-miterlimit:4;stroke-dasharray:none;stroke-opacity:1" />
    </g>
    <path
       d="m 30.015137,34.494919 c -0.0059,2.204164 0.01206,4.408725 -0.0095,6.612628 0.184595,0.688873 -0.812482,0.483109 -0.650508,1.047914 0,0.402486 0,0.804972 0,1.207458 1.088793,0.05202 2.113594,-0.807571 2.203407,-1.905052 0.09432,-2.318041 0.05259,-4.642358 0.05259,-6.962948 -0.531999,0 -1.063999,0 -1.595999,0 l 10e-6,0 z m 10e-6,-0.720001 c 0.532,0 1.064,0 1.595999,0 0,-0.5 0,-1 0,-1.5 -0.531999,0 -1.063999,0 -1.595999,0 0,0.5 0,1 0,1.5 z m -6.987931,0.720001 c -0.488,0 -0.976,0 -1.463999,0 0,0.296 0,0.592 0,0.888 -0.586313,-0.873692 -1.71207,-1.177234 -2.710233,-1.005845 -1.43786,0.165821 -2.615857,1.39817 -2.79608,2.821426 -0.264329,1.466639 0.401434,3.141916 1.805429,3.775873 1.156261,0.543738 2.707707,0.450044 3.58156,-0.565348 0.22237,-0.297462 0.07853,0.344186 0.119324,0.513141 -0.103716,0.341265 0.286049,0.189049 0.491896,0.220752 0.324034,0 0.648068,0 0.972103,0 0,-2.216 0,-4.432 0,-6.647999 z m -3.467999,1.308001 c 1.020032,-0.04883 1.911868,0.834757 1.946557,1.841087 0.104806,0.944516 -0.477117,2.01841 -1.483058,2.151161 -0.955762,0.215892 -2.084431,-0.305936 -2.325629,-1.303504 -0.314659,-1.044195 0.225573,-2.375825 1.35415,-2.627433 0.165862,-0.04175 0.33703,-0.06135 0.50798,-0.06131 l 0,-10e-7 z m 5.486036,5.339998 c 0.532,0 1.063995,0 1.595995,0 0.0128,-1.352723 -0.02676,-2.707612 0.02199,-4.058859 0.0257,-0.727717 0.701391,-1.253367 1.406016,-1.209141 0,-0.512001 0,-1.024001 0,-1.536001 -0.632967,-0.0731 -1.252543,0.243878 -1.56,0.804001 -0.02792,-0.200696 0.05421,-0.511432 -0.03784,-0.647999 -0.475387,0 -0.950774,0 -1.426161,0 0,2.215999 0,4.431999 0,6.647999 z"
       id="text2427"
       style="font-size:12px;font-style:normal;font-variant:normal;font-weight:bold;font-stretch:normal;text-align:start;line-height:125%;writing-mode:lr-tb;text-anchor:start;opacity:0.4;fill:#000000;fill-opacity:1;stroke:none;font-family:URW Gothic L;-inkscape-font-specification:URW Gothic L Book" />
  </g>
</svg>
