<?xml version="1.0" encoding="UTF-8" standalone="no"?>
<!-- Created with Inkscape (http://www.inkscape.org/) -->

<svg
   xmlns:dc="http://purl.org/dc/elements/1.1/"
   xmlns:cc="http://creativecommons.org/ns#"
   xmlns:rdf="http://www.w3.org/1999/02/22-rdf-syntax-ns#"
   xmlns:svg="http://www.w3.org/2000/svg"
   xmlns="http://www.w3.org/2000/svg"
   xmlns:xlink="http://www.w3.org/1999/xlink"
   xmlns:sodipodi="http://sodipodi.sourceforge.net/DTD/sodipodi-0.dtd"
   xmlns:inkscape="http://www.inkscape.org/namespaces/inkscape"
   version="1.1"
   width="48"
   height="48"
   id="svg4297"
   sodipodi:docname="application-x-deb.svg"
   inkscape:version="0.92.4 (5da689c313, 2019-01-14)">
  <metadata
     id="metadata54">
    <rdf:RDF>
      <cc:Work
         rdf:about="">
        <dc:format>image/svg+xml</dc:format>
        <dc:type
           rdf:resource="http://purl.org/dc/dcmitype/StillImage" />
        <dc:title></dc:title>
      </cc:Work>
    </rdf:RDF>
  </metadata>
  <sodipodi:namedview
     pagecolor="#ffffff"
     bordercolor="#666666"
     borderopacity="1"
     objecttolerance="10"
     gridtolerance="10"
     guidetolerance="10"
     inkscape:pageopacity="0"
     inkscape:pageshadow="2"
     inkscape:window-width="1680"
     inkscape:window-height="1004"
     id="namedview52"
     showgrid="false"
     inkscape:zoom="3.4766083"
     inkscape:cx="-35.046056"
     inkscape:cy="5.8056215"
     inkscape:window-x="-4"
     inkscape:window-y="-4"
     inkscape:window-maximized="1"
     inkscape:current-layer="layer1" />
  <defs
     id="defs4299">
    <radialGradient
       cx="5"
       cy="41.5"
       r="5"
       fx="5"
       fy="41.5"
       id="radialGradient3314"
       xlink:href="#linearGradient3681"
       gradientUnits="userSpaceOnUse"
       gradientTransform="matrix(0.5938225,0,0,1.5366531,41.140892,-103.93618)" />
    <linearGradient
       id="linearGradient3703">
      <stop
         id="stop3705"
         style="stop-color:#000000;stop-opacity:0"
         offset="0" />
      <stop
         id="stop3711"
         style="stop-color:#000000;stop-opacity:1"
         offset="0.5" />
      <stop
         id="stop3707"
         style="stop-color:#000000;stop-opacity:0"
         offset="1" />
    </linearGradient>
    <linearGradient
       x1="17.554192"
       y1="46.000275"
       x2="17.554192"
       y2="34.999718"
       id="linearGradient3312"
       xlink:href="#linearGradient3703"
       gradientUnits="userSpaceOnUse"
       gradientTransform="matrix(1.7570316,0,0,1.3969574,-17.394014,-16.411698)" />
    <linearGradient
       id="linearGradient3681">
      <stop
         id="stop3683"
         style="stop-color:#000000;stop-opacity:1"
         offset="0" />
      <stop
         id="stop3685"
         style="stop-color:#000000;stop-opacity:0"
         offset="1" />
    </linearGradient>
    <radialGradient
       cx="5"
       cy="41.5"
       r="5"
       fx="5"
       fy="41.5"
       id="radialGradient3310"
       xlink:href="#linearGradient3681"
       gradientUnits="userSpaceOnUse"
       gradientTransform="matrix(0.5938225,0,0,1.5366531,-6.6594735,-103.93618)" />
    <linearGradient
       id="linearGradient3295">
      <stop
         id="stop3297"
         style="stop-color:#c9af8b;stop-opacity:1"
         offset="0" />
      <stop
         id="stop3299"
         style="stop-color:#ad8757;stop-opacity:1"
         offset="0.23942046" />
      <stop
         id="stop3301"
         style="stop-color:#c2a57f;stop-opacity:1"
         offset="0.27582464" />
      <stop
         id="stop3303"
         style="stop-color:#9d7d53;stop-opacity:1"
         offset="1" />
    </linearGradient>
    <linearGradient
       x1="15.464298"
       y1="7.9756851"
       x2="15.464298"
       y2="45.04248"
       id="linearGradient3293"
       xlink:href="#linearGradient3295"
       gradientUnits="userSpaceOnUse" />
    <linearGradient
       id="linearGradient3199">
      <stop
         id="stop3201"
         style="stop-color:#dac197;stop-opacity:1"
         offset="0" />
      <stop
         id="stop3203"
         style="stop-color:#c1a581;stop-opacity:1"
         offset="0.23942046" />
      <stop
         id="stop3205"
         style="stop-color:#dbc298;stop-opacity:1"
         offset="0.27582464" />
      <stop
         id="stop3207"
         style="stop-color:#a68b60;stop-opacity:1"
         offset="1" />
    </linearGradient>
    <linearGradient
       x1="24.822832"
       y1="15.377745"
       x2="24.996943"
       y2="37.27668"
       id="linearGradient3197"
       xlink:href="#linearGradient3242-593-605-251-305"
       gradientUnits="userSpaceOnUse"
       gradientTransform="matrix(1.2822251,0,0,1.5572619,-6.0701918,-15.290756)" />
    <linearGradient
       id="linearGradient4559">
      <stop
         id="stop4561"
         style="stop-color:#ffffff;stop-opacity:0"
         offset="0" />
      <stop
         id="stop4563"
         style="stop-color:#ffffff;stop-opacity:0"
         offset="1" />
    </linearGradient>
    <linearGradient
       x1="23.451576"
       y1="30.554907"
       x2="43.00663"
       y2="45.934479"
       id="linearGradient2659"
       xlink:href="#linearGradient4559"
       gradientUnits="userSpaceOnUse"
       gradientTransform="matrix(1.2822251,0,0,1.1746872,-6.0701918,-5.3031677)" />
    <linearGradient
       id="linearGradient3827">
      <stop
         id="stop3829"
         style="stop-color:#ffffff;stop-opacity:1"
         offset="0" />
      <stop
         id="stop4295"
         style="stop-color:#ffffff;stop-opacity:1"
         offset="0.3021296" />
      <stop
         id="stop4293"
         style="stop-color:#ffffff;stop-opacity:0.6901961"
         offset="0.34361121" />
      <stop
         id="stop3832"
         style="stop-color:#ffffff;stop-opacity:0"
         offset="1" />
    </linearGradient>
    <linearGradient
       x1="26"
       y1="22"
       x2="26"
       y2="8"
       id="linearGradient3834"
       xlink:href="#linearGradient888"
       gradientUnits="userSpaceOnUse"
       gradientTransform="translate(0,0.20338983)" />
    <linearGradient
       id="linearGradient3275">
      <stop
         id="stop3277"
         style="stop-color:#ffffff;stop-opacity:0"
         offset="0" />
      <stop
         id="stop3283"
         style="stop-color:#ffffff;stop-opacity:1"
         offset="0.245" />
      <stop
         id="stop3285"
         style="stop-color:#ffffff;stop-opacity:1"
         offset="0.77350003" />
      <stop
         id="stop3279"
         style="stop-color:#ffffff;stop-opacity:0"
         offset="1" />
    </linearGradient>
    <linearGradient
       x1="44.994774"
       y1="17.5"
       x2="3.0052247"
       y2="17.5"
       id="linearGradient3281"
       xlink:href="#linearGradient888"
       gradientUnits="userSpaceOnUse"
       spreadMethod="reflect" />
    <linearGradient
       x1="33.579403"
       y1="5.7086449"
       x2="33.579403"
       y2="16.323294"
       id="linearGradient3636-65"
       xlink:href="#linearGradient888"
       gradientUnits="userSpaceOnUse"
       gradientTransform="matrix(0.8148434,0,0,0.6596233,-75.073028,-14.816873)" />
    <linearGradient
       id="linearGradient888">
      <stop
         offset="0"
         style="stop-color:#f4b88c;stop-opacity:1"
         id="stop884" />
      <stop
         offset="1"
         style="stop-color:#f3e79c;stop-opacity:1"
         id="stop886" />
    </linearGradient>
    <linearGradient
       x1="24.682861"
       y1="9.2416716"
       x2="24.682861"
       y2="13.523027"
       id="linearGradient3639"
       xlink:href="#linearGradient3681"
       gradientUnits="userSpaceOnUse"
       gradientTransform="matrix(0.9563112,0,0,0.4680085,-71.758518,-8.3760284)" />
    <linearGradient
       x1="16.626165"
       y1="15.298182"
       x2="20.054544"
       y2="24.627615"
       id="linearGradient2849"
       xlink:href="#linearGradient8265-821-176-38-919-66-249"
       gradientUnits="userSpaceOnUse"
       gradientTransform="matrix(0.9578231,0,0,1.0182827,-71.801318,-16.12872)" />
    <linearGradient
       id="linearGradient8265-821-176-38-919-66-249">
      <stop
         id="stop2687"
         style="stop-color:#ffffff;stop-opacity:1"
         offset="0" />
      <stop
         id="stop2689"
         style="stop-color:#ffffff;stop-opacity:0"
         offset="1" />
    </linearGradient>
    <radialGradient
       cx="26.616697"
       cy="-2.0644982"
       r="23"
       fx="26.616697"
       fy="-2.0644982"
       id="radialGradient3966"
       xlink:href="#linearGradient3242-593-605-251-305"
       gradientUnits="userSpaceOnUse"
       gradientTransform="matrix(-1.8187668e-8,-1.0656573,1.3967139,0,-36.848373,40.507987)" />
    <linearGradient
       id="linearGradient3242-593-605-251-305">
      <stop
         id="stop2749"
         style="stop-color:#8ec5d7;stop-opacity:1"
         offset="0" />
      <stop
         id="stop2751"
         style="stop-color:#6499c5;stop-opacity:1"
         offset="0.26238" />
      <stop
         id="stop2753"
         style="stop-color:#3e6ea4;stop-opacity:1"
         offset="0.66093999" />
      <stop
         id="stop2755"
         style="stop-color:#1a4ba7;stop-opacity:1"
         offset="1" />
    </linearGradient>
    <radialGradient
       cx="605.71429"
       cy="486.64789"
       r="117.14286"
       fx="605.71429"
       fy="486.64789"
       id="radialGradient2782"
       xlink:href="#linearGradient3681"
       gradientUnits="userSpaceOnUse"
       gradientTransform="matrix(-0.06553443,0,0,0.02470588,-25.140433,13.890793)" />
    <radialGradient
       cx="605.71429"
       cy="486.64789"
       r="117.14286"
       fx="605.71429"
       fy="486.64789"
       id="radialGradient2785"
       xlink:href="#linearGradient3681"
       gradientUnits="userSpaceOnUse"
       gradientTransform="matrix(0.06553443,0,0,0.02470588,-72.486678,13.890793)" />
    <linearGradient
       x1="302.85715"
       y1="366.64789"
       x2="302.85715"
       y2="609.50507"
       id="linearGradient2788"
       xlink:href="#linearGradient3703"
       gradientUnits="userSpaceOnUse"
       gradientTransform="matrix(0.06553443,0,0,0.02470588,-72.499578,13.890793)" />
    <radialGradient
       inkscape:collect="always"
       xlink:href="#linearGradient3242-593-605-251-305"
       id="radialGradient935"
       cx="43.219528"
       cy="16.881748"
       fx="43.219528"
       fy="16.881748"
       r="21.000694"
       gradientTransform="matrix(2.0347936,0.08316898,-0.04553145,1.1139623,-43.954639,-4.3814603)"
       gradientUnits="userSpaceOnUse" />
  </defs>
  <g
     id="layer1">
    <g
       transform="matrix(0.9926623,0,0,0.9761474,0.2751901,1.2929634)"
       id="g3305"
       style="opacity:0.4;display:inline">
      <rect
         width="2.9601951"
         height="15.366531"
         x="-3.6903627"
         y="-47.848343"
         transform="scale(-1,-1)"
         id="rect2484"
         style="fill:url(#radialGradient3310);fill-opacity:1;stroke:none" />
      <rect
         width="40.41172"
         height="15.366531"
         x="3.6903627"
         y="32.481812"
         id="rect2486"
         style="fill:url(#linearGradient3312);fill-opacity:1;stroke:none" />
      <rect
         width="2.9601951"
         height="15.366531"
         x="44.110001"
         y="-47.848343"
         transform="scale(1,-1)"
         id="rect3444"
         style="fill:url(#radialGradient3314);fill-opacity:1;stroke:none;display:inline" />
    </g>
    <path
       d="m 9.010725,8.5 29.497723,0 c 1.721985,0 2.496922,-0.2865505 2.991552,1 l 3.001734,8 0,25.673912 c 0,1.553304 0.10293,1.315976 -1.619063,1.315976 l -37.7653422,0 c -1.7219924,0 -1.6190635,0.237328 -1.6190635,-1.315976 L 3.4982653,17.5 6.5,9.5 c 0.4808316,-1.2605622 0.7887325,-1 2.510725,-1 z"
       id="path2488"
       style="fill:url(#radialGradient935);fill-opacity:1;fill-rule:nonzero;stroke:#000000;stroke-width:0.99420077;stroke-linecap:round;stroke-linejoin:miter;stroke-miterlimit:4;stroke-opacity:1;stroke-dasharray:none;stroke-dashoffset:0;marker:none;visibility:visible;display:block;overflow:visible" />
    <path
       d="m 9.948194,9.5129459 27.652872,0 c 1.614293,0 2.61338,0.5565361 3.289521,2.0860281 l 2.32894,6.419721 0,23.144557 c 0,1.460676 -0.818759,2.196085 -2.433056,2.196085 l -33.7332031,0 c -1.6142934,0 -2.2727761,-0.808827 -2.2727761,-2.269504 l 0,-23.071138 2.2538109,-6.55736 C 7.4850649,10.275943 8.3338968,9.5129459 9.948194,9.5129459 z"
       id="path2490"
       style="opacity:0.50549454;fill:none;stroke:url(#linearGradient2659);stroke-width:0.74211526;stroke-linecap:butt;stroke-linejoin:miter;stroke-miterlimit:4;stroke-opacity:1;stroke-dasharray:none;stroke-dashoffset:0;marker:none;visibility:visible;display:block;overflow:visible" />
    <path
       d="m 22,8.2033898 c 1.333333,0 2.666667,0 4,0 0,4.6666672 0,9.3333332 0,14.0000002 -0.393729,0 -0.787458,0 -1.181187,0 -0.403125,0 -0.80625,0 -1.209375,0 -0.324529,0 -0.649057,0 -0.973585,0 -0.211951,0 -0.423902,0 -0.635853,0 0,-4.666667 0,-9.333333 0,-14.0000002 z"
       id="rect3326"
       style="display:inline;overflow:visible;visibility:visible;opacity:1;fill:url(#linearGradient3834);fill-opacity:1;fill-rule:nonzero;stroke:#000000;stroke-width:1;stroke-opacity:1;marker:none;enable-background:accumulate"
       inkscape:connector-curvature="0" />
    <path
       d="m 3.5052248,17.5 40.9895502,0"
       id="path3273"
       style="opacity:1;fill:none;stroke:#000000;stroke-width:0.9;stroke-linecap:square;stroke-linejoin:miter;stroke-opacity:1;display:inline;stroke-miterlimit:4;stroke-dasharray:none" />
    <path
       inkscape:connector-curvature="0"
       d="m 25.261802,23.347989 c -0.04963,0.05405 -1.576558,0.119937 -0.588287,0.0407 0.196102,-0.01356 0.392185,-0.02714 0.588287,-0.0407 z m -1.454429,0.136322 c -0.539918,0.240786 -0.386432,0.217195 0.123088,0.217555 0.156274,0.03973 0.950397,0.03093 0.703686,-0.04615 -0.853247,-0.112402 0.916056,-0.0566 -0.06927,0.08166 -0.909341,0.198095 0.205339,0.115157 0.504429,0.05956 0.653807,0.0442 0.64216,-0.222286 1.365219,0.08831 0.550947,0.116676 1.069186,0.381889 1.588668,0.530255 0.688096,-0.28437 1.056739,0.311013 1.570609,0.527439 -0.863106,-0.713092 0.584899,0.165571 0.84352,0.381498 1.01851,0.748986 1.874102,1.718037 2.237363,2.849308 -0.370328,-0.601511 -0.153664,0.387746 -0.08408,0.569151 0.128538,0.232779 0.514031,1.750451 0.188537,0.742415 -0.171598,-0.380765 -0.466514,-1.500208 -0.788687,-1.464912 -0.633621,-0.126073 -0.289661,0.673279 0,0.572545 0.06598,0.277861 0.523122,1.467271 -0.03517,0.739528 0.374003,0.533139 0.135801,0.850025 0.359709,1.376842 0.252568,0.08722 -0.311465,0.871431 -0.125112,1.267786 -0.101514,-0.299857 -0.261214,-0.697076 -0.195729,-0.138773 0.112452,0.271405 -0.289128,1.259936 -0.05451,0.459136 0.05242,-1.143993 -0.185821,0.429838 -0.473316,0.740173 -0.259954,0.223223 -0.107427,0.951856 -0.449381,0.398094 -0.25988,0.166268 -0.476757,1.44909 -0.344047,0.654342 -0.653916,0.5033 -1.362327,1.121527 -2.236886,1.413486 -1.305451,0.519679 -2.864698,0.400972 -4.15946,0.01789 0.674602,0.720486 1.870641,0.621703 2.799375,0.667972 -1.557826,0.4058 -3.215001,-0.316478 -4.335429,-1.240086 -0.304081,-0.208981 -0.804013,-0.957098 -0.188148,-0.361676 0.22572,0.31598 1.392798,1.180483 0.551267,0.429412 -0.690621,-0.799265 0.664195,0.557344 1.126007,0.586171 -0.247279,-0.624467 -1.354851,-0.939573 -1.715452,-1.61833 -0.640349,-0.775475 -0.761021,-1.797366 -0.566855,-2.714961 0.294277,-0.450886 0.351986,-1.034764 0.863067,-1.371725 0.896594,-1.444719 3.437896,-1.648819 4.687538,-0.440494 0.70969,0.64659 -0.684456,-0.425147 -1.063928,-0.332649 -1.793203,-0.396029 -3.756142,0.797725 -3.937488,2.408081 -0.06007,0.261718 -0.06762,0.731054 0.09104,0.493531 -0.05911,1.949622 2.357168,3.74896 4.551916,3.14629 0.571189,-0.04929 1.108372,-0.356268 1.56109,-0.7272 -0.55391,0.58438 0.564888,-0.121891 0.788653,-0.354847 0.79254,-0.205836 0.360952,-1.000001 1.027299,-1.214114 0.179908,-0.196132 0.568346,-1.606123 0.156398,-0.845191 0.268441,-0.701799 0.13337,-1.443854 0.156382,-2.1675 -0.180352,-0.615893 -0.355806,-1.435913 -0.815679,-2.035648 -0.903145,-1.319699 -2.424782,-2.384676 -4.22784,-2.521668 -0.703582,-0.175609 -2.248571,0.09043 -2.357647,0.120086 0.966642,-0.272561 -0.847498,-0.03617 -0.99697,0.211282 -0.382724,0.203262 -1.412132,0.519734 -0.453537,0.327172 -0.524025,0.234169 -1.748863,0.348331 -1.855969,0.825047 0.653309,-0.09186 -0.627037,0.278631 -0.806199,0.418255 -0.800424,0.540607 -1.548837,1.16957 -2.092077,1.91934 0.389825,0.06921 -0.19344,0.549018 -0.237421,0.798093 -0.375002,0.51398 -0.454035,1.112246 -0.481984,1.710212 -0.09649,0.888874 -0.312247,1.885368 0.16558,2.707524 -0.107051,0.310936 -0.01063,0.589352 0.194132,0.850451 -0.330144,0.431328 0.600807,0.924253 1.000895,1.172368 0.312209,0.355473 0.398026,0.857054 -0.0782,0.381689 0.382489,0.59712 0.413281,1.12429 0.87578,1.513163 -0.41415,0.03896 0.592552,0.954968 0.766314,1.185991 0.200224,-0.201438 0.347192,0.979318 0.969608,0.790661 0.07135,0.447122 1.179668,0.516458 0.750673,0.872451 0.233975,-0.01463 1.37259,0.835201 1.040456,0.298617 0.129747,0.03104 0.506537,0.443849 0.739466,0.601528 0.672454,0.505979 1.643518,0.413092 2.411342,0.667548 -2.346533,0.126233 -4.608188,-0.814954 -6.273258,-2.209299 -2.449626,-1.961747 -3.962119,-4.863388 -3.771591,-7.781779 -0.05879,-0.708617 0.108848,-1.428933 -0.05794,-2.127848 0.315462,-0.791412 0.600239,-1.907886 1.141633,-2.453776 0.627353,-0.55619 0.760685,-1.422652 1.450522,-1.963005 0.726541,-0.691275 1.273315,-1.036217 1.983217,-1.389625 0.910037,-0.50653 1.912281,-0.877835 2.915694,-1.214121 -0.189975,0.280698 0.970409,-0.149719 1.079094,-0.05452 v 2e-6 z m -8.100997,3.994198 c 0.619608,0.0031 -0.489351,0.949331 -0.0088,0.163597 l 0.0088,-0.163595 z m -0.39096,1.458635 c -0.04011,0.922745 -0.47884,0.816807 -1.9e-5,0 z m 13.058537,2.153869 c 0.300087,0.200218 -0.121044,0.784899 -0.0821,0.09544 z m 4.050511,0.967879 c -0.104266,0.659323 -0.334709,1.337041 -0.703759,1.908493 0.357331,-0.597872 0.493114,-1.271867 0.703759,-1.908493 z m -4.253821,0.218112 c 0.08054,0.465757 -0.803638,1.216051 -0.594271,0.449872 0.527151,-0.606561 0.056,-0.0079 -0.01564,0.258998 0.386081,-0.06888 0.466837,-0.462323 0.609916,-0.70887 z m -1.501322,1.22689 c -0.1833,0.617976 -1.653798,-0.07542 -0.60562,0.05452 0.203473,0.0029 0.408487,-0.0071 0.60562,-0.05453 v 10e-7 z m -4.644782,0.0409 c 0.22256,0.240556 0.628968,1.100565 0.158816,0.367223 -0.06842,-0.115754 -0.152512,-0.233401 -0.158816,-0.367223 z m -0.297155,0.449859 c 0.241721,0.322131 0.514368,0.727619 0.70376,1.049672 -0.250509,-0.296362 -0.872338,-0.636893 -0.70376,-1.049672 z"
       id="text2244"
       style="font-style:normal;font-weight:normal;font-size:18.03777695px;font-family:OpenLogos;opacity:0.87900002;fill:#ffffff;fill-opacity:1;stroke:none;stroke-width:0.38630131px;stroke-linecap:butt;stroke-linejoin:miter;stroke-opacity:1" />
  </g>
</svg>
